<?xml version="1.0" encoding="UTF-8"?>
<svg id="Layer_2" data-name="Layer 2" xmlns="http://www.w3.org/2000/svg" viewBox="0 0 1920 1060">
  <defs>
    <style>
      .cls-1 {
        stroke: #fff;
      }

      .cls-1, .cls-2 {
        fill: #fff;
        stroke-miterlimit: 10;
        stroke-width: 3px;
      }

      .cls-2 {
        stroke: #ff5959;
      }
    </style>
  </defs>
  <g id="Layer_1-2" data-name="Layer 1">
    <line class="cls-2" x1="1" y1="1.5" x2="219" y2="1.5"/>
    <line class="cls-2" x1="219.5" y1="46" x2="219.5"/>
    <line class="cls-1" x1="1" y1="88.5" x2="221" y2="88.5"/>
    <line class="cls-1" x1="1" y1="272.5" x2="221" y2="272.5"/>
    <line class="cls-1" x1="219.5" y1="361" x2="219.5" y2="271"/>
    <line class="cls-1" x1="1" y1="359.5" x2="221" y2="359.5"/>
    <line class="cls-1" x1="1" y1="414.5" x2="221" y2="414.5"/>
    <line class="cls-1" x1="219.5" y1="503" x2="219.5" y2="413"/>
    <line class="cls-1" x1="1" y1="501.5" x2="221" y2="501.5"/>
    <line class="cls-1" x1="1" y1="557.5" x2="221" y2="557.5"/>
    <line class="cls-1" x1="219.5" y1="646" x2="219.5" y2="556"/>
    <line class="cls-1" x1="1" y1="644.5" x2="221" y2="644.5"/>
    <line class="cls-1" x1="1" y1="130.5" x2="219" y2="130.5"/>
    <line class="cls-1" x1="219.5" y1="219" x2="219.5" y2="129"/>
    <line class="cls-1" x1="1" y1="217.5" x2="221" y2="217.5"/>
    <line class="cls-1" x1="1" y1="700.5" x2="221" y2="700.5"/>
    <line class="cls-1" x1="219.5" y1="789" x2="219.5" y2="699"/>
    <line class="cls-1" x1="1" y1="787.5" x2="221" y2="787.5"/>
    <line class="cls-1" y1="843.5" x2="220" y2="843.5"/>
    <line class="cls-1" x1="218.5" y1="932" x2="218.5" y2="842"/>
    <line class="cls-1" y1="930.5" x2="220" y2="930.5"/>
    <line class="cls-2" x1="399" y1="44.5" x2="220" y2="44.5"/>
    <line class="cls-1" x1="399" y1="173.5" x2="220" y2="173.5"/>
    <line class="cls-1" x1="399" y1="315.5" x2="220" y2="315.5"/>
    <line class="cls-1" x1="399" y1="457.5" x2="220" y2="457.5"/>
    <line class="cls-1" x1="399" y1="601.5" x2="220" y2="601.5"/>
    <line class="cls-1" x1="399" y1="744.5" x2="220" y2="744.5"/>
    <line class="cls-1" x1="399" y1="887.5" x2="220" y2="887.5"/>
    <line class="cls-1" x1="398.5" y1="175" x2="398.5" y2="109"/>
    <line class="cls-1" x1="399.5" y1="459" x2="399.5" y2="314"/>
    <line class="cls-1" x1="398.5" y1="746" x2="398.5" y2="600"/>
    <line class="cls-1" x1="399" y1="1015.5" x2="220" y2="1015.5"/>
    <line class="cls-1" x1="399.5" y1="1017" x2="399.5" y2="886"/>
    <line class="cls-2" x1="1919" y1="1058.5" x2="1701" y2="1058.5"/>
    <line class="cls-2" x1="1700.5" y1="1014" x2="1700.5" y2="1060"/>
    <line class="cls-1" x1="1919" y1="971.5" x2="1699" y2="971.5"/>
    <line class="cls-1" x1="1919" y1="787.5" x2="1699" y2="787.5"/>
    <line class="cls-1" x1="1700.5" y1="699" x2="1700.5" y2="789"/>
    <line class="cls-1" x1="1919" y1="700.5" x2="1699" y2="700.5"/>
    <line class="cls-1" x1="1919" y1="645.5" x2="1699" y2="645.5"/>
    <line class="cls-1" x1="1700.5" y1="557" x2="1700.5" y2="647"/>
    <line class="cls-1" x1="1919" y1="558.5" x2="1699" y2="558.5"/>
    <line class="cls-1" x1="1919" y1="502.5" x2="1699" y2="502.5"/>
    <line class="cls-1" x1="1700.5" y1="414" x2="1700.5" y2="504"/>
    <line class="cls-1" x1="1919" y1="415.5" x2="1699" y2="415.5"/>
    <line class="cls-1" x1="1919" y1="929.5" x2="1701" y2="929.5"/>
    <line class="cls-1" x1="1700.5" y1="841" x2="1700.5" y2="931"/>
    <line class="cls-1" x1="1919" y1="842.5" x2="1699" y2="842.5"/>
    <line class="cls-1" x1="1919" y1="359.5" x2="1699" y2="359.5"/>
    <line class="cls-1" x1="1700.5" y1="271" x2="1700.5" y2="361"/>
    <line class="cls-1" x1="1919" y1="272.5" x2="1699" y2="272.5"/>
    <line class="cls-1" x1="1920" y1="216.5" x2="1700" y2="216.5"/>
    <line class="cls-1" x1="1701.5" y1="128" x2="1701.5" y2="218"/>
    <line class="cls-1" x1="1920" y1="129.5" x2="1700" y2="129.5"/>
    <line class="cls-2" x1="1521" y1="1015.5" x2="1700" y2="1015.5"/>
    <line class="cls-1" x1="1521" y1="886.5" x2="1700" y2="886.5"/>
    <line class="cls-1" x1="1521" y1="744.5" x2="1700" y2="744.5"/>
    <line class="cls-1" x1="1521" y1="602.5" x2="1700" y2="602.5"/>
    <line class="cls-1" x1="1521" y1="458.5" x2="1700" y2="458.5"/>
    <line class="cls-1" x1="1521" y1="315.5" x2="1700" y2="315.5"/>
    <line class="cls-1" x1="1521" y1="172.5" x2="1700" y2="172.5"/>
    <line class="cls-2" x1="1521.5" y1="949" x2="1521.5" y2="1017"/>
    <line class="cls-1" x1="1520.5" y1="601" x2="1520.5" y2="746"/>
    <line class="cls-1" x1="1521.5" y1="314" x2="1521.5" y2="460"/>
    <line class="cls-1" x1="1521" y1="44.5" x2="1700" y2="44.5"/>
    <line class="cls-1" x1="1520.5" y1="43" x2="1520.5" y2="174"/>
    <line class="cls-2" x1="399" y1="108.5" x2="619" y2="108.5"/>
    <line class="cls-1" x1="400" y1="386.5" x2="620" y2="386.5"/>
    <line class="cls-1" x1="398" y1="672.5" x2="618" y2="672.5"/>
    <line class="cls-1" x1="398" y1="951.5" x2="618" y2="951.5"/>
    <line class="cls-1" x1="1300" y1="108.5" x2="1520" y2="108.5"/>
    <line class="cls-1" x1="1300" y1="386.5" x2="1520" y2="386.5"/>
    <line class="cls-1" x1="1300" y1="672.5" x2="1520" y2="672.5"/>
    <line class="cls-2" x1="1300" y1="950.5" x2="1520" y2="950.5"/>
    <line class="cls-2" x1="618.5" y1="248" x2="618.5" y2="107"/>
    <line class="cls-1" x1="618.5" y1="953" x2="618.5" y2="671"/>
    <line class="cls-1" x1="1299.5" y1="388" x2="1299.5" y2="107"/>
    <line class="cls-2" x1="1299.5" y1="952" x2="1299.5" y2="810"/>
    <line class="cls-1" x1="1080" y1="246.5" x2="1300" y2="246.5"/>
    <line class="cls-2" x1="1080" y1="811.5" x2="1300" y2="811.5"/>
    <line class="cls-2" x1="618" y1="246.5" x2="838" y2="246.5"/>
    <line class="cls-1" x1="618" y1="811.5" x2="838" y2="811.5"/>
    <line class="cls-2" x1="1079.5" y1="813" x2="1079.5" y2="458"/>
    <line class="cls-2" x1="837.5" y1="602" x2="837.5" y2="245"/>
    <line class="cls-2" x1="839" y1="600.5" x2="1059" y2="600.5"/>
    <line class="cls-2" x1="859" y1="459.5" x2="1079" y2="459.5"/>
    <line class="cls-1" x1="219.5" y1="89" x2="219.5" y2="46"/>
    <line class="cls-2" x1="398.5" y1="110" x2="398.5" y2="43"/>
    <line class="cls-1" x1="618.5" y1="388" x2="618.5" y2="248"/>
    <line class="cls-1" x1="837.5" y1="813" x2="837.5" y2="602"/>
    <line class="cls-1" x1="1700.5" y1="972" x2="1700.5" y2="1014"/>
    <line class="cls-1" x1="1521.5" y1="885" x2="1521.5" y2="949"/>
    <line class="cls-1" x1="1299.5" y1="671" x2="1299.5" y2="810"/>
    <line class="cls-1" x1="1079.5" y1="458" x2="1079.5" y2="245"/>
  </g>
</svg>