<svg width="50" height="50" viewBox="0 0 50 50" fill="none" xmlns="http://www.w3.org/2000/svg">
<g clip-path="url(#clip0_2923_36117)">
<path d="M45.0056 16.3032L47.0016 11.4109L39.9827 16.0965L40.2438 7.90003L32.2975 15.0957L25.0284 0L17.7022 15.0957L9.75319 7.89731L10.0143 16.0938L2.99805 11.4081L4.99413 16.3004L3.10683 15.2344L7.73535 26.9417C7.6592 27.045 7.17242 27.627 7.13163 27.695C6.97662 27.9561 6.81073 28.3912 6.71283 28.7338C6.4436 29.6748 8.20853 36.1498 8.20853 36.1498C8.20853 36.1498 8.5675 36.1008 9.1821 36.0165L9.07332 45.4694C9.0706 45.744 9.31807 45.9534 9.5873 45.9045C10.8328 45.6815 14.0554 45.1104 16.3071 44.7759C16.987 45.3905 17.5716 45.8773 18.0448 46.22C19.1435 47.0168 25.023 49.9973 25.023 49.9973C25.023 49.9973 30.8453 47.0168 31.9467 46.22C32.4199 45.8773 33.0046 45.3932 33.6844 44.7759C35.9497 45.1131 39.1913 45.6869 40.4233 45.9072C40.6843 45.9534 40.9209 45.7522 40.9182 45.4884L40.8094 36.0138C41.4213 36.0981 41.7803 36.1471 41.783 36.1471C41.783 36.1471 43.5479 29.672 43.2787 28.7311C43.1808 28.3884 43.0149 27.9561 42.8599 27.6923C42.8191 27.6243 42.3323 27.0423 42.2562 26.939L46.8847 15.2317L44.9974 16.3004L45.0056 16.3032Z" fill="black"/>
<path d="M41.3066 21.3478L42.0355 21.3559L42.2041 21.4593L42.2666 20.2029L41.3066 21.3478Z" fill="white"/>
<path d="M7.88792 20.3361L7.77642 20.2029L7.53711 21.6524L8.82885 22.615L8.73639 21.3478L7.88792 20.3361Z" fill="white"/>
<path d="M8.73536 21.3478L8.00654 21.3559L7.83794 21.4593L7.77539 20.2029L8.73536 21.3478Z" fill="white"/>
<path d="M7.06641 16.6757L11.5046 20.6788L10.8954 22.6205L12.1899 24.9646C12.1899 24.9646 13.2124 24.5377 14.5069 24.2005L12.9404 19.1232L12.7555 20.7332L11.646 22.1745L12.0675 20.521L7.06913 16.6757H7.06641Z" fill="white"/>
<path d="M41.7632 23.5016L40.3437 24.7362L39.8705 21.2145L43.0196 16.673L39.0166 20.7087L39.5958 23.6702L37.3332 20.7304L37.5454 14.0542L31.6659 19.0797L29.6834 20.2464L30.9479 18.3509L25.025 5.62384L19.1373 18.3509L20.4019 20.2464L18.4194 19.0797L12.5399 14.0542L12.7548 20.7304L11.6452 22.1718L12.0667 20.5183L7.06836 16.673L10.2175 21.2145L9.74431 24.7362L8.32475 23.5016L9.282 26.4467C9.282 26.4467 12.5046 24.2222 17.0325 23.7382C17.0325 23.7382 10.0706 25.8621 8.80609 28.0757C8.80609 28.0757 8.46344 28.6033 8.46344 30.1071C8.46344 30.1071 8.41449 30.545 8.48792 31.0644C9.27928 30.341 15.0609 26.89 24.7965 26.8329C24.8835 26.8329 24.9651 26.8329 25.044 26.8329C25.1229 26.8329 25.2072 26.8329 25.2915 26.8329C35.0271 26.89 40.8114 30.341 41.6001 31.0644C41.6735 30.545 41.6245 30.1071 41.6245 30.1071C41.6245 28.6006 41.2819 28.0757 41.2819 28.0757C40.0173 25.8621 33.0555 23.7382 33.0555 23.7382C37.5834 24.2222 40.806 26.4467 40.806 26.4467L41.7632 23.5016Z" fill="white"/>
<path d="M25.0152 23.3357L21.0475 18.5739L25.0288 9.55074V5.62656L19.1384 18.3563L20.403 20.2518L18.4205 19.0852L12.541 14.0596L17.126 20.0615L17.621 20.124L20.2153 27.1157C21.401 26.9743 22.671 26.8764 24.0253 26.8465L22.3664 21.8971L25.0125 23.3411L25.0152 23.3357Z" fill="white"/>
<path d="M41.7637 23.5016L40.3441 24.7362L39.8709 21.2145L43.0201 16.673L39.017 20.7087L39.5963 23.6702L37.3337 20.7304L37.5458 14.0542L31.6663 19.0797L29.6838 20.2464L30.9484 18.3509L25.0254 5.62112V9.54531L29.1998 18.2721L25.0417 26.8248C25.1206 26.8248 25.2049 26.8248 25.2892 26.8248C35.0248 26.8819 40.8091 30.3329 41.5978 31.0562C41.6712 30.5368 41.6223 30.099 41.6223 30.099C41.6223 28.5924 41.2796 28.0676 41.2796 28.0676C40.0151 25.8539 33.0532 23.73 33.0532 23.73C37.5811 24.2141 40.8037 26.4386 40.8037 26.4386L41.7609 23.4934L41.7637 23.5016Z" fill="white"/>
<path d="M42.1558 20.3361L42.2673 20.2029L42.5093 21.6524L41.2148 22.615L41.3073 21.3478L42.1558 20.3361Z" fill="white"/>
<path d="M40.8342 31.4043C40.8342 31.4043 40.4834 30.7517 39.4881 30.2785C33.5162 27.4366 26.7937 27.2925 25.045 27.3061C23.2964 27.2925 16.5739 27.4366 10.602 30.2785C9.60667 30.7517 9.25586 31.4043 9.25586 31.4043L12.0025 30.6374C12.0025 30.6374 16.8459 28.2579 24.6099 28.2171V28.2226C24.7568 28.2226 24.9009 28.2171 25.045 28.2171C25.1892 28.2171 25.3333 28.2171 25.4802 28.2226V28.2171C33.2442 28.2579 38.0876 30.6374 38.0876 30.6374L40.8342 31.4043Z" fill="white"/>
<path d="M37.5457 14.0542L32.4467 19.4577L28.498 20.9426L31.6662 19.0797L37.5457 14.0542Z" fill="white"/>
<path d="M37.5457 14.0542L32.9471 19.8493L28.498 20.9426L32.4467 19.4577L37.5457 14.0542Z" fill="white"/>
<path d="M39.0168 20.7114L43.0199 16.6757L38.0215 20.521L38.443 22.1745L39.5961 23.6729L39.0168 20.7114Z" fill="white"/>
<path d="M43.0199 16.6757L38.288 20.6271L38.4077 21.8209L38.443 22.1745L38.0215 20.521L43.0199 16.6757Z" fill="white"/>
<path d="M8.32499 23.5016L9.35294 25.9382C9.35294 25.9382 13.3859 23.6348 17.03 23.7355C17.03 23.7355 12.9182 24.089 9.27952 26.444L8.32227 23.4989L8.32499 23.5016Z" fill="white"/>
<path d="M14.6652 24.5594C13.349 25.0245 12.457 25.4895 12.457 25.4895L13.7107 28.5516C14.5836 28.2742 14.7305 28.2226 15.8047 27.9452C15.1711 25.9409 14.668 24.5622 14.668 24.5622" fill="white"/>
<path d="M27.1444 18.1415L25.0286 13.5184L22.9102 18.1415L25.0286 20.0642V20.0669L27.1444 18.1415Z" fill="black"/>
<path d="M24.3297 17.9729L25.0286 16.2053V14.8999L23.6934 17.9729H24.2644" fill="white"/>
<path d="M23.6934 17.9729H24.3297L25.0286 18.6065V19.2592L23.6934 17.9729Z" fill="white"/>
<path d="M26.3646 17.9729H25.7282L25.0293 18.6065V19.2592L26.3646 17.9729Z" fill="white"/>
<path d="M25.7279 17.9729L25.029 16.2053L24.3301 17.9729L25.029 18.6065L25.7279 17.9729Z" fill="white"/>
<path d="M26.3646 17.9729H25.7282L25.0293 16.2053V14.8999L26.3646 17.9729Z" fill="white"/>
<path d="M19.9351 30.8142V34.3278C19.9351 34.5317 19.8345 34.7438 19.6632 34.8961L18.9507 35.5352C18.7494 35.7174 18.7467 36.0138 18.9507 36.1036L19.6305 36.4109C19.8209 36.4979 19.9378 36.6883 19.9378 36.9194V40.025C19.9378 40.7294 19.3667 41.4283 18.6651 41.5887L10.436 43.4651C10.3273 43.4896 10.2402 43.4216 10.2402 43.3129V32.2963C10.2402 32.1875 10.3273 32.0788 10.436 32.0543L19.0132 30.099C19.5245 29.9821 19.9405 30.303 19.9405 30.8142M16.6473 33.2046L13.5226 33.9171C13.4138 33.9416 13.3268 34.0504 13.3268 34.1592V35.6222C13.3268 35.731 13.4138 35.799 13.5226 35.7745L16.6473 35.062C16.7561 35.0375 16.8431 34.9288 16.8431 34.82V33.3569C16.8431 33.2481 16.7561 33.1801 16.6473 33.2046ZM16.6473 37.6265L13.5226 38.339C13.4138 38.3634 13.3268 38.4722 13.3268 38.581V40.0604C13.3268 40.1692 13.4138 40.2371 13.5226 40.2127L16.6473 39.5002C16.7561 39.4757 16.8431 39.3669 16.8431 39.2581V37.7788C16.8431 37.67 16.7561 37.602 16.6473 37.6265Z" fill="white"/>
<path d="M30.3101 30.7217V34.2353C30.3101 34.4392 30.2095 34.6296 30.0382 34.7411L29.3257 35.217C29.1244 35.353 29.1217 35.6494 29.3257 35.7854L30.0055 36.2477C30.1986 36.3782 30.3128 36.5958 30.3128 36.8269V39.9325C30.3128 40.6369 29.7417 41.2053 29.0401 41.2053H20.811C20.7023 41.2053 20.6152 41.1182 20.6152 41.0095V29.9929C20.6152 29.8841 20.7023 29.7971 20.811 29.7971H29.3882C29.8995 29.7971 30.3155 30.2132 30.3155 30.7245M27.0223 32.3643H23.8976C23.7888 32.3643 23.7018 32.4513 23.7018 32.5601V34.0232C23.7018 34.1319 23.7888 34.219 23.8976 34.219H27.0223C27.1311 34.219 27.2181 34.1319 27.2181 34.0232V32.5601C27.2181 32.4513 27.1311 32.3643 27.0223 32.3643ZM27.0223 36.7861H23.8976C23.7888 36.7861 23.7018 36.8732 23.7018 36.9819V38.4613C23.7018 38.5701 23.7888 38.6571 23.8976 38.6571H27.0223C27.1311 38.6571 27.2181 38.5701 27.2181 38.4613V36.9819C27.2181 36.8732 27.1311 36.7861 27.0223 36.7861Z" fill="white"/>
<path d="M37.8036 39.5546V39.7694C37.8036 39.9652 37.6459 40.0876 37.4501 40.0414L34.5566 39.3832C34.3608 39.3397 34.203 39.1439 34.203 38.9481V30.8088C34.203 30.613 34.0453 30.4199 33.8495 30.3764L31.334 29.8026C31.1382 29.7591 30.9805 29.8814 30.9805 30.0745V39.8809C30.9805 40.5716 31.5407 41.2624 32.2341 41.4174L39.5386 43.0817C39.7344 43.1252 39.8921 43.0028 39.8921 42.8098V40.0305C39.8921 39.8347 39.7344 39.6416 39.5386 39.5981L38.1571 39.2826C37.9613 39.2391 37.8036 39.3615 37.8036 39.5546Z" fill="white"/>
<path d="M18.1499 43.1007C18.1635 43.2639 18.1717 43.3455 18.1826 43.5086C18.6394 43.4706 18.8679 43.4543 19.3247 43.4216C19.341 43.6473 19.3492 43.7588 19.3628 43.9845C18.9086 44.0172 18.6802 44.0335 18.2288 44.0716C18.2424 44.2347 18.2478 44.319 18.2641 44.4822C18.7156 44.4441 18.9413 44.4278 19.3927 44.3952C19.409 44.6182 19.4172 44.7297 19.4308 44.9554C18.74 45.0043 18.3974 45.0315 17.7066 45.0941C17.6305 44.2456 17.5897 43.8214 17.5136 42.9729C17.3912 42.8315 17.3314 42.7608 17.209 42.6221C18.0275 42.546 18.4382 42.5106 19.2567 42.4535C19.2731 42.6792 19.2812 42.7907 19.2948 43.0164C18.8352 43.0491 18.6041 43.0654 18.1445 43.1034" fill="white"/>
<path d="M20.2555 43.3618C20.7422 43.3346 20.987 43.321 21.4738 43.2992C21.501 43.9138 21.5119 44.2211 21.539 44.8357C20.8293 44.8657 20.473 44.8847 19.766 44.9309C19.7524 44.7052 19.7442 44.5937 19.7279 44.368C20.2092 44.3354 20.4485 44.3218 20.9326 44.2973C20.9244 44.1341 20.919 44.0525 20.9109 43.8894C20.4268 43.9138 20.1848 43.9274 19.7007 43.9601C19.6708 43.4978 19.6545 43.2666 19.6245 42.8043C19.5076 42.6602 19.4478 42.5895 19.3281 42.4453C20.1684 42.3882 20.5872 42.3638 21.4275 42.3284C21.4384 42.5514 21.4411 42.6656 21.452 42.8886C20.9625 42.9104 20.7178 42.9212 20.2283 42.9512C20.2391 43.1143 20.2419 43.1986 20.2527 43.3618" fill="white"/>
<path d="M23.6832 42.2631C23.6941 42.9457 23.6995 43.2856 23.7104 43.9682C23.2209 43.9764 22.9761 43.9818 22.4866 43.9954C22.4975 44.3163 22.5002 44.4795 22.5111 44.8004C22.2691 44.8085 22.1494 44.8113 21.9101 44.8221C21.8775 43.9709 21.8611 43.544 21.8285 42.6928C21.7143 42.5459 21.6572 42.4725 21.543 42.3257C22.3996 42.2903 22.8266 42.2767 23.6859 42.2658M23.1039 42.8369C22.8429 42.8424 22.7151 42.8451 22.454 42.8532C22.4621 43.0871 22.4649 43.2041 22.473 43.4352C22.7314 43.4271 22.8592 43.4243 23.1175 43.4189C23.1121 43.185 23.1094 43.0681 23.1039 42.8369Z" fill="white"/>
<path d="M25.9343 42.2604C25.9234 43.2639 25.9153 43.767 25.9044 44.7705C25.1756 44.7623 24.8084 44.7623 24.0796 44.7705C24.0715 43.9193 24.066 43.4951 24.0579 42.6439C23.9491 42.4916 23.892 42.4154 23.7832 42.2659C24.6453 42.255 25.0749 42.2523 25.937 42.2659M25.336 42.8261C25.0641 42.8261 24.9254 42.8261 24.6534 42.8261C24.6534 43.3808 24.6562 43.6582 24.6589 44.2103C24.9281 44.2103 25.0614 44.2103 25.3306 44.2103C25.3333 43.6555 25.336 43.3781 25.3387 42.8261" fill="white"/>
<path d="M27.3235 43.9138C27.1467 43.9084 27.0597 43.9057 26.8829 43.903C26.8748 44.2592 26.8693 44.436 26.8612 44.7895C26.63 44.7841 26.5131 44.7813 26.2819 44.7786C26.2955 43.9274 26.3037 43.5005 26.3173 42.6466C26.2112 42.4943 26.1568 42.4154 26.0508 42.2631C26.9074 42.274 27.3371 42.2876 28.1937 42.3202C28.1692 42.9702 28.1556 43.2938 28.1285 43.941C28.0387 43.9383 27.9952 43.9356 27.9055 43.9329C28.0278 44.2918 28.0877 44.474 28.2046 44.833C27.9734 44.8249 27.8592 44.8194 27.6281 44.8113C27.5057 44.4523 27.4459 44.2728 27.3181 43.9138M26.8911 43.3373C27.1576 43.3427 27.2909 43.3482 27.5574 43.3563C27.5628 43.1578 27.5682 43.0572 27.5737 42.8587C27.3045 42.8505 27.1712 42.8451 26.902 42.8396C26.8965 43.0382 26.8938 43.1388 26.8911 43.3373Z" fill="white"/>
<path d="M29.812 42.962C29.7658 43.7398 29.7413 44.1287 29.6951 44.9065C29.453 44.8929 29.3334 44.8847 29.094 44.8738C29.1348 44.0961 29.1566 43.7045 29.1974 42.9267C29.0179 42.9158 28.9282 42.9131 28.7514 42.9049C28.5964 42.6738 28.5202 42.5568 28.3652 42.3257C29.2164 42.361 29.6407 42.3855 30.4891 42.4426C30.4755 42.6656 30.4674 42.7771 30.4511 43.0028C30.1982 42.9865 30.0703 42.9784 29.8147 42.962" fill="white"/>
<path d="M31.3453 43.4815C31.8321 43.5195 32.0741 43.5413 32.5609 43.5875C32.5038 44.1994 32.4739 44.5067 32.4168 45.1186C31.7097 45.0506 31.3534 45.0207 30.6464 44.9717C30.6627 44.746 30.6709 44.6345 30.6872 44.4088C31.1685 44.4441 31.4078 44.4632 31.8892 44.504C31.9028 44.3408 31.9109 44.2592 31.9245 44.0961C31.4405 44.0553 31.2012 44.0335 30.7171 44.0009C30.7497 43.5386 30.766 43.3074 30.8014 42.8451C30.7035 42.6874 30.6545 42.6058 30.5566 42.4481C31.397 42.5052 31.8158 42.5405 32.6533 42.6194C32.6316 42.8424 32.6207 42.9539 32.6017 43.1769C32.1122 43.1306 31.8674 43.1089 31.3806 43.0708C31.367 43.234 31.3616 43.3183 31.348 43.4815" fill="white"/>
<path d="M24.9976 47.8516C24.2225 47.868 19.7871 45.9099 19.7871 45.9099C21.8158 47.7728 24.9976 48.7953 24.9976 48.7953C24.9976 48.7953 28.1766 47.7755 30.2081 45.9099C30.2081 45.9099 25.7726 47.868 24.9976 47.8516Z" fill="white"/>
<path d="M24.998 48.2677V48.798C24.998 48.798 28.1771 47.7782 30.2085 45.9127C30.2085 45.9127 25.7731 48.284 24.998 48.2677Z" fill="white"/>
<path d="M24.9976 48.7953V48.265C24.2225 48.2813 19.7871 45.9099 19.7871 45.9099C21.8158 47.7728 24.9976 48.7953 24.9976 48.7953Z" fill="white"/>
</g>
<defs>
<clipPath id="clip0_2923_36117">
<rect width="44.0036" height="50" fill="white" transform="translate(2.99805)"/>
</clipPath>
</defs>
</svg>
