<svg width="50" height="50" viewBox="0 0 50 50" fill="none" xmlns="http://www.w3.org/2000/svg">
<g clip-path="url(#clip0_3139_33557)">
<path d="M44.5752 24.1408C39.8424 21.8979 34.1865 23.9172 31.9453 28.6517C31.6192 29.3427 31.3838 30.0539 31.2341 30.7701L36.737 33.3778C36.6025 32.6195 36.6916 31.8159 37.0464 31.0677C37.9543 29.151 40.2442 28.3339 42.1592 29.2418C44.0759 30.1497 44.8947 32.4396 43.9851 34.3563C43.0839 36.2595 40.8175 37.0767 38.9092 36.1973L28.7458 31.3821V31.3788L28.7256 31.3687L33.7292 20.8034C35.5853 16.1849 33.5459 10.8636 28.9896 8.70483C24.2568 6.46198 18.6009 8.48121 16.3597 13.2141C14.1169 17.9469 16.1361 23.6011 20.869 25.8439C21.56 26.1718 22.2712 26.4055 22.9874 26.5568L25.5951 21.0522C24.8368 21.1867 24.0332 21.0976 23.285 20.7429C21.3683 19.835 20.5512 17.5451 21.4591 15.6301C22.367 13.7134 24.6569 12.8963 26.5736 13.8042C28.4768 14.7054 29.2939 16.9717 28.4146 18.88L23.6397 28.9594L13.014 23.9256C8.39545 22.0677 3.07415 24.1088 0.913688 28.6651C-1.32916 33.398 0.690076 39.0539 5.42292 41.295C10.1558 43.5379 15.8116 41.5186 18.0545 36.7841C18.3823 36.0931 18.616 35.3819 18.7657 34.6657L13.2611 32.058C13.3956 32.8163 13.3065 33.6199 12.9518 34.3681C12.0439 36.2848 9.75393 37.1019 7.83894 36.194C5.92226 35.2861 5.10515 32.9962 6.01305 31.0795C6.91423 29.1763 9.18061 28.3591 11.0889 29.2385L21.2304 34.0436V34.047L26.3147 36.4563L36.9842 41.5085C41.6027 43.3664 46.924 41.3253 49.0844 36.769C51.3273 32.0361 49.308 26.3819 44.5752 24.1391V24.1408Z" fill="white"/>
</g>
<defs>
<clipPath id="clip0_3139_33557">
<rect width="50" height="34.4228" fill="white" transform="translate(0 7.78857)"/>
</clipPath>
</defs>
</svg>
