<svg width="50" height="50" viewBox="0 0 50 50" fill="none" xmlns="http://www.w3.org/2000/svg">
<g clip-path="url(#clip0_2923_36002)">
<path d="M23.4852 9.42859C21.1995 9.42859 19.0566 9.57145 16.9138 9.7143C11.1995 10.1429 5.62807 11.1429 0.0566406 12.5714L4.91378 18.1429C8.62807 17.2857 12.3424 16.7143 16.0566 16.4286C14.3424 23.2857 10.4852 29.2857 4.91378 33.4286V41.2857C14.3424 36 20.9138 26.7143 22.9138 16C23.3424 13.8572 23.4852 11.5714 23.4852 9.42859Z" fill="white"/>
<path d="M49.4852 12.5714C43.9138 11.1429 38.3424 10.1429 32.6281 9.7143C30.4852 9.57145 28.1995 9.42859 26.0566 9.42859C26.0566 11.7143 26.1995 13.8572 26.6281 16C28.6281 26.7143 35.1995 35.8572 44.6281 41.2857V33.4286C39.0566 29.2857 35.1995 23.2857 33.4852 16.4286C37.1995 16.7143 40.9138 17.4286 44.6281 18.1429L49.4852 12.5714Z" fill="white"/>
<path d="M21.7715 41.4286L27.7715 34.5714V27.2857H21.7715V41.4286Z" fill="white"/>
</g>
<defs>
<clipPath id="clip0_2923_36002">
<rect width="50" height="32.8573" fill="white" transform="translate(0 8.57129)"/>
</clipPath>
</defs>
</svg>
