<svg width="50" height="50" viewBox="0 0 50 50" fill="none" xmlns="http://www.w3.org/2000/svg">
<g clip-path="url(#clip0_2923_35883)">
<path d="M46.5723 10.4633C45.8069 9.98674 45.1349 9.34916 44.7817 8.81489C44.7151 8.71381 44.8339 8.59385 44.9361 8.65605C45.5548 9.03371 46.5934 9.65462 47.3187 9.95675C47.3642 9.97563 47.4142 9.94008 47.4098 9.8901C47.3831 9.59242 47.3431 9.35916 47.2987 9.22143C47.0821 8.55053 42.8068 5.66812 39.0147 5.76254C36.7776 5.81807 34.3384 4.6229 32.5556 4.18527C32.0991 4.07308 31.3405 3.92313 30.6951 3.91646C27.8538 3.91646 26.5087 4.54182 25.1391 4.87616C21.8913 5.67034 18.8145 5.77476 11.9278 3.51215C11.8034 3.47105 11.6601 3.53547 11.6113 3.65655C10.5072 6.38678 12.9797 10.4199 17.0973 9.54799C17.1573 9.53577 17.1928 9.61241 17.1461 9.65018C16.4341 10.2222 14.9324 10.4033 13.9827 10.12C13.7972 10.0645 13.6062 10.0445 13.4185 10.0589C13.4185 10.0589 13.4185 10.0567 13.4185 10.0556C3.12176 14.0288 1.64334 24.4643 2.70411 27.0479C3.35835 24.7209 4.36247 23.4691 5.28884 22.5494C1.51672 29.9259 3.64492 37.3024 7.16823 40.3092C6.61175 38.5864 6.60397 36.7859 6.96275 35.2642C8.0524 41.9698 11.9789 46.485 19.3688 47.2314C17.7882 46.5306 16.673 44.9111 16.2986 43.8481C19.4365 47.2514 29.0334 48.2889 31.8048 45.2354C30.6429 45.1799 29.2089 44.5967 28.4192 44.1124C26.1977 42.7529 24.3361 40.2037 24.2505 36.6848C24.1983 34.5133 25.1147 32.0497 27.314 30.0536C22.7799 30.9111 15.9743 27.129 16.4764 19.8358C16.9751 28.2176 24.6226 30.3546 29.3967 28.8229C30.4474 28.3642 31.6071 28.1076 32.8267 28.1076C34.8571 28.1076 36.7243 28.814 38.1916 29.9948C38.2294 30.0259 38.2671 30.0559 38.3038 30.0892C38.9991 30.6368 39.8766 30.9656 40.8297 30.9656C41.6038 30.9656 42.3281 30.749 42.9423 30.3757C44.123 29.6593 44.9106 28.3642 44.9095 26.8846C44.9095 26.5059 44.8684 26.1738 44.7939 25.8727C44.7939 25.8727 44.7939 25.8727 44.795 25.8727C44.7928 25.8639 44.7906 25.8561 44.7884 25.8472C44.7862 25.8405 44.785 25.8339 44.7828 25.8272C44.6484 25.3107 44.4163 24.8842 44.1186 24.4699C44.1175 24.4665 44.1153 24.4632 44.1142 24.4599C43.8565 23.1703 43.6199 22.4183 42.9156 21.4053C42.8646 21.332 42.7501 21.3664 42.7468 21.4553C42.7324 21.8962 42.6879 22.2872 42.618 22.6349C42.5669 22.9392 42.4702 23.468 42.3569 23.8867C42.1814 24.5354 42.8357 24.5343 43.1345 24.5754C43.06 24.7931 42.177 24.7442 42.1337 24.5909C42.1337 24.5821 42.1337 24.5732 42.1326 24.5643C42.1359 24.4821 42.1226 24.3388 42.1015 24.1744C42.0015 23.2047 41.6994 22.074 40.8052 21.3386C40.7208 21.2698 40.5975 21.3664 40.582 21.513C40.4575 22.7115 40.1721 24.0367 39.82 24.792C39.8133 24.8064 39.8111 24.822 39.8111 24.8375C38.6537 24.6298 37.1864 24.0489 35.6258 23.8745C32.9233 23.5724 31.5537 23.2647 31.416 21.7352C31.4105 21.6785 31.4893 21.6563 31.516 21.7063C31.9136 22.4627 32.2757 23.1603 34.5061 23.5168C34.5861 23.5291 34.6239 23.4224 34.5539 23.3824C32.8567 22.4083 32.9277 21.6963 33.0222 20.4145C33.0277 20.3456 33.041 20.2779 33.0566 20.2123C33.4542 18.163 35.0926 16.7646 36.2789 16.057C36.3466 16.0159 36.3111 15.9104 36.2322 15.9204C34.5828 16.1225 32.9788 16.8368 31.817 18.6229C31.9381 18.2674 32.1047 17.8975 32.3402 17.5354C34.3162 14.4964 38.0716 15.1162 40.7952 15.5983C40.9441 16.3936 40.9074 17.5632 40.743 18.6073C40.7208 18.7484 40.8396 18.8672 40.9574 18.8195C42.4458 18.2296 43.1034 16.9301 43.4444 15.9482C43.7376 15.9981 44.3074 16.0859 44.8828 16.0603C44.8939 16.0603 44.895 16.0737 44.8839 16.0748C44.3996 16.1392 43.9364 16.1481 43.8898 16.1403C43.8665 16.137 43.8553 16.1725 43.862 16.1992C43.9997 16.7335 43.982 17.6243 43.862 18.4096C43.8476 18.5062 43.9264 18.5862 44.0042 18.554C45.4748 17.9553 45.7214 16.2836 45.8736 15.8526C45.9236 15.8293 45.9713 15.8038 46.018 15.776C46.0258 15.7804 46.0335 15.7838 46.0402 15.7871C46.048 15.7715 46.0569 15.7582 46.0646 15.7482C46.0646 15.7482 46.0646 15.7482 46.0657 15.7482C46.1491 15.6427 46.5223 15.1173 46.6833 14.773C46.6878 14.7641 46.6911 14.7552 46.6944 14.7463C46.7033 14.7297 46.71 14.7119 46.7178 14.6941C46.7511 14.6219 46.7822 14.5497 46.8088 14.4742C47.1165 13.7089 47.302 12.9269 47.3953 12.1771C47.4808 11.494 47.1521 10.8254 46.5667 10.4621L46.5723 10.4633ZM30.2242 7.452C30.0553 7.00214 30.0409 6.55228 30.313 6.18796C30.4863 5.95692 30.1198 5.68367 29.4189 5.94026C29.5899 5.79586 29.8143 5.717 30.0387 5.68701C30.2642 5.65479 30.493 5.66701 30.7151 5.70145C31.1583 5.77698 31.5904 5.94581 31.9458 6.21684C32.2535 6.40566 32.5634 6.66114 32.9355 6.89106C32.9066 7.19985 32.8133 7.52197 32.6123 7.8652C31.8614 7.62194 31.155 7.35092 30.2242 7.45311V7.452ZM32.8911 7.94961C33.1643 7.77078 33.3965 7.52642 33.5809 7.18097C33.6064 7.18986 33.6308 7.19874 33.6564 7.20652C33.7964 7.25095 33.9363 7.29205 34.0785 7.3187C34.2207 7.34758 34.3639 7.36091 34.5095 7.36313C34.655 7.36536 34.8027 7.35203 34.9538 7.34425C34.6372 7.54308 33.8508 8.20064 32.8911 7.94961Z" fill="white"/>
</g>
<defs>
<clipPath id="clip0_2923_35883">
<rect width="45" height="43.7315" fill="white" transform="translate(2.41406 3.5)"/>
</clipPath>
</defs>
</svg>
