<svg width="50" height="50" viewBox="0 0 50 50" fill="none" xmlns="http://www.w3.org/2000/svg">
<g clip-path="url(#clip0_2923_36103)">
<path d="M38.1996 10.3911H11.7988V15.6715H38.1996V10.3911Z" fill="white"/>
<path d="M25.9692 2.54982L24.9984 0L24.0277 2.54982L21.3027 2.68485L23.4279 4.39608L22.7143 7.02951L24.9984 5.53722L27.2823 7.02951L26.5689 4.39608L28.6938 2.68485L25.9692 2.54982Z" fill="#ED1A3A"/>
<path d="M32.9192 18.3119V31.5175C32.9192 33.4978 32.1327 35.3971 30.7322 36.7976L30.2811 37.2487V18.3138H11.7988L11.8007 33.7082C11.8007 35.6883 12.5876 37.5872 13.9877 38.9874L17.0777 42.0773V31.5153H22.36V26.2348H17.0796V23.5945H25.0003V50.0003L36.0129 38.988C37.4134 37.5876 38.1999 35.6886 38.1999 33.7079V18.3122H32.9192V18.3119Z" fill="white"/>
</g>
<defs>
<clipPath id="clip0_2923_36103">
<rect width="26.4011" height="50" fill="white" transform="translate(11.7988)"/>
</clipPath>
</defs>
</svg>
