<svg width="50" height="50" viewBox="0 0 50 50" fill="none" xmlns="http://www.w3.org/2000/svg">
<g clip-path="url(#clip0_2923_36046)">
<path fill-rule="evenodd" clip-rule="evenodd" d="M23.4826 12.4204C24.6241 12.9376 25.8716 13.5267 26.9668 14.1767C28.1344 14.8549 29.2953 15.2397 30.2705 15.893L35.612 12.8242C30.2536 8.59073 24.2087 5.72305 19.7051 4.47022C18.9876 4.27079 17.9177 4.10571 17.1816 3.96338L23.483 10.261V12.4204H23.4826Z" fill="white"/>
<path fill-rule="evenodd" clip-rule="evenodd" d="M6.00904 24.3971C8.65579 29.6737 12.0932 33.8777 15.5786 37.129V30.2707C3.8319 14.3253 7.94497 9.35368 15.5786 10.1262V3.66921C6.17992 2.53347 -2.78971 6.85672 6.00904 24.3971Z" fill="white"/>
<path fill-rule="evenodd" clip-rule="evenodd" d="M39.9236 16.627L38.9968 20.0011L36.4788 21.4463C42.1769 27.9057 38.4246 32.2385 35.5098 32.8769C31.4968 33.6717 27.7309 30.3096 25.5389 27.7671L23.4838 28.9575L23.4805 36.2009C35.2764 49.3035 46.3106 42.926 47.2511 35.0118C48.2064 28.0584 44.8836 21.716 39.924 16.627H39.9236Z" fill="white"/>
<path fill-rule="evenodd" clip-rule="evenodd" d="M23.4805 43.1341C26.8558 45.2384 29.2609 46.1772 29.311 46.1325C27.1814 43.9132 25.2422 41.8155 23.4805 39.8345V43.1337V43.1341Z" fill="white"/>
<path fill-rule="evenodd" clip-rule="evenodd" d="M22.8423 28.5839C30.6319 24.0835 38.4728 19.5546 38.4728 19.5546L40.8945 10.511C40.8945 10.511 31.8913 15.7424 22.8414 20.9709L22.8398 10.5321L16.2285 3.91168V39.3372L22.8448 46.0159L22.8423 28.5839Z" fill="white"/>
</g>
<defs>
<clipPath id="clip0_2923_36046">
<rect width="45" height="42.6342" fill="white" transform="translate(2.41406 3.5)"/>
</clipPath>
</defs>
</svg>
