<svg width="50" height="50" viewBox="0 0 50 50" fill="none" xmlns="http://www.w3.org/2000/svg">
<g clip-path="url(#clip0_2923_36162)">
<path d="M40.9742 0H9.02344V50H40.9742V0Z" fill="black"/>
<path d="M40.0579 49.0829H9.94141V0.917145H40.0579V49.0829ZM10.3266 48.6954H39.6704V1.30464H10.3289V48.6954H10.3266Z" fill="white"/>
<path d="M17.242 14.3669H23.13V14.798L22.1922 15.1603L15.3595 17.8085V21.8072L24.9964 18.0722L34.6332 21.8072V17.8085L27.8005 15.1603L26.8627 14.798V14.3669H34.663V9.05212C34.663 9.05212 33.8582 10.2811 32.8631 10.3682H26.865V9.05212H23.13V10.3682H17.1319C16.1368 10.2811 15.332 9.05212 15.332 9.05212V14.3669H17.2443H17.242Z" fill="white"/>
<path d="M32.8654 36.9468H17.1319C16.1368 36.8597 15.332 35.6307 15.332 35.6307V40.9455H34.6676V35.6307C34.6676 35.6307 33.8628 36.8597 32.8677 36.9468H32.8654Z" fill="white"/>
<path d="M24.9649 35.8027L27.7691 34.7159L34.6018 32.0677V24.1665L27.7691 21.5183L24.9649 20.4315L22.1608 21.5183L15.3281 24.1665V32.0677L22.1608 34.7159L24.9649 35.8027ZM17.8594 29.0503V27.1839L18.6115 26.8927L22.3465 25.4436L24.9649 24.4279L27.5834 25.4436L31.3184 26.8927L32.0705 27.1839V29.0503L31.3184 29.3415L27.5834 30.7905L24.9649 31.8063L22.3465 30.7905L18.6115 29.3415L17.8594 29.0503Z" fill="white"/>
</g>
<defs>
<clipPath id="clip0_2923_36162">
<rect width="31.9508" height="50" fill="white" transform="translate(9.02344)"/>
</clipPath>
</defs>
</svg>
