<svg width="50" height="50" viewBox="0 0 50 50" fill="none" xmlns="http://www.w3.org/2000/svg">
<g clip-path="url(#clip0_2923_35923)">
<path d="M16.4774 11.4053V17.7064V18.147L13.6375 19.9629V19.9644H16.4774V42.7776L10.7977 39.1458V21.7795L9.09377 22.8686V38.056L3.41406 34.4235V26.5012V19.7594V5.33984H9.09377V16.1269L10.7977 15.0371V5.33984H16.4774V11.4053Z" fill="white"/>
<path d="M35.789 2.49994L32.9492 5.33972L35.789 8.1795L38.6288 5.33972L35.789 2.49994Z" fill="white"/>
<path d="M46.0126 27.6817V34.4235L40.3328 38.056L39.1398 38.8194L38.6289 39.1458L32.9492 42.7776V36.0359V9.59961H38.6289V32.4041L40.3328 31.3143V9.59961H46.0126V27.6817Z" fill="white"/>
<path d="M43.1719 8.17971L40.332 5.33986L43.1719 2.5L46.0117 5.33986L43.1719 8.17971Z" fill="white"/>
<path d="M31.245 43.8675V19.9644H28.4051V19.9629L31.245 18.147V5.33984H18.1816V43.8675L23.8614 47.5V22.8686L25.5653 21.7788V47.4993L31.245 43.8667V43.8675ZM25.5653 15.0371L23.8614 16.1269V11.0196H25.5653V15.0371Z" fill="white"/>
</g>
<defs>
<clipPath id="clip0_2923_35923">
<rect width="42.5978" height="45" fill="white" transform="translate(3.41406 2.5)"/>
</clipPath>
</defs>
</svg>
