<svg width="50" height="50" viewBox="0 0 50 50" fill="none" xmlns="http://www.w3.org/2000/svg">
<g clip-path="url(#clip0_2923_35906)">
<path d="M22.8192 23.5291L19.5403 34.973H14.7541L17.7016 24.7268C17.7417 24.575 17.651 24.4195 17.4998 24.38C17.4764 24.3738 17.453 24.3708 17.4289 24.3708H15.1718V24.3769L12.1293 34.9736H7.50231L10.4449 24.7274C10.4844 24.575 10.3924 24.4195 10.24 24.38C10.2172 24.3738 10.1937 24.3714 10.1703 24.3708H7.81946L4.78682 34.9736H0L2.8716 24.9335C3.01536 24.4318 3.0203 23.9006 2.88579 23.3965L2.2262 20.9216H19.8822C20.1271 20.9216 20.3653 21.0025 20.559 21.1524L22.5409 22.6863C22.7963 22.885 22.9062 23.2182 22.8192 23.5298V23.5291Z" fill="white"/>
<path d="M32.5804 24.7243L30.77 31.0419C30.7034 31.2733 30.4918 31.4331 30.2511 31.4325H28.0274L30.0574 24.3639H32.3144C32.4705 24.367 32.5946 24.4966 32.5915 24.6527C32.5915 24.6768 32.5871 24.7008 32.581 24.7243H32.5804ZM34.6511 20.9228H31.0452L32.7414 15.0149H28.1169L22.3848 34.9729H32.9376C33.7212 34.9729 34.4104 34.454 34.627 33.7006L37.5529 23.5075C37.6418 23.1972 37.5332 22.8646 37.2783 22.6665L35.3323 21.1554C35.1373 21.0037 34.8973 20.921 34.6505 20.9216V20.9228H34.6511Z" fill="white"/>
<path d="M49.9997 20.9216L47.1102 24.3671H45.2333C44.913 24.3677 44.6317 24.5799 44.5428 24.8872L41.6441 34.9853H37.0195L40.2996 23.5557C40.4014 23.199 40.6316 22.8924 40.9444 22.6943L43.4667 21.1012C43.6444 20.9889 43.8505 20.9297 44.0609 20.9303H50.001L49.9997 20.9222V20.9216Z" fill="white"/>
<path d="M25.2723 15.0149L24.3363 18.2721C24.2308 18.6436 23.8908 18.8996 23.5046 18.8996H21.5418C21.3123 18.899 21.0902 18.8225 20.9088 18.6824L19.7031 17.7477L20.4855 15.0149H25.2717H25.2723Z" fill="white"/>
</g>
<defs>
<clipPath id="clip0_2923_35906">
<rect width="50" height="19.9704" fill="white" transform="translate(0 15.0149)"/>
</clipPath>
</defs>
</svg>
