<svg width="50" height="50" viewBox="0 0 50 50" fill="none" xmlns="http://www.w3.org/2000/svg">
<g clip-path="url(#clip0_2923_36087)">
<path d="M0 23.0983V44.6225L7.87735 41.8237V20.3023L0 23.0983Z" fill="white"/>
<path d="M50.0002 5.37769L42.2266 8.13817V29.6623L50.0002 26.9018V5.37769Z" fill="white"/>
<path d="M22.6837 15.0462L14.8965 17.8094V25.4683L22.6837 35.3389V15.0462Z" fill="white"/>
<path d="M40.8556 8.61053L33.0684 11.3737V19.0327L40.8556 28.9032V8.61053Z" fill="white"/>
<path d="M9.24805 33.2829L14.2175 39.5739L22.0484 36.7943L9.24805 20.6491V33.2829Z" fill="white"/>
<path d="M24.0332 14.5602V22.6123L27.1077 26.4513L24.0332 27.5489V33.2201L30.6054 30.8883L32.3693 33.1163L40.2521 30.3313L26.9493 13.5281L24.0332 14.5602Z" fill="white"/>
</g>
<defs>
<clipPath id="clip0_2923_36087">
<rect width="50" height="39.2448" fill="white" transform="translate(0 5.37769)"/>
</clipPath>
</defs>
</svg>
