<svg width="50" height="50" viewBox="0 0 50 50" fill="none" xmlns="http://www.w3.org/2000/svg">
<g clip-path="url(#clip0_2923_20115)">
<path fill-rule="evenodd" clip-rule="evenodd" d="M25.2002 6.59031C24.918 6.60103 24.4466 6.63317 24.1538 6.65817C23.4788 6.72246 22.7966 6.72246 22.1216 6.66174L21.8502 6.61888L21.7895 6.69389C21.7359 6.76174 21.7109 6.76888 21.5895 6.75817C21.418 6.74031 21.2466 6.74746 21.0788 6.77603C20.9573 6.79389 20.8359 6.82246 20.7216 6.86531C20.1752 7.04031 19.6073 7.14388 19.0323 7.1796C18.4609 7.2046 17.8966 7.32246 17.3609 7.52246C17.0252 7.63674 16.6859 7.73317 16.3395 7.8046C15.0573 8.07603 13.8073 8.49031 12.618 9.04031C11.993 9.31174 11.2395 9.60103 10.7716 9.7546C10.193 9.99389 9.64304 10.2903 9.12518 10.6439C8.9109 10.7867 8.62161 10.9689 8.48233 11.0439C8.33233 11.126 8.19304 11.2225 8.06804 11.3332C7.95018 11.4403 7.82518 11.5367 7.69661 11.626C7.38947 11.8332 7.10018 12.0617 6.82518 12.3082C6.64304 12.4653 6.45018 12.6117 6.25018 12.7439C6.09304 12.8475 5.92876 12.9546 5.88233 12.9867C5.84661 13.0153 5.80376 13.026 5.7609 13.026C5.65018 12.9832 5.4109 13.151 5.17161 13.4367C4.77876 13.9046 4.68947 13.9725 4.4609 13.9725H4.31804V14.2439L4.06447 14.4475C3.52518 14.9296 3.0859 15.5153 2.77518 16.1725L2.68233 16.3475L2.92518 16.7439C3.03233 16.9117 3.12876 17.0903 3.21804 17.2689C3.24661 17.3582 3.3109 17.4296 3.39304 17.4689C3.52518 17.5546 3.65018 17.651 3.76804 17.751C3.89661 17.8689 4.04304 17.9653 4.20376 18.0332C4.3109 18.0653 4.40376 18.1296 4.47161 18.2189C4.54304 18.3189 4.66447 18.3725 4.66447 18.3046C4.66447 18.2903 4.71804 18.2475 4.77876 18.2117C4.86447 18.1546 4.93947 18.0832 5.00018 18.0046C5.08947 17.8867 5.12518 17.8617 5.2109 17.8546C5.29661 17.8475 5.34304 17.8153 5.54661 17.5832C5.83947 17.2475 6.16804 16.9439 6.52518 16.676C6.7359 16.5046 7.04304 16.2475 7.20376 16.101C7.82161 15.5439 9.74661 14.7725 11.3502 14.4439C12.0538 14.2975 14.4502 13.9153 14.6573 13.9153C14.8109 13.9153 13.5359 16.1439 12.8788 17.0225C12.8216 17.126 12.7823 17.2332 12.7538 17.3475C12.6788 17.6225 12.6216 17.726 12.518 17.7725C12.4716 17.7903 12.443 17.8332 12.4466 17.8832C12.4466 17.9189 12.4395 17.9546 12.4145 17.9796C12.3966 17.9903 12.3895 18.051 12.393 18.1153C12.4038 18.2225 12.3859 18.2617 12.2002 18.5439C11.768 19.2153 11.3966 19.926 11.0966 20.6689C10.7823 21.451 10.3895 22.201 9.91804 22.901C9.74304 23.1403 9.61447 23.4082 9.53233 23.6939C9.30375 24.3403 9.02876 24.9689 8.7109 25.576C8.42161 26.126 8.16804 26.6939 7.94661 27.276C7.88947 27.4403 7.81804 27.601 7.7359 27.751C7.7109 27.7725 7.69661 27.8046 7.68947 27.8367C7.68947 27.8582 7.65733 27.8975 7.62161 27.9225C7.56447 27.9725 7.52518 28.0403 7.51804 28.1153C7.31804 28.8082 7.02876 29.4725 6.6609 30.0903C6.31447 30.6475 6.05018 31.251 5.87876 31.8832C5.78947 32.2153 5.78947 32.2153 5.70733 32.2082C5.6109 32.201 5.51447 32.4117 5.21804 33.2939C5.12161 33.6653 4.93947 34.0117 4.68233 34.2975C4.52876 34.4617 4.51804 34.4832 4.52518 34.601C4.53233 34.6867 4.50733 34.776 4.45019 34.8439C4.32519 35.0225 4.33233 35.1367 4.46804 35.1653C4.64661 35.201 4.70733 35.2617 4.78947 35.4725C4.8359 35.5903 4.90019 35.7046 4.97876 35.8082C5.10018 35.9546 5.13233 36.1582 5.06447 36.3332C5.03947 36.401 5.04304 36.4046 5.12161 36.4046C5.20018 36.4046 5.2109 36.4189 5.2359 36.5153C5.28947 36.7117 5.41447 36.6796 5.52161 36.4439C5.57161 36.3296 5.5859 36.3189 5.6359 36.3439C5.68947 36.3653 5.74661 36.376 5.80018 36.376C5.9859 36.376 6.03947 36.401 6.03947 36.4867C6.04661 36.5546 6.0609 36.626 6.08233 36.6903L6.12518 36.8189H6.36447C6.57161 36.801 6.77876 36.8617 6.94304 36.9903L7.07518 37.0903L7.30018 36.9725C7.56804 36.8332 7.55019 36.8367 7.66447 36.9296L7.75376 37.0046L7.81804 36.9439C7.8859 36.8796 8.06447 36.8153 8.06447 36.8546C8.06447 36.8689 8.04304 36.8867 8.01804 36.8975C7.99304 36.9082 7.97876 36.9225 7.9859 36.9296C8.21804 36.901 8.43947 36.8225 8.6359 36.6975C8.6359 36.6796 8.57518 36.6975 8.50018 36.7332C8.42161 36.7725 8.33947 36.801 8.25376 36.8189L8.14304 36.8367L8.15733 36.701C8.17876 36.5189 8.22876 36.4689 8.35376 36.5117C8.62161 36.6046 8.80376 36.526 9.05733 36.2046C9.16804 36.0367 9.31804 35.8975 9.49661 35.8046C9.55018 35.776 9.59661 35.7332 9.62518 35.6796C9.67161 35.6082 9.73233 35.5439 9.80018 35.4975C9.86804 35.451 9.92518 35.3939 9.97161 35.3296C10.0002 35.2832 10.0323 35.2439 10.043 35.2439C10.0859 35.2439 10.0645 35.3117 10.0073 35.376C9.95376 35.4225 9.95018 35.501 9.99304 35.5546C10.0073 35.5689 10.0216 35.5832 10.043 35.5903C10.2038 35.676 11.2966 34.5903 11.8823 33.7653C12.4073 33.026 13.0288 31.8582 13.0538 31.5617C13.0716 31.326 13.1895 31.1082 13.3752 30.9617C13.6823 30.676 13.7109 30.6296 14.1038 29.6332C14.1859 29.4189 14.2859 29.2117 14.4002 29.0117C14.4609 28.9296 14.5038 28.8367 14.5323 28.7367C14.618 28.5046 14.7573 28.2939 14.943 28.1296L15.1502 27.9117L15.2573 28.0546L15.3645 28.1975L15.5002 28.1796L15.6359 28.1617L15.7038 28.3117C15.7966 28.476 15.918 28.6225 16.0645 28.7439C16.593 29.2832 17.0895 29.851 17.5573 30.4439L18.2145 31.2367L18.0109 31.226C17.7823 31.2153 17.718 31.251 17.7502 31.3796C17.7752 31.4832 17.8859 31.5153 18.1573 31.4939C18.3288 31.4796 18.3966 31.4867 18.4109 31.5117C18.443 31.5617 18.1145 31.8475 17.6502 32.176C17.4609 32.2867 17.2966 32.4296 17.1645 32.6046C17.043 32.8367 16.818 33.001 16.5609 33.0367C16.5288 33.0367 16.5073 33.0725 16.4966 33.1653C16.4859 33.2367 16.468 33.2939 16.4538 33.2939C16.1395 33.476 15.843 33.6832 15.5645 33.9153C15.3002 34.1546 15.0073 34.3617 14.6895 34.526C14.5359 34.6046 14.393 34.7046 14.2645 34.8189C13.5645 35.4403 12.8002 35.9903 11.9895 36.4617C11.7859 36.5796 11.6002 36.726 11.443 36.8975C11.1538 37.1975 10.818 37.4475 10.443 37.6296C10.1788 37.7653 10.143 37.7939 10.1359 37.8653C10.1288 37.9367 10.0538 37.9975 9.52161 38.3475C9.18947 38.5689 8.76804 38.8546 8.5859 38.9832C8.42876 39.0975 8.26447 39.201 8.09661 39.2975C7.97876 39.3582 7.87161 39.4439 7.78233 39.5475C7.14661 40.1296 6.40733 40.5832 5.60018 40.8832L5.25376 41.0225L5.12519 41.2153C4.80733 41.6403 4.4109 42.0046 3.95733 42.2796C3.58233 42.5153 3.22876 42.7832 2.89304 43.0725C2.86447 43.101 2.82876 43.1189 2.78947 43.1189C2.75018 43.1189 2.71447 43.1367 2.68947 43.1617C2.67161 43.1832 2.64661 43.201 2.61804 43.2046C2.5359 43.2046 2.52161 43.4653 2.60376 43.5439C2.6609 43.601 2.6609 43.601 2.78947 43.5439C2.8609 43.5117 3.10376 43.4225 3.32518 43.3439C3.62161 43.2689 3.90018 43.1332 4.14304 42.9439C4.26804 42.8296 4.44661 42.7367 4.48947 42.7653C4.55376 42.8046 4.86804 42.6582 5.03233 42.5117C5.14304 42.3725 5.32161 42.3082 5.49661 42.3403C5.57876 42.3546 5.60733 42.351 5.59661 42.3296C5.5609 42.2725 5.7609 42.1082 5.95018 42.0403C6.05376 42.0046 6.25018 41.9189 6.39304 41.8546C6.72876 41.6939 6.90018 41.6903 7.07161 41.8367C7.11447 41.876 7.10733 41.8939 6.96804 42.0796C6.8859 42.1903 6.75376 42.3796 6.67518 42.501C6.5359 42.7189 6.53233 42.7189 6.4109 42.7189C6.19304 42.7189 5.94661 42.8832 5.94661 43.0296C5.94661 43.101 6.14661 43.1939 6.34661 43.2153C6.43233 43.2225 6.57876 43.2475 6.67161 43.2617C6.85733 43.2975 6.90376 43.2725 6.87518 43.151C6.8609 43.0975 6.87518 43.0867 6.93947 43.0867C6.98233 43.0867 7.02161 43.076 7.05376 43.051C7.08233 43.026 7.08947 43.0439 7.08947 43.1332C7.08947 43.2617 7.16804 43.3189 7.24661 43.2546C7.26804 43.2367 7.29304 43.2296 7.32161 43.2332C7.33947 43.2403 7.31447 43.2617 7.26447 43.2832C7.12518 43.3403 7.14304 43.426 7.32518 43.5653C7.65376 43.8153 7.87876 43.8296 8.1359 43.6189L8.22518 43.5439L8.37876 43.601C8.72518 43.7296 8.97161 43.6403 9.5859 43.1582C10.1323 42.7296 10.3966 42.601 10.7288 42.601C10.9216 42.601 10.9323 42.5975 11.0323 42.4939C11.1109 42.4082 11.2216 42.3546 11.3359 42.351C11.4288 42.3367 11.518 42.3153 11.6073 42.2867C11.7216 42.2439 11.5216 42.4367 11.2859 42.5939C11.1109 42.6939 10.9859 42.8582 10.9323 43.051L10.9145 43.1403H11.0609C11.268 43.1403 11.3716 43.0903 11.718 42.8189C12.2859 42.376 12.4359 42.3046 12.7216 42.3296C12.893 42.3439 12.9216 42.3403 12.968 42.2903C13.1788 42.1117 13.4323 41.9939 13.7073 41.9546C13.9216 41.9189 14.1252 41.8367 14.3073 41.7153C14.5895 41.5225 14.8859 41.3582 15.2002 41.226C15.368 41.1617 15.5216 41.0653 15.6502 40.9403C15.9788 40.6725 16.3538 40.4725 16.7609 40.3475C17.168 40.201 17.5466 39.9867 17.8788 39.7117C18.4252 39.3082 18.6323 39.2225 18.8359 39.3117L18.9502 39.3617L18.793 39.476C18.7002 39.5439 18.6038 39.6046 18.5002 39.6546C18.3752 39.7117 18.1645 39.9046 18.1645 39.9653C18.1645 40.0582 18.343 40.0225 18.7002 39.8546C19.4038 39.5903 20.0359 39.1617 20.543 38.6082C20.9823 38.1903 21.4823 37.8403 22.0288 37.576C22.0859 37.5475 22.143 37.5296 22.2038 37.5189C22.3109 37.4867 22.4109 37.4332 22.5002 37.3617C22.6323 37.2582 22.7859 37.1867 22.9538 37.1582C23.0038 37.1403 23.0466 37.1046 23.0716 37.0582C23.2145 36.8082 24.0538 36.5475 24.6145 36.576L24.8288 36.5867L25.1323 36.8046C25.8538 37.3046 26.6288 37.7225 27.443 38.0403C28.843 38.6332 29.5145 38.8546 32.218 39.6117C32.9145 39.8082 33.5038 39.976 33.5288 39.9832C33.5609 39.9939 33.5716 39.9832 33.5716 39.9475C33.5716 39.8117 33.693 39.7939 33.9859 39.8867C34.168 39.9439 34.1859 39.9439 34.2788 39.901C34.3859 39.851 34.4073 39.7975 34.3216 39.7975C34.1502 39.7475 33.993 39.651 33.868 39.5189L33.7002 39.3689L33.8002 39.3903C33.8752 39.4082 33.9466 39.4332 34.0145 39.4653C34.168 39.5403 34.3395 39.5546 34.5038 39.5153C34.5395 39.4832 34.5609 39.4903 34.618 39.5439C34.6752 39.5975 34.7323 39.6117 34.968 39.6296C35.318 39.6653 35.6609 39.7653 35.9752 39.9225C36.3216 40.0653 36.9002 40.0689 36.7788 39.926C36.7609 39.901 36.7323 39.8867 36.7038 39.8832C36.6859 39.8832 36.668 39.8725 36.6645 39.851C36.6645 39.8332 36.6823 39.8296 36.7145 39.8403C37.0859 39.9725 37.493 39.9725 37.868 39.8403C38.243 39.7403 38.6252 39.6867 39.0145 39.6832H39.2609L39.3109 39.5689C39.3538 39.4725 39.393 39.4403 39.543 39.3689C39.6788 39.3046 39.7359 39.2617 39.768 39.1867C39.7966 39.1189 39.8609 39.0689 39.9359 39.0617C40.6752 38.8725 40.7895 38.826 40.9859 38.626C41.1252 38.4867 41.3395 38.4439 41.5216 38.5225C41.6145 38.5475 41.7323 38.3832 41.7323 38.2225C41.7323 38.0867 41.7645 38.051 41.893 38.0367C42.143 38.0082 42.1716 37.8332 41.9788 37.4939C41.9216 37.3975 41.8788 37.2939 41.8466 37.1832C41.8216 37.0832 41.7966 37.0475 41.7538 37.0367C41.7216 37.0296 41.5823 37.0046 41.4502 36.976C41.043 36.8939 40.6502 36.7617 40.2752 36.5796C39.7859 36.3403 39.2573 36.1867 38.7145 36.126C38.6002 36.126 38.4895 36.0725 38.4145 35.9867C38.2609 35.8403 38.1716 35.7939 38.1002 35.8153C38.0645 35.826 38.0002 35.7975 37.9073 35.726C37.6216 35.5082 37.4109 35.4403 36.7109 35.3332C36.518 35.301 36.3288 35.2582 36.1395 35.2046C36.0502 35.1617 35.9502 35.1439 35.8502 35.151C35.7359 35.151 35.6252 35.1296 35.518 35.0832C35.3538 35.0296 34.968 34.9296 34.6609 34.8617C34.2395 34.7832 33.8323 34.651 33.443 34.4725C33.2645 34.3939 33.0823 34.3332 32.893 34.2939C31.5966 34.0082 30.7002 33.5939 30.0466 32.9796L29.7895 32.7367L29.9323 32.6653C30.1109 32.551 30.2752 32.4189 30.4288 32.2725C31.2323 31.551 32.0823 30.8796 32.968 30.2617C33.3823 29.9617 34.0395 29.4867 34.4252 29.201C34.6609 29.0189 34.9073 28.8475 35.1645 28.6939C35.1859 28.6975 35.2073 28.6903 35.218 28.6725C35.2323 28.651 35.2466 28.651 35.2752 28.6725C35.3395 28.726 35.9073 28.2975 36.543 27.7189C36.8716 27.4082 37.2288 27.1332 37.6109 26.8939C37.7145 26.8332 37.8109 26.7617 37.893 26.676C38.318 26.1903 38.8109 25.7653 39.3538 25.4153C39.793 25.1367 40.218 24.8332 40.618 24.501C40.9109 24.2617 41.0002 24.201 41.0288 24.226C41.0823 24.2689 41.2109 24.1403 41.2109 24.0439C41.2109 23.9903 41.243 23.9582 41.3895 23.8867C41.5323 23.8082 41.6645 23.7117 41.7859 23.6046C41.8966 23.5046 42.018 23.4153 42.143 23.3367C42.3109 23.2189 42.468 23.0867 42.6109 22.9403C42.793 22.7653 43.193 22.3939 43.5002 22.1225C45.2216 20.5867 45.9395 19.6653 46.2395 18.626C46.2716 18.4832 46.3502 18.351 46.468 18.2582C46.6859 18.0439 46.743 17.8975 46.8538 17.2832C46.8752 16.9832 46.9573 16.6903 47.0895 16.4189C47.1395 16.326 47.1823 16.2403 47.1895 16.226C47.1966 16.2117 47.1645 16.2046 47.118 16.2046C46.968 16.2046 46.9538 16.1725 46.9359 15.8689C46.918 15.5689 46.9073 15.5367 46.6502 15.0867C46.568 14.9582 46.5323 14.8046 46.543 14.6546C46.5288 14.3653 46.5466 14.401 46.2609 14.1046C46.1538 13.9903 46.0538 13.9689 45.993 14.0403C45.9609 14.0796 45.9466 14.076 45.8823 14.0153C45.818 13.9653 45.7502 13.926 45.6752 13.8975C45.5359 13.8475 45.3752 13.7117 45.4538 13.7117C45.5073 13.701 45.5573 13.6832 45.6038 13.6582C45.6645 13.626 45.7288 13.601 45.7966 13.5832C45.9145 13.5582 45.8966 13.4725 45.7716 13.4617C45.6895 13.4546 45.6823 13.4475 45.7145 13.3975C45.7823 13.2903 45.6359 13.2582 44.9145 13.2367L44.3645 13.2189L44.3502 13.1403C44.3359 13.0653 44.3288 13.0617 44.2395 13.0903C44.0502 13.1153 43.8609 13.1296 43.6716 13.126C43.4823 13.126 43.293 13.1332 43.1073 13.1546C43.0216 13.176 43.0145 13.1725 43.0145 13.1117V13.0439H42.6359C42.368 13.0796 42.0966 13.0189 41.8716 12.8725L41.7788 12.8046L41.6966 12.8725C41.6359 12.9189 41.568 12.951 41.493 12.9725C41.2109 13.0439 41.0716 13.151 41.1538 13.2367C41.2109 13.2939 41.1859 13.3046 41.0359 13.2975C40.4716 13.4546 39.9395 13.7082 39.4645 14.0546C39.418 14.1403 39.3609 14.2189 39.293 14.2903C39.2288 14.3582 39.1716 14.4367 39.1252 14.5189C39.0502 14.6189 38.9573 14.7082 38.8538 14.7796C38.7252 14.876 38.4859 15.0725 38.3216 15.2189C37.943 15.5689 37.5466 15.8975 37.1288 16.2046C36.893 16.3796 36.6645 16.5689 36.4502 16.7689C36.2323 17.0082 35.9609 17.1939 35.6538 17.301C35.4466 17.4332 35.2573 17.5975 35.0966 17.7832C34.9002 17.9867 34.6895 18.1725 34.468 18.3403C34.368 18.4046 34.2716 18.476 34.1823 18.5582C34.1466 18.601 34.0966 18.6332 34.043 18.6475C34.0109 18.6475 33.9823 18.6725 33.9716 18.7046C33.9609 18.7403 33.9288 18.7653 33.8895 18.7617C33.8466 18.7653 33.8038 18.7903 33.7788 18.826C33.5788 19.0617 33.3466 19.2725 33.0895 19.4403C32.8288 19.5975 32.6002 19.7975 32.4073 20.0296C32.1145 20.3046 31.7895 20.5403 31.4359 20.7296C31.1323 20.8939 30.868 21.126 30.6716 21.4117C30.6252 21.4903 30.568 21.5582 30.5038 21.6189C30.3573 21.6189 29.918 22.001 28.9109 23.0046C27.3288 24.6296 25.6002 26.1046 23.7502 27.4153C23.243 27.7832 23.1859 27.8189 23.1788 27.7582C23.1716 27.7117 23.1002 27.6475 22.9502 27.5439C22.3752 27.151 21.8609 26.676 21.4288 26.1332C20.9966 25.5796 20.5323 25.051 20.0323 24.5546C19.7145 24.2296 19.4538 23.9546 19.4538 23.9403C19.4538 23.9046 19.3966 23.9189 20.5538 23.7117C23.0288 23.2725 24.2288 22.9546 25.518 22.401C25.6145 22.3617 25.6216 22.3617 25.6823 22.4296L25.7466 22.501L25.8966 22.376C26.343 22.0367 26.843 21.7796 27.3752 21.6082C27.943 21.4367 28.3073 21.2296 29.1716 20.5903C29.3859 20.4296 29.6538 20.2367 29.7609 20.1617C30.118 19.901 30.4502 19.6117 30.7609 19.2975C30.9966 19.076 31.3073 18.8046 31.4573 18.6939C31.7038 18.5117 31.7252 18.4867 31.7145 18.4117C31.7002 18.3153 31.9038 18.2046 32.043 18.2296C32.1145 18.2439 32.118 18.2403 32.1073 18.1546C32.0966 18.0689 32.118 18.0332 32.3323 17.7867C32.4752 17.6189 32.6038 17.4439 32.7252 17.2617C32.8109 17.126 33.0573 16.7439 33.2716 16.4189C33.4609 16.1439 33.6288 15.8546 33.7716 15.5546C33.9323 15.1689 34.1216 14.7975 34.3359 14.4439C34.6216 14.0367 34.7573 13.5439 34.7252 13.0475C34.718 12.7189 34.7145 12.7082 34.6538 12.6975C34.6002 12.6903 34.5895 12.701 34.5895 12.776C34.5895 12.8582 34.5538 12.8903 34.5216 12.8403C34.4895 12.3903 34.493 11.9403 34.5252 11.4903L34.5573 11.4332V11.4903C34.5788 11.9617 34.6359 12.101 34.8323 12.1653C35.0359 12.2332 35.0359 12.2403 34.9716 11.7403C34.9538 11.6082 34.9573 11.5939 35.0145 11.5796C35.0895 11.5582 35.0966 11.4153 35.0288 11.1046C35.0073 11.001 34.993 10.8939 34.993 10.7903C35.0002 10.701 34.9823 10.6653 34.8609 10.5367C34.668 10.3296 34.5145 10.0903 34.4109 9.82603C34.2823 9.4046 33.9966 9.05103 33.6109 8.83317C32.3466 8.09389 30.9752 7.55103 29.5466 7.22603C29.043 7.13674 28.4823 7.01531 27.5895 6.80103C27.1538 6.68317 26.7073 6.61174 26.2573 6.58674C26.0752 6.5796 25.8752 6.56889 25.8145 6.56531C25.7538 6.56174 25.468 6.56531 25.1859 6.5796M34.4466 11.1689C34.4466 11.3832 34.3145 11.326 34.2645 11.0903C34.2466 11.0117 34.2538 11.001 34.3109 10.9903C34.4145 10.9725 34.4502 11.0189 34.4502 11.1689M25.6752 11.8582C25.9109 11.9832 26.1859 12.0153 26.4466 11.9439L26.5752 11.9046L26.593 12.1332C26.618 12.426 26.618 13.4903 26.593 13.551C26.5823 13.5796 26.543 13.5939 26.4823 13.5939C26.4145 13.5939 26.3502 13.6117 26.2859 13.6367C26.2216 13.6617 26.1538 13.676 26.0823 13.6796C25.9966 13.6796 25.9752 13.6939 25.918 13.7975C25.8752 13.8689 25.818 13.9332 25.7502 13.9796C25.5359 14.1153 25.5145 14.1403 25.5145 14.2653V14.3832L25.218 14.5403C24.5216 14.9117 23.8609 15.3475 23.2466 15.8403C22.5823 16.3725 21.8538 16.8189 21.0788 17.1653C20.8966 17.2403 20.8502 17.2725 20.818 17.3439C20.6752 17.6367 20.3252 17.7617 20.0252 17.6296C19.918 17.576 19.9216 17.5403 20.043 17.1725C20.3002 16.4617 20.6716 15.7975 21.1395 15.2046C21.3359 14.9653 21.3395 14.9475 21.2573 14.826C21.1752 14.7046 21.1859 14.6689 21.318 14.451C21.5359 14.0867 21.7216 13.701 21.8752 13.3046C22.1145 12.6939 22.5788 11.9225 22.7323 11.8796C23.0359 11.8546 23.3395 11.8796 23.6359 11.9546C24.5395 12.1153 24.8895 12.0832 25.1252 11.8153C25.243 11.6832 25.2395 11.6832 25.6752 11.8546M45.5716 13.3653C45.5716 13.3653 45.5716 13.401 45.543 13.4117C45.4895 13.4332 45.4573 13.4117 45.4859 13.3689C45.4966 13.3439 45.5252 13.3332 45.5502 13.3439C45.5609 13.3475 45.568 13.3582 45.5752 13.3689M40.4859 38.2582C40.4859 38.2582 40.4716 38.2939 40.4395 38.3046C40.4073 38.3153 40.3823 38.3046 40.3823 38.2832C40.3823 38.2082 40.468 38.1903 40.4895 38.2582" fill="white"/>
</g>
<defs>
<clipPath id="clip0_2923_20115">
<rect width="45" height="37.5" fill="white" transform="translate(2.41406 6.5)"/>
</clipPath>
</defs>
</svg>
