<svg fill="none" height="50" viewBox="0 0 50 50" width="50" xmlns="http://www.w3.org/2000/svg" xmlns:xlink="http://www.w3.org/1999/xlink"><clipPath id="a"><path d="m5.41406 5.5h40v40h-40z"/></clipPath><g clip-path="url(#a)"><path d="m5.41406 5.5v40h40.00004v-40zm15.42444 10.9049.251-.4354.7621-1.3228c.0897-.1557.2555-.2516.4349-.2516l1.6759-.0017-.0017-.0034 1.4542.0017 1.4542-.0017-.0017.0034 1.6759.0017c.1794 0 .3453.0959.4349.2516l.7621 1.3228.2511.4354c.0896.1557.0891.347 0 .5021l-1.9298 3.3337-1.1981 2.0747c-.0897.1552-.2555.2511-.4349.2511h-2.0251c-.1794 0-.3452-.0959-.4349-.2511l-1.1981-2.0747-1.9298-3.3337c-.0897-.1551-.0902-.3469-.0005-.5021zm15.7594 6.3714-4.7163 8.1482-2.9276 5.0712c-.2194.3796-.6245.6137-1.0633.6137h-4.9527c-.4383 0-.8439-.2341-1.0633-.6137l-2.9282-5.0712-4.7163-8.1482c-.2194-.3796-.22-.8478-.0011-1.2274l.6131-1.0645 1.8621-3.2333c.2188-.3802.6239-.6143 1.0627-.6149l1.1231-.0011-.4902.8506-.4067.7063c-.145.2521-.145.5629.0011.8145l3.129 5.4068 1.9427 3.3648c.1456.2521.4147.4072.7057.4072h3.2853c.291 0 .5601-.1551.7056-.4072l1.9428-3.3648 3.129-5.4068c.1455-.2516.146-.5624.0011-.8145l-.4067-.7063-.4902-.8506 1.1231.0011c.4388 0 .8439.2347 1.0627.6149l1.8621 3.2333.6131 1.0645c.2189.3801.2183.8478-.0011 1.2274z" fill="#fff"/></g></svg>