<svg width="50" height="50" viewBox="0 0 50 50" fill="none" xmlns="http://www.w3.org/2000/svg">
<g clip-path="url(#clip0_2923_20141)">
<path d="M16.7991 13.6875C16.5354 13.8437 16.2929 13.9986 16.0516 14.1547L20.1195 25.5009C20.4708 25.3234 20.8233 25.1223 21.2184 24.9449C21.6797 24.7225 22.1422 24.5226 22.5822 24.3215L16.9316 13.6201C16.8654 13.6426 16.8216 13.665 16.8003 13.6863M18.5593 12.4632C18.273 12.6856 17.9655 12.908 17.6579 13.1079L25.0237 23.2972C26.4088 22.7412 27.9039 22.1403 29.7291 21.2283L18.5581 12.4632H18.5593ZM40.2165 14.8219L20.2295 11.1065C19.9219 11.3738 19.5919 11.6624 19.2619 11.9298L32.7845 19.5829C33.8183 19.0045 34.961 18.3149 36.2373 17.5141C37.6437 16.6246 38.9638 15.7339 40.1514 14.8668C40.1739 14.8668 40.1952 14.8444 40.2176 14.8219M21.5697 9.7935C21.3059 10.0821 21.0196 10.3719 20.7121 10.6605L42.7218 12.9293C46.9659 9.57112 49.4062 6.81266 50 6.12305L21.5697 9.7935ZM3.5841 15.9563C3.36409 15.2217 2.52898 15.1105 2.52898 15.1105C2.52898 15.1105 5.29927 13.2865 6.39815 12.2633C7.47575 11.2626 7.25574 10.3944 7.25574 10.3944L0.616276 14.7545L0 19.0483L0.967589 20.2501C0.967589 20.2501 0.637568 19.5155 1.45138 18.8484C2.11143 18.3149 4.1779 17.8914 3.5841 15.9563ZM9.03714 14.622C6.22309 13.7987 5.8493 13.5314 5.8493 13.5314C5.8493 13.5314 4.55169 13.7987 4.20038 15.1779C3.89283 16.3797 4.20038 17.2468 4.20038 17.2468C9.3234 21.0734 6.81689 29.9272 6.17932 31.7736C5.58552 33.4415 3.4528 38.8034 3.4528 38.8034C3.36527 39.6705 2.81524 43.0523 2.70523 43.8756C6.5744 38.8034 9.5647 35.2655 14.4239 29.5711L13.6101 15.2879C13.5877 15.2442 11.1474 15.2442 9.03714 14.6208M18.5356 26.3667L15.2378 14.5534C14.9515 14.687 14.6877 14.8207 14.4239 14.9094L16.1604 27.9683C16.7767 27.5236 17.568 26.9676 18.5356 26.3667Z" fill="white"/>
</g>
<defs>
<clipPath id="clip0_2923_20141">
<rect width="50" height="37.7537" fill="white" transform="translate(0 6.12305)"/>
</clipPath>
</defs>
</svg>
