<svg width="50" height="50" viewBox="0 0 50 50" fill="none" xmlns="http://www.w3.org/2000/svg">
<g clip-path="url(#clip0_2923_20103)">
<path d="M50 26.5851C50 26.5851 49.8599 26.4247 49.5689 26.1515C49.4952 26.0842 49.4135 26.0085 49.3229 25.9259C49.2314 25.8442 49.1299 25.7571 49.0191 25.6646C48.7979 25.478 48.5395 25.2671 48.2411 25.0444C47.6457 24.5956 46.8955 24.0843 45.9962 23.5602C45.0975 23.0351 44.0508 22.4947 42.8714 21.983C41.692 21.4732 40.3801 20.9937 38.9627 20.5794C37.5458 20.1652 36.0229 19.8148 34.4303 19.5589C34.2314 19.5228 34.031 19.4956 33.83 19.4679C33.6286 19.4397 33.4267 19.412 33.2238 19.3837C33.0209 19.3536 32.8165 19.3308 32.6116 19.3095C32.4067 19.2877 32.2008 19.2655 31.9944 19.2437C31.79 19.2199 31.5757 19.2031 31.3634 19.1868C31.1506 19.1709 30.9368 19.1556 30.7225 19.1398C30.5018 19.1219 30.3078 19.1135 30.1064 19.1021C29.9054 19.0903 29.7045 19.0828 29.5026 19.0734L29.3512 19.0665L29.2754 19.0631L29.1656 19.0606L28.8444 19.0522C28.6301 19.0457 28.4143 19.0423 28.1985 19.0428C27.7665 19.0413 27.3315 19.0482 26.894 19.0606C26.457 19.0769 26.017 19.1031 25.5755 19.1343C25.1331 19.168 24.6907 19.2145 24.2462 19.2699C24.024 19.2961 23.8013 19.3278 23.5791 19.36C23.3569 19.3941 23.1342 19.4322 22.912 19.4713C22.4676 19.5525 22.0221 19.6396 21.5802 19.7465C21.1769 19.8445 20.7755 19.9514 20.3766 20.0677C21.1546 19.4253 21.9301 18.8181 22.7125 18.2717C23.6816 17.5937 24.662 17.0097 25.6592 16.539C26.1571 16.303 26.6599 16.0976 27.1637 15.9165L27.2582 15.8833L27.3057 15.8665L27.3295 15.8581L27.3414 15.8541C27.3503 15.8516 27.3042 15.861 27.3305 15.8551C27.4022 15.8348 27.4735 15.814 27.5448 15.7937C27.6853 15.7526 27.8254 15.7121 27.9649 15.6715C28.2159 15.6037 28.4584 15.5334 28.7207 15.4725C29.2349 15.3439 29.7421 15.2419 30.237 15.1578C30.7319 15.0692 31.2155 15.0108 31.6836 14.9618C33.5568 14.7722 35.1762 14.8767 36.313 15.0286C36.8816 15.1053 37.3305 15.1924 37.6368 15.2602C37.9432 15.3275 38.1065 15.3755 38.1065 15.3755C38.1065 15.3755 37.9828 15.2582 37.7254 15.0667C37.4681 14.8762 37.0771 14.6109 36.5465 14.3229C36.0165 14.0353 35.3479 13.7221 34.5442 13.4439C33.7414 13.1648 32.8046 12.9183 31.7569 12.759C31.2333 12.6808 30.6824 12.6184 30.1089 12.5897C30.0371 12.5858 29.9648 12.5818 29.8926 12.5778C29.8203 12.5759 29.7476 12.5739 29.6748 12.5719C29.5288 12.5689 29.3813 12.5625 29.2329 12.562C28.9364 12.564 28.6336 12.5655 28.3282 12.5813C28.0258 12.5887 27.7012 12.6219 27.3765 12.6481C27.3023 12.6555 27.2275 12.663 27.1528 12.6704C27.0796 12.6783 27.0063 12.6862 26.9326 12.6942C26.8593 12.7021 26.7851 12.7105 26.7113 12.7189C26.7282 12.7149 26.6732 12.7258 26.6732 12.7253L26.6579 12.7273L26.6272 12.7313L26.5658 12.7387L26.4421 12.754C25.7824 12.8401 25.1113 12.9743 24.4427 13.1603C23.104 13.5286 21.7806 14.1007 20.5439 14.8069C19.3046 15.5121 18.15 16.3446 17.0766 17.2136C16.0031 18.0836 15.0094 18.9923 14.0641 19.8623C13.1193 20.7333 12.2226 21.5682 11.3486 22.3017C10.4751 23.0366 9.62286 23.6671 8.77559 24.1482C7.9293 24.6307 7.0845 24.9662 6.24564 25.1588C5.40876 25.3557 4.58228 25.4117 3.82656 25.3983C3.07035 25.3835 2.38738 25.2988 1.81825 25.2142C1.53417 25.1697 1.2788 25.1231 1.05461 25.0816C0.942268 25.0618 0.839328 25.0395 0.744307 25.0202C0.648296 25.0029 0.561688 24.9846 0.483988 24.9687C0.169725 24.9044 0.00195312 24.8697 0.00195312 24.8697C0.00195312 24.8697 0.0212543 24.9197 0.0697548 25.0123C0.11875 25.1043 0.194965 25.2409 0.312257 25.4077C0.370655 25.4913 0.437962 25.5839 0.516652 25.6829C0.595836 25.7809 0.685413 25.8863 0.787363 25.9961C0.989284 26.2179 1.2397 26.4589 1.54357 26.7043C2.14884 27.1963 2.97335 27.707 3.99978 28.1178C4.512 28.3237 5.07371 28.5038 5.67552 28.6518C5.97642 28.724 6.28722 28.7894 6.60742 28.8463C6.76777 28.877 6.9291 28.8973 7.09391 28.922L7.21763 28.9398L7.27949 28.9487C7.2696 28.9497 7.31117 28.9502 7.31166 28.9507L7.32602 28.9527L7.35472 28.9566C7.43093 28.9665 7.50715 28.9764 7.58435 28.9863L7.70165 29.0002L7.83478 29.0116C7.92435 29.019 8.01393 29.0259 8.1045 29.0334C8.27969 29.0438 8.45489 29.0581 8.63454 29.064C8.99235 29.0784 9.36105 29.0764 9.73916 29.0655C10.1168 29.0502 10.5033 29.0175 10.8962 28.971C11.2887 28.9215 11.6866 28.8537 12.086 28.7686C12.4849 28.6815 12.8843 28.5761 13.2802 28.4578C13.3633 28.4325 13.4465 28.4063 13.5291 28.3796C13.7256 28.7038 13.9646 29.0274 14.2314 29.3442C14.5041 29.6668 14.8164 29.9717 15.1489 30.2602C15.4845 30.5453 15.8472 30.8051 16.2234 31.0392C16.601 31.2723 16.9964 31.4717 17.3938 31.6459C17.7927 31.8187 18.199 31.9553 18.5974 32.0701C18.9983 32.1795 19.3927 32.2621 19.7738 32.319C19.8683 32.3358 19.9643 32.3438 20.0569 32.3556C20.1504 32.3655 20.242 32.3799 20.3335 32.3853C20.5171 32.3982 20.6933 32.4155 20.867 32.4175C20.9532 32.42 21.0378 32.4224 21.1214 32.4244C21.2046 32.4234 21.2867 32.4224 21.3674 32.4215C21.4476 32.4195 21.5263 32.42 21.6035 32.416C21.6807 32.4116 21.7559 32.4071 21.8301 32.4027C21.9776 32.3957 22.1182 32.3809 22.2508 32.3665C22.3171 32.3596 22.3814 32.3527 22.4443 32.3457C22.5067 32.3363 22.567 32.3274 22.6259 32.3185C22.859 32.2868 23.0624 32.2443 23.2267 32.2116C23.3906 32.179 23.5153 32.1428 23.6024 32.123C23.6885 32.1018 23.7345 32.0904 23.7345 32.0904C23.7345 32.0904 23.688 32.082 23.6004 32.0666C23.5133 32.0493 23.3831 32.032 23.2223 31.9953C23.0619 31.9592 22.8709 31.9181 22.6527 31.8543C22.5982 31.8395 22.5428 31.8241 22.4849 31.8083C22.428 31.79 22.3696 31.7712 22.3097 31.7514C22.1899 31.7133 22.0652 31.6732 21.9375 31.6227C21.8737 31.5989 21.8088 31.5742 21.7425 31.5494C21.6767 31.5242 21.6109 31.494 21.5436 31.4658C21.4768 31.4371 21.409 31.4079 21.3402 31.3782C21.2729 31.3455 21.2046 31.3129 21.1348 31.2792C20.9962 31.2159 20.8591 31.1372 20.7191 31.063C20.6488 31.0268 20.581 30.9823 20.5112 30.9417C20.4424 30.8991 20.3716 30.861 20.3038 30.815C20.0292 30.6393 19.7604 30.4428 19.5041 30.232C19.2507 30.0167 19.0082 29.7911 18.7904 29.55C18.5742 29.308 18.3762 29.0596 18.2084 28.8057C18.0426 28.5508 17.9001 28.2969 17.7883 28.049C17.6804 27.7991 17.5928 27.561 17.5378 27.3363C17.4883 27.1329 17.4557 26.9459 17.4418 26.7746C17.52 26.74 17.5977 26.7053 17.6759 26.6707C17.8457 26.5965 18.0139 26.5242 18.1822 26.4544C18.3495 26.3822 18.5163 26.3124 18.683 26.2451C19.2547 26.0154 19.8223 25.8046 20.3994 25.6185C20.8824 27.8659 22.8754 29.5085 25.2128 29.5085C25.4068 29.5085 25.6033 29.4966 25.7968 29.4738C28.4123 29.1645 30.3113 26.8489 30.1361 24.2496C30.3078 24.2442 30.481 24.2382 30.6334 24.2382C30.819 24.2363 31.0036 24.2343 31.1882 24.2323C31.3728 24.2298 31.5555 24.2229 31.746 24.2259C32.1226 24.2283 32.4977 24.2254 32.8699 24.2308C33.056 24.2338 33.2416 24.2368 33.4262 24.2397C33.5187 24.2412 33.6108 24.2427 33.7033 24.2442C33.7954 24.2472 33.8869 24.2501 33.9785 24.2526C35.4454 24.2927 36.8667 24.3714 38.2173 24.4862C38.2525 24.4892 38.2871 24.4926 38.3223 24.4956C38.0788 24.6055 37.8382 24.7247 37.6017 24.8499C36.4654 25.4572 35.4444 26.2386 34.5214 27.0518C33.5969 27.8664 32.762 28.7156 31.9618 29.5189C31.161 30.3231 30.3914 31.0793 29.6149 31.7395C28.8389 32.4007 28.0575 32.9659 27.2439 33.4197C26.8375 33.6468 26.4233 33.8468 26.0026 34.0205C25.8972 34.0635 25.7918 34.1061 25.6864 34.1472C25.633 34.167 25.58 34.1868 25.527 34.2066L25.5171 34.21C25.527 34.2086 25.4805 34.2185 25.5369 34.2076L25.5137 34.2145L25.4667 34.2283L25.3731 34.2561C25.2494 34.2937 25.1267 34.3313 25.0049 34.3684C24.902 34.3981 24.8 34.4273 24.6986 34.4565C24.5996 34.4877 24.4877 34.5119 24.3804 34.5401C24.2725 34.5659 24.1646 34.5975 24.0572 34.6178C23.9493 34.6411 23.8424 34.6639 23.7365 34.6861C23.6301 34.7074 23.5242 34.7252 23.4188 34.7445C22.9976 34.8153 22.5839 34.8732 22.1835 34.9009C21.3817 34.9643 20.629 34.9425 19.9549 34.8747C19.6184 34.8386 19.3017 34.7925 19.0072 34.7401C18.7142 34.6846 18.4425 34.6272 18.1975 34.5649C17.7091 34.4392 17.324 34.3105 17.0632 34.213C16.8019 34.1155 16.6638 34.0507 16.6638 34.0507C16.6638 34.0507 16.747 34.1784 16.9365 34.3951C17.1266 34.6104 17.423 34.9148 17.8486 35.2538C18.0619 35.4216 18.3054 35.6027 18.5841 35.7818C18.8632 35.9595 19.1755 36.1387 19.5219 36.3114C20.2148 36.6529 21.0472 36.9642 21.9979 37.1681C22.1167 37.1923 22.2369 37.219 22.3592 37.2423C22.4819 37.2621 22.6056 37.2824 22.7308 37.3022C22.8566 37.3245 22.9832 37.3358 23.1119 37.3532C23.2406 37.3685 23.3703 37.3834 23.5014 37.3918C23.6326 37.4017 23.7657 37.413 23.8993 37.421C24.0334 37.4254 24.1685 37.4294 24.3046 37.4338C24.4417 37.4398 24.5778 37.4348 24.7164 37.4348C24.8555 37.4338 24.9925 37.4338 25.1415 37.4225C25.289 37.4135 25.437 37.4041 25.5864 37.3947C25.7146 37.3838 25.8443 37.373 25.9744 37.3616L26.0714 37.3527L26.1199 37.3482L26.1442 37.3457C26.208 37.3334 26.1699 37.3413 26.1877 37.3383L26.2016 37.3368C26.2753 37.3284 26.3496 37.3195 26.4238 37.3106C26.5723 37.2908 26.7222 37.2715 26.8717 37.2448C27.4715 37.1438 28.0812 36.9919 28.685 36.7875C29.8936 36.3797 31.066 35.7556 32.1191 35.0138C33.1763 34.2729 34.123 33.4266 34.9886 32.5853C35.8562 31.7434 36.6465 30.9036 37.4082 30.1444C38.1703 29.3852 38.9038 28.7087 39.6427 28.1668C40.3806 27.6224 41.1249 27.2082 41.9009 26.9172C42.6744 26.6247 43.4801 26.4564 44.2675 26.3728C45.0544 26.2886 45.818 26.2832 46.5079 26.3074C47.1988 26.3332 47.817 26.3871 48.3326 26.4351C48.592 26.4618 48.8236 26.4861 49.0245 26.5069C49.2284 26.5292 49.4016 26.548 49.5422 26.5633C49.8258 26.5955 50.0024 26.5841 50.0024 26.5841L50 26.5851ZM25.5414 27.3289C25.4315 27.3418 25.3207 27.3482 25.2108 27.3482C23.8592 27.3482 22.7125 26.3693 22.4859 25.0479C22.5784 25.0271 22.671 25.0053 22.764 24.9855C23.1193 24.9153 23.4757 24.8405 23.8379 24.7807C24.0196 24.751 24.2007 24.7213 24.3838 24.695C24.5669 24.6678 24.7496 24.6391 24.9342 24.6154C25.6716 24.5189 26.4208 24.4392 27.1775 24.3872C27.4423 24.3659 27.7081 24.3486 27.9743 24.3333C28.106 25.818 27.0311 27.1522 25.5414 27.3284V27.3289Z" fill="white"/>
</g>
<defs>
<clipPath id="clip0_2923_20103">
<rect width="50" height="24.8748" fill="white" transform="translate(0 12.5625)"/>
</clipPath>
</defs>
</svg>
