<svg width="50" height="50" viewBox="0 0 50 50" fill="none" xmlns="http://www.w3.org/2000/svg">
<g clip-path="url(#clip0_2923_36028)">
<path d="M18.9839 22.7023L11.0291 0.00952148C6.43267 1.23994 1.9402 10.627 6.12093 18.5095C8.12996 22.2942 13.8754 31.8092 13.8754 31.8092L18.9839 22.7023Z" fill="white"/>
<path d="M10.4188 29.4026L8.19889 27.9342L6.82841 24.2866H5.83594L6.33142 29.0863L12.3781 32.6827L10.4188 29.4026Z" fill="white"/>
<path d="M39.5765 29.4026L41.7964 27.9342L43.1669 24.2866H44.1594L43.6639 29.0863L37.6172 32.6827L39.5765 29.4026Z" fill="white"/>
<path d="M24.9964 38.9929L17.9316 37.8724L24.9964 49.9282L31.9844 37.8905L24.9964 38.9929Z" fill="white"/>
<path d="M29.2269 22.9959L24.9965 16.4327L20.7676 22.9959L24.9965 29.4779L29.2269 22.9959Z" fill="white"/>
<path d="M34.9217 33.1902L30.1762 24.7941L24.997 32.5727L19.8177 24.7941L15.0738 33.1902L11.5693 35.4538L11.0723 43.0818H12.0647L13.4352 36.6044L15.3087 35.8333L24.997 37.1646L34.6867 35.8333L36.5602 36.6044L37.9307 43.0818H38.9217L38.4262 35.4538L34.9217 33.1902Z" fill="white"/>
<path d="M31.0117 22.7023L38.9665 0.00952148C43.5629 1.23994 48.0554 10.627 43.8747 18.5095C41.8671 22.2942 36.1217 31.8092 36.1217 31.8092L31.0117 22.7023Z" fill="white"/>
</g>
<defs>
<clipPath id="clip0_2923_36028">
<rect width="41.2651" height="50" fill="white" transform="translate(4.36719)"/>
</clipPath>
</defs>
</svg>
