<svg width="50" height="50" viewBox="0 0 50 50" fill="none" xmlns="http://www.w3.org/2000/svg">
<g clip-path="url(#clip0_2923_35817)">
<path d="M16.3482 24.7534V24.5658L16.4334 24.4806C16.4334 24.4806 16.5541 24.4806 16.6566 24.4976C16.7587 24.5145 16.7078 24.5145 16.793 24.5145C16.8781 24.5145 16.8951 24.4806 16.8951 24.4806L16.9633 24.4108H17.1166C17.1848 24.4108 17.2018 24.4108 17.3568 24.4976C17.4334 24.5403 17.9835 25.1574 18.519 25.7684C20.6673 24.4467 21.4901 24.2062 21.4901 24.2062C21.4901 24.2062 21.5922 24.1723 21.6947 24.1723C21.7973 24.1723 21.9179 24.2235 21.9179 24.2235L22.0031 24.1896C22.0031 24.1896 22.0882 24.1214 22.1907 24.0702C22.2928 24.0189 22.2589 24.0363 22.361 24.0363C22.4631 24.0363 22.4805 24.0363 22.5669 24.0875C22.6536 24.1388 22.669 24.207 22.669 24.207C22.669 24.207 22.6347 24.3264 22.4801 24.3434C22.3251 24.3603 22.037 24.6348 22.037 24.6348L21.9688 24.7538C21.9688 24.7538 21.3037 24.9592 18.9973 26.3177C19.3371 26.7091 19.5942 27.0082 19.5942 27.0082V27.0933L19.5772 27.1801V27.3165C19.5772 27.3678 19.9025 27.6232 19.9025 27.6232C19.9025 27.6232 19.9025 27.6571 19.85 27.7253C19.7972 27.7935 19.7306 27.7951 19.6454 27.846C19.5603 27.8972 19.5264 27.7947 19.5264 27.7947L19.373 27.846L19.3048 27.9481L19.1498 27.9311L18.5703 27.197L18.3814 27.2483L18.0751 26.8726C15.9572 28.1757 14.7949 29.1092 14.7949 29.1092L14.6754 29.0579H14.5205C14.4506 29.0579 14.4523 28.9897 14.4523 28.9897L14.4184 28.8363V28.666C14.4184 28.5809 14.4523 28.5296 14.4523 28.5296C14.4523 28.5296 15.1617 27.9166 17.632 26.3294L16.3486 24.7542L16.3482 24.7534ZM17.4589 27.6906L17.6122 27.5203L17.6974 27.4521C17.6974 27.4521 17.7656 27.4008 17.8677 27.4008C17.9698 27.4008 18.0396 27.5373 18.0396 27.5373L18.1248 27.4521C18.1248 27.4521 18.2781 27.4182 18.3463 27.4008C18.4145 27.3839 18.4997 27.4178 18.4997 27.4178C18.4997 27.4178 18.5695 27.5199 18.5521 27.6224C18.5352 27.7245 18.1756 28.1862 17.2014 29.723C16.2272 31.2598 14.6577 34.2498 14.6403 34.335C14.6234 34.4202 14.5891 34.6772 14.5891 34.6772L14.5366 34.8818L14.3489 34.9161C14.3489 34.9161 14.2299 34.9161 14.1443 34.8992C14.0592 34.8822 14.1443 34.831 14.1443 34.831C14.1443 34.831 14.1956 34.5582 14.1274 34.5582C14.0592 34.5582 13.9058 34.95 13.8703 35.0182C13.8348 35.0864 13.7852 35.0352 13.7852 35.0352H13.5806L13.5293 34.95L13.6996 34.4557C13.6996 34.4557 13.6314 34.2837 13.6314 34.2155C13.6314 34.1473 14.2977 32.6957 15.1682 31.0213C16.0391 29.3465 17.0472 27.7943 17.0472 27.7943L17.1324 27.7076C17.1324 27.7076 17.2191 27.6563 17.3386 27.6563C17.4581 27.6563 17.4577 27.6902 17.4577 27.6902L17.4589 27.6906Z" fill="white"/>
<path d="M11.4827 30.9062C10.4508 31.3921 9.0524 32.0491 7.99343 32.5463C6.95262 34.6606 6.09745 36.5542 6.09745 36.5542L5.97921 36.6858L5.73626 36.7604L5.70922 36.6385L5.73061 36.2652L5.02638 37.7875L4.81047 37.984L4.58366 37.9752L4.46945 37.796L4.56187 37.5647L4.61151 37.3339L4.62563 37.2096L4.78222 36.6664C4.78222 36.6664 4.70756 36.8145 4.67002 36.8783C4.63209 36.942 4.47712 37.1559 4.48115 37.2378C4.48559 37.3198 4.39923 37.2423 4.29551 37.2269C4.19179 37.212 4.16596 37.1103 4.16596 37.1103L4.15628 36.9255C4.15144 36.8355 4.76971 35.67 6.0797 33.4116C6.0232 33.4172 6.0006 33.4015 6.0006 33.4015L5.81294 33.3676L5.65958 33.2312L5.79599 33.0948C5.79599 33.0948 6.0006 33.0266 6.08575 32.9741C6.1709 32.9213 6.22216 32.889 6.22216 32.889L6.2044 32.7643C5.06633 33.3628 5.08328 33.2845 5.11314 33.1799C5.14704 33.0605 5.48806 32.6844 5.48806 32.6844L6.001 32.4289C6.001 32.4289 6.35735 32.2606 6.90056 32.008C8.53381 29.2229 9.93824 26.8051 9.93824 26.8051C9.93824 26.8051 10.0993 26.7349 10.1812 26.7305C10.2631 26.726 10.3293 26.8051 10.3293 26.8051L10.4217 26.965L10.8257 26.4274L11.0234 26.2728L11.333 26.2567C11.54 26.2458 11.4444 26.4157 11.4444 26.4157L11.563 26.3273L11.8794 26.0844C11.8794 26.0844 11.9412 26.0811 12.0077 26.1392C12.0743 26.1974 12.0973 26.2785 12.0412 26.3846C11.9876 26.4855 9.95559 28.823 8.68031 31.1867C9.61659 30.7589 10.6086 30.3142 11.3132 30.0204C11.6502 29.8799 11.9319 29.7657 12.1672 29.6725C13.2447 27.739 13.7294 26.8507 13.7294 26.8507C13.7294 26.8507 13.9852 26.8491 14.0873 26.8322C14.1895 26.8152 14.566 26.2357 14.566 26.2357H14.7536C14.8049 26.2357 14.8731 26.1489 14.8731 26.1489H14.9938C14.9938 26.1489 15.1471 26.1659 15.2153 26.132C15.2835 26.0981 15.3348 25.9274 15.3348 25.9274C15.3348 25.9274 15.4881 25.8931 15.558 25.8931C15.6278 25.8931 15.6092 25.91 15.6944 25.9443C15.7795 25.9782 15.7456 26.0464 15.7456 26.0464L15.3864 26.542C15.3864 26.542 15.5229 26.6441 15.5398 26.7466C15.5568 26.8487 15.0115 27.2253 13.662 29.5135C12.3128 31.8017 11.1167 34.4338 11.0654 34.5016C11.0142 34.5698 10.946 34.5698 10.946 34.5698L10.8079 34.5868H10.6376C10.5694 34.5868 10.5012 34.8951 10.5012 34.8951L10.45 34.9972L10.3136 35.0485H10.1929L10.0908 35.0142L10.0738 34.774L9.61377 35.8508L9.33974 35.9359L9.22029 35.8677C9.22029 35.8677 9.22028 35.8334 9.23724 35.7313C9.25338 35.6353 10.2191 33.2481 11.4831 30.9062H11.4827ZM8.38368 31.7614C8.67304 31.6339 8.9616 31.5011 9.22916 31.3687C9.76591 31.104 10.5093 30.7492 11.1925 30.4264C10.3471 30.7904 9.33651 31.2331 8.4418 31.6456L8.38368 31.761V31.7614Z" fill="white"/>
<path fill-rule="evenodd" clip-rule="evenodd" d="M18.8223 28.6652C18.8223 28.6652 24.2382 26.8544 24.4598 26.8032C24.6813 26.7519 24.8008 26.735 24.8008 26.735C24.8008 26.735 24.7483 26.8544 24.9372 26.8371C25.1261 26.8201 26.116 26.6667 26.116 26.6667L26.2012 26.7858L26.2181 26.9053V27.0074L25.62 27.128C25.62 27.128 25.9453 27.3665 26.0135 27.469C26.0817 27.5712 26.0987 27.6737 26.0987 27.6737L26.1156 27.8117C26.1156 27.8117 26.1156 27.8968 26.0135 27.9138C25.9114 27.9307 25.8247 27.965 25.7395 27.965C25.6544 27.965 22.768 28.8541 20.8377 29.8102C18.9075 30.7662 18.5664 31.1423 18.5664 31.1423C18.5664 31.1423 21.3148 30.1665 22.9553 29.7403C24.5958 29.3142 25.2621 29.2633 25.2621 29.2633C25.2621 29.2633 25.279 29.2803 25.3133 29.3828C25.3476 29.4849 25.3476 29.4679 25.3476 29.5531V29.6895L25.3815 29.8102C25.3815 29.8102 25.5006 29.8614 25.3815 29.9123C25.2621 29.9635 25.1939 29.9635 25.1939 29.9635L25.1087 30.0656L24.9707 30.1169C24.9707 30.1169 21.6231 31.0217 20.035 31.5685C18.447 32.1154 18.2242 32.2518 18.2242 32.2518C18.2242 32.2518 17.5922 32.7304 16.9941 32.8668C16.396 33.0032 16.2088 32.7478 16.277 32.6622C16.3452 32.577 16.4489 32.4745 16.4489 32.4745L16.6535 32.3539L16.6366 32.2005C16.6366 32.2005 16.5853 32.2005 16.6027 32.1323C16.6196 32.0641 16.6709 31.979 16.6709 31.979C16.6709 31.979 17.1479 31.6537 17.6608 31.466C17.6608 31.466 19.1649 29.9631 22.632 28.6479C22.632 28.6479 19.6932 29.6564 18.8736 29.878C18.0539 30.0995 17.9687 29.7742 17.9687 29.7742C17.9687 29.7742 18.0539 29.6209 18.1391 29.5696C18.2242 29.5184 18.2242 29.5696 18.2924 29.5184C18.3606 29.4671 18.3945 29.4502 18.3945 29.4502C18.3945 29.4502 18.3618 29.3138 18.4474 29.2456C18.5325 29.1774 18.4643 29.2298 18.5838 29.1604C18.7028 29.0906 18.7884 29.0567 18.7884 29.0567C18.7884 29.0567 18.8223 29.0397 18.7545 28.9715C18.6863 28.9033 18.6693 28.8351 18.6693 28.8351L18.8227 28.6648L18.8223 28.6652Z" fill="white"/>
<path fill-rule="evenodd" clip-rule="evenodd" d="M16.1746 34.199C16.1746 34.199 18.5322 33.1752 20.7184 32.4919C22.9041 31.8087 23.5535 31.6368 23.6217 31.6537C23.6899 31.6707 23.7411 31.7389 23.7411 31.7389L23.7766 31.8595V31.9616L23.7068 31.9955L21.5889 32.6106L23.8957 32.0468L23.947 32.2171C23.947 32.2171 23.9809 32.2683 23.9639 32.3365C23.947 32.4047 23.9978 32.4233 23.9126 32.4572C23.8275 32.4911 23.911 32.4572 23.7577 32.5085C23.6043 32.5597 20.1203 33.5666 18.2409 34.2499C18.2409 34.2499 21.691 33.1731 22.0845 33.1049C22.478 33.0367 21.8815 33.4302 21.7778 33.4472C21.674 33.4641 21.3673 33.5323 21.3673 33.5323C21.3673 33.5323 17.4898 34.8831 16.8578 35.1216C16.2258 35.3601 16.0894 35.0861 16.1407 34.9836C16.1919 34.8815 16.2089 34.8302 16.2089 34.8302L16.311 34.7451C16.311 34.7451 16.3449 34.6938 16.2771 34.6769C16.2089 34.6599 16.1237 34.5562 16.1576 34.4367C16.1915 34.3173 16.2428 34.2834 16.2428 34.2834L16.1746 34.1982V34.199Z" fill="white"/>
<path fill-rule="evenodd" clip-rule="evenodd" d="M40.1027 23.8703C40.1027 23.8703 35.1077 25.1314 32.8962 25.9495C30.6846 26.7675 30.7286 27.0766 30.7286 27.1646C30.7286 27.2526 30.7726 27.3192 30.7726 27.3192C30.7726 27.3192 30.8848 27.3652 30.8848 27.4536C30.8848 27.542 30.7746 27.5638 30.8848 27.586C30.9949 27.6082 30.9731 27.5638 31.0393 27.6081C31.1055 27.6521 31.0833 27.8729 31.0833 27.8729C31.0833 27.8729 31.0611 27.9831 31.1717 28.0275C31.2819 28.0714 34.6666 26.9649 36.0803 26.4794C37.494 25.9939 39.0639 25.5507 39.1963 25.529C39.3287 25.5068 39.3287 25.3966 39.3287 25.3966C39.3287 25.3966 39.505 25.4628 39.461 25.242L39.4171 25.0213C39.4171 25.0213 39.2625 25.0451 39.2847 24.9329C39.3069 24.8207 39.1947 24.8207 39.3731 24.7545C39.5514 24.6883 40.2351 24.5999 40.2351 24.5999L40.3235 24.3574C40.3235 24.3574 40.3917 24.3352 40.4139 24.2028C40.4361 24.0704 40.4361 24.0043 40.4361 24.0043L40.3017 23.8921L40.1031 23.8699L40.1027 23.8703Z" fill="white"/>
<path fill-rule="evenodd" clip-rule="evenodd" d="M40.0797 26.3249C40.0797 26.3249 34.7279 27.7184 29.9319 29.6636C29.9319 29.6636 29.6894 29.9961 29.6894 30.0845C29.6894 30.1729 29.601 30.1947 29.6894 30.2391C29.7777 30.2831 29.7333 30.2831 29.8657 30.2831C29.9981 30.2831 30.5292 30.1285 30.5292 30.1285C30.5292 30.1285 29.358 30.614 29.314 30.702C29.27 30.7904 29.3362 30.9905 29.3362 30.9905C29.3362 30.9905 29.4686 31.0127 29.5566 31.0345C29.645 31.0567 29.8637 31.1007 29.9537 31.0567C30.0437 31.0127 32.7831 30.0179 35.0165 29.3105C35.0165 29.3105 31.8985 30.8566 29.7773 32.4704C29.7773 32.4704 29.601 32.6928 29.6228 32.759C29.645 32.8252 29.645 32.8914 29.7773 32.8914H29.9759L29.9537 33.0677C29.9537 33.0677 29.8653 33.1117 29.7773 33.1779C29.6889 33.2441 29.9117 33.1319 29.4686 33.3987C29.0255 33.6654 28.9375 33.7094 28.9375 33.7978C28.9375 33.8862 29.1821 34.2167 29.4028 34.0403C29.6236 33.864 30.1547 33.5548 30.2648 33.533C30.375 33.5108 30.3972 33.577 30.3532 33.6654C30.3092 33.7538 30.2648 33.8862 30.2648 33.8862C30.2648 33.8862 30.3088 33.9963 30.3972 34.0185C30.4856 34.0407 30.5518 34.1731 30.662 34.0407C30.7721 33.9084 31.9893 33.0019 35.46 31.9854C38.9307 30.9688 38.9969 31.0567 39.0191 30.9688C39.0413 30.8804 38.9969 30.7242 38.9969 30.658C38.9969 30.5918 38.8645 30.4377 38.8645 30.4377C38.8645 30.4377 40.4566 29.9723 40.5446 29.9505C40.633 29.9284 40.5446 29.6196 40.5446 29.6196L40.3222 29.4651L39.394 29.6854C39.394 29.6854 38.9969 29.4429 35.7909 30.5474C32.585 31.6524 30.6838 32.4043 30.6838 32.4043C30.6838 32.4043 33.6452 30.3469 36.8297 28.9553C40.0139 27.5638 40.3226 27.676 40.3226 27.4754C40.3226 27.2749 40.2786 27.3633 40.2565 27.2309C40.2343 27.0985 40.1681 27.1425 40.1903 27.0545C40.2121 26.9661 40.2104 26.9661 40.3004 26.9222C40.3908 26.8782 40.4348 26.8338 40.4348 26.8338C40.4348 26.8338 40.4126 26.856 40.4348 26.7236C40.457 26.5912 40.457 26.4568 40.457 26.4568L40.3448 26.3906L40.0801 26.3245L40.0797 26.3249Z" fill="white"/>
<path fill-rule="evenodd" clip-rule="evenodd" d="M26.859 25.2952C26.859 25.2952 26.7246 25.2759 26.6649 25.334C26.6048 25.3921 26.5467 25.4506 26.5467 25.4506L26.4886 25.7029C26.4886 25.7029 26.2363 25.7824 26.2169 25.8598C26.1976 25.9373 25.788 29.4 25.7492 31.6184C25.7105 33.8368 25.8073 34.0907 25.8465 34.1686C25.8852 34.246 25.9066 34.382 25.9066 34.382C25.9066 34.382 25.8679 34.4793 26.0039 34.5181C26.1399 34.5568 26.1786 34.5568 26.1786 34.5568L26.3921 34.5374C26.3921 34.5374 26.4696 34.4402 26.4696 34.3433V34.1669C26.4696 34.0116 26.489 33.5261 26.489 33.5261H26.6653C26.6653 33.5261 26.3917 35.6472 26.3917 35.7445C26.3917 35.8418 26.4498 36.1134 26.4498 36.1134C26.4498 36.1134 26.3917 36.4257 26.4886 36.4645C26.5858 36.5032 26.5487 36.542 26.7037 36.5032C26.859 36.4645 26.9171 36.4241 26.9171 36.4241L26.9946 36.094C26.9946 36.094 27.2275 36.0762 27.3248 35.8611C27.422 35.646 27.7146 34.6734 27.7146 34.5181C27.7146 34.3627 27.6952 34.3433 27.6759 34.2658C27.6565 34.1883 27.6565 33.9728 27.6565 33.9728C27.6565 33.9728 28.9007 29.986 30.2438 27.4362C31.5869 24.886 32.2681 24.1273 32.3456 24.0882C32.4231 24.0494 32.7144 23.9134 32.7144 23.9134C32.7144 23.9134 33.6301 22.687 33.6301 22.4541C33.6301 22.2212 33.4538 22.2212 33.4538 22.2212C33.4538 22.2212 33.415 22.1825 33.3178 22.1825H33.0849C33.0849 22.1825 33.0462 22.1631 32.9489 22.2212C32.8517 22.2794 31.5865 23.6983 30.789 25.0027C30.789 25.0027 32.1515 22.7455 32.8521 21.9283L32.8714 21.7341C32.8714 21.7341 32.8924 21.676 32.7939 21.676C32.6955 21.676 32.5982 21.6954 32.5982 21.6954L32.4816 21.8314C32.4816 21.8314 30.8281 24.0692 30.7696 24.1665C30.7115 24.2637 30.5384 24.0692 30.4589 24.0886C30.3798 24.1079 30.2825 24.1665 30.2825 24.1665C30.2825 24.1665 28.6658 26.6194 27.3829 31.2116C27.3829 31.2116 27.3845 29.7115 27.5786 27.7667C27.7727 25.8219 27.9668 24.7315 27.9668 24.7315L27.8115 24.654L28.0249 23.4275L27.8502 23.3109L27.7723 23.2528L27.5007 23.2915C27.5007 23.2915 27.4636 23.4259 27.4232 23.5244C27.3829 23.6233 27.441 23.6233 27.3437 23.7786C27.2465 23.934 27.1302 24.0099 27.0915 24.2056C27.0527 24.4013 26.8586 25.2961 26.8586 25.2961L26.859 25.2952Z" fill="white"/>
<path fill-rule="evenodd" clip-rule="evenodd" d="M33.1049 21.0369C33.1049 21.0369 32.9463 21.1031 32.8672 21.1559C32.7881 21.2088 32.7614 21.1878 32.7748 21.2673C32.7881 21.3468 32.8014 21.373 32.8539 21.373C32.9063 21.373 32.8805 21.3335 32.9596 21.3864C33.0387 21.4392 32.9991 21.4525 33.1049 21.4525C33.2106 21.4525 33.1973 21.4659 33.2239 21.413C33.2502 21.3601 33.2768 21.3282 33.2502 21.2358C33.2239 21.1434 33.2502 21.1434 33.2106 21.0905C33.1711 21.0377 33.1049 21.0377 33.1049 21.0377V21.0369Z" fill="white"/>
<path fill-rule="evenodd" clip-rule="evenodd" d="M11.5236 38.7031C11.5236 38.7031 17.6874 36.4645 30.7974 34.3248C30.7974 34.3248 31.1396 34.2719 31.1888 34.4301C31.2377 34.5883 31.4822 34.5092 31.2377 34.6206C30.9931 34.732 30.8954 34.738 30.8954 34.738L27.7645 35.3446C27.7645 35.3446 35.7871 34.0576 36.2763 34.0604C36.7654 34.0633 36.8634 34.0576 36.8634 34.0576L36.7165 34.2598C36.7165 34.2598 36.6677 34.2626 36.3251 34.3155C35.9825 34.3684 26.0034 36.159 20.8667 37.4339C15.7305 38.7088 14.7518 39.0252 14.7518 39.0252C14.7518 39.0252 14.4096 39.2713 14.1158 39.3533C13.8224 39.4352 13.3821 39.4941 13.3821 39.4941L12.7949 39.5615L12.5015 39.5147L12.2569 39.3682L11.8166 39.4267C11.8166 39.4267 11.4744 39.6083 11.2787 39.3303C11.0829 39.0522 11.5232 38.7031 11.5232 38.7031H11.5236Z" fill="white"/>
<path d="M25.2092 20.7646C24.7528 20.8562 24.2725 20.9547 23.7854 21.0576C23.8217 21.1367 23.8625 21.2057 23.9077 21.2642C24.128 21.5495 24.6462 21.2683 25.2092 20.7646ZM23.6074 20.1334C24.1442 20.0378 24.7039 19.9433 25.2875 19.8521C25.2875 19.8521 25.4868 19.8235 25.5155 19.9663C25.5438 20.1088 25.6866 20.0519 25.5438 20.1375C25.4013 20.223 25.3444 20.223 25.3444 20.223L23.6454 20.5681C23.9593 20.5269 24.8117 20.3982 25.7161 20.2666C26.2916 19.6528 26.8364 18.9158 27.0866 18.4154C27.6564 17.2757 27.8062 16.8859 27.8062 16.8859L27.9563 17.0957L27.8062 17.5457L27.2662 18.8953C27.2662 18.8953 28.5952 16.8584 29.0354 15.1166C29.6953 12.5075 28.6755 11.7278 28.3457 11.6378C28.016 11.5479 27.8958 11.6378 27.8958 11.6378C27.2662 11.608 25.9764 13.0774 25.3767 14.0371C24.777 14.9968 24.777 15.1166 24.777 15.1166C24.777 15.1166 26.2165 13.2271 26.4566 13.0475C26.6964 12.8675 26.8465 12.9277 26.8465 12.9277L26.9066 13.1375C26.9066 13.1375 26.2468 13.5572 24.8375 16.0767C23.9145 17.7265 23.5828 19.1576 23.6074 20.1342V20.1334ZM30.3079 20.759C30.9734 21.625 31.3217 21.3542 31.7216 21.0568C31.7216 21.0568 31.2704 21.1379 30.9036 21.0027C30.5367 20.8675 30.3079 20.759 30.3079 20.759ZM34.4663 16.3201C34.4558 16.4383 33.7613 18.2128 33.0203 19.0906C32.8238 19.2972 32.7003 19.4054 32.7003 19.4054C32.8064 19.3239 32.9138 19.2165 33.0203 19.0906C33.5845 18.4977 34.7516 17.0961 35.3344 15.1291C36.1201 12.4769 35.4688 11.4542 34.9946 11.3671C33.668 11.1233 32.0251 13.37 31.3677 14.9939C31.3677 14.9939 31.4553 15.2918 31.3862 15.3999C31.3172 15.5081 31.266 15.5351 31.2272 15.6707C31.1881 15.8059 29.9548 18.8101 31.1824 19.6221C32.4101 20.4341 34.0668 16.3742 34.1507 16.1578C34.2347 15.9415 34.4094 16.0497 34.4094 16.0497C34.4094 16.0497 34.4788 16.1849 34.4667 16.3205L34.4663 16.3201ZM35.3271 10.4744C36.8784 10.7427 37.4555 13.0455 36.0717 16.4016C34.3614 20.5507 32.5719 20.9216 32.5719 20.9216C32.5719 20.9216 31.7878 21.8958 30.8975 21.6795C30.0072 21.4632 29.8438 20.4886 29.8438 20.4886C28.8978 19.9058 28.8595 18.461 29.0802 17.0925C28.8853 17.6167 28.7356 17.965 28.7356 17.965C28.7356 17.965 29.0221 18.4812 27.9139 19.9615C28.2174 19.924 28.4261 19.9034 28.4793 19.9086C28.7642 19.9373 28.8216 19.9373 28.8216 19.9373L28.736 20.1084C28.736 20.1084 28.7073 20.1084 28.508 20.137C28.4644 20.1435 28.1512 20.1988 27.6573 20.2904C26.4546 21.7719 24.6789 23.1727 23.3374 22.3736C22.8866 22.1053 22.6078 21.7324 22.4367 21.3494C21.3615 21.5895 20.3244 21.8397 19.5007 22.075L19.0329 22.2094C18.9994 22.2744 18.9022 22.284 18.8053 22.3325C18.727 22.3716 18.7125 22.3595 18.6455 22.3216C16.396 22.9754 15.938 23.1586 15.938 23.1586C15.938 23.1586 15.7386 23.3579 15.5675 23.4153C15.3964 23.4722 15.1401 23.5008 15.1401 23.5008L14.7979 23.5295L14.6268 23.4726L14.4843 23.3301L14.2276 23.3584C14.2276 23.3584 14.0283 23.5008 13.9141 23.2445C13.7998 22.9879 14.0565 22.703 14.0565 22.703C14.0565 22.703 15.4803 22.0476 18.4417 21.2634L18.2952 21.0439V20.7739C18.2952 20.6242 18.3251 20.564 18.3251 20.564L18.2351 20.294C18.2351 20.294 18.2649 19.9639 19.1048 17.7749C19.5572 16.5957 20.2876 14.9298 20.8656 13.6428C20.5746 13.891 20.284 14.1339 20.2142 14.1759C20.0645 14.2659 20.0342 14.2659 19.8845 14.2659C19.7348 14.2659 19.7945 14.236 19.6444 14.236C19.4942 14.236 19.4644 14.326 19.3445 14.416C19.2246 14.506 19.0446 14.3862 19.0446 14.3862L18.9248 14.326L18.7448 14.236C18.7448 14.236 18.7149 14.146 18.7448 14.0262C18.7747 13.9063 19.0745 13.7562 19.7646 13.1863C20.3797 12.6783 21.4955 11.9078 21.73 11.7468L21.7441 11.7165L21.9241 11.5668L22.0743 11.7165L22.314 11.6867L22.404 11.8364L22.4338 12.1064L22.494 12.3764C22.494 12.3764 22.584 12.4062 22.764 12.5862C22.9439 12.7662 22.764 12.736 22.764 12.8562C22.764 12.9765 22.9141 12.9761 22.9141 12.9761C22.9141 12.9761 23.2139 13.0959 23.2438 13.2158C23.2737 13.3357 22.7038 14.0258 21.8043 15.795C21.1303 17.1208 19.985 19.7254 19.4276 21.012C20.2517 20.8098 21.1735 20.6032 22.1945 20.4002C22.1534 19.9809 22.1977 19.675 22.1977 19.675C22.1977 19.675 22.1977 19.2851 22.1679 19.135C22.138 18.9853 22.0178 19.135 22.0178 19.135C22.0178 19.135 21.9278 19.135 21.8378 18.9853C21.7478 18.8351 22.0779 17.126 23.1873 15.0266C24.2967 12.9273 25.5865 11.6976 25.7363 11.6677C25.886 11.6378 25.8561 11.6677 26.0062 11.6976C26.1564 11.7274 26.1261 11.9974 26.1261 11.9974C26.1261 11.9974 26.9195 11.2423 27.6258 11.0377C28.7655 10.7076 29.9951 11.8174 29.9649 13.4971C29.962 13.6517 29.9495 13.8159 29.9286 13.9862C29.9754 13.9168 30.042 13.9091 30.0722 13.8309C30.1142 13.7227 30.1864 13.6416 30.1864 13.6416L30.7426 13.2897C30.7426 13.2897 32.9812 10.0684 35.3271 10.4744Z" fill="white"/>
<path d="M1.5369 37.1596L1.68017 37.2246C1.68017 37.2246 1.7064 37.3029 1.7064 37.342V37.5244C1.7064 37.6415 1.64143 37.5894 1.57605 37.6285C1.51107 37.6677 1.47193 37.6415 1.38072 37.6285C1.28951 37.6156 1.32866 37.5894 1.31575 37.5373C1.30283 37.4853 1.30283 37.5244 1.31575 37.29C1.32866 37.0555 1.32866 37.2508 1.5369 37.1596ZM0.521519 29.7073C0.521519 29.8239 0.55663 29.8122 0.474705 29.8707C0.39278 29.9292 0.427891 29.9292 0.311259 29.9292C0.194627 29.9292 0.194223 29.9409 0.136109 29.9409C0.077995 29.9409 0.0424807 29.9643 0.0311808 29.8941C0.0194772 29.8239 -0.0390406 29.7541 0.0428843 29.719C0.124809 29.6838 0.101402 29.6956 0.20633 29.6721C0.311662 29.6487 0.369777 29.6253 0.416591 29.6136C0.463405 29.6019 0.626851 29.4619 0.626851 29.4619L0.533223 29.6253L0.521519 29.7073ZM3.95631 28.3755L3.78116 28.4808L7.07591 27.0086L7.59006 26.7515C5.6275 27.5461 3.95671 28.3755 3.95671 28.3755H3.95631ZM1.95863 28.2003C1.95863 28.2003 5.21787 26.4944 7.84673 25.408C10.4752 24.3216 11.5737 23.9358 11.5737 23.9358L11.7489 24.0875L11.9446 24.1105C11.9297 24.1089 11.8631 24.1045 11.8425 24.1461C11.8191 24.1929 11.8308 24.228 11.8308 24.228L11.7957 24.2865L11.3166 24.4499C11.3166 24.4499 11.6088 24.4382 11.6552 24.4382C11.7016 24.4382 11.784 24.5319 11.784 24.5319L11.8425 24.5553L12.1347 24.6138C12.1347 24.6138 11.9829 24.6372 11.9361 24.6489C11.8893 24.6606 11.8542 24.7074 11.8542 24.7074L11.8074 24.8362L10.2068 25.4669C10.2068 25.4669 10.6273 25.3616 10.6859 25.3616C10.7444 25.3616 10.8727 25.4201 10.8961 25.4786C10.9195 25.5372 10.9312 25.6421 10.8961 25.6889C10.861 25.7357 10.7791 25.7825 10.7327 25.8059C10.7101 25.8172 9.35972 26.358 7.65544 27.0695C7.6623 27.0925 7.66835 27.1127 7.67199 27.126C7.68369 27.1728 7.69539 27.2079 7.69539 27.2079L7.96417 27.1962L7.7305 27.2899L7.62517 27.3948C7.62517 27.3948 5.55728 30.5374 4.50597 32.2667C3.45467 33.9956 2.26293 36.3089 2.181 36.3791C2.09908 36.4493 2.14589 36.3908 2.06437 36.4493C2.01473 36.4848 1.9994 36.4945 1.98729 36.507C1.97962 36.5151 1.97276 36.5244 1.95904 36.5425C1.92393 36.5894 1.86541 36.6479 1.86541 36.6479L1.76008 36.7528L1.71326 36.9514C1.71326 36.9514 1.73667 36.7294 1.70156 36.6826C1.66645 36.6358 1.64304 36.5655 1.64304 36.5655C1.64304 36.5655 1.61964 36.5187 1.63134 36.4719C1.64304 36.4251 2.01675 35.6422 2.01675 35.6422C2.01675 35.6422 1.96993 35.7007 1.88841 35.6422C1.80649 35.5837 1.90012 35.4904 1.80649 35.4904C1.71286 35.4904 1.71286 35.5489 1.71286 35.4553C1.71286 35.3617 1.79479 35.1514 1.79479 35.1514C1.79479 35.1514 1.70116 35.0348 1.70116 34.9178C1.70116 34.8007 2.49538 33.1303 3.68713 31.261C4.87887 29.3917 5.77843 28.1535 5.77843 28.1535C5.77843 28.1535 5.87206 28.1418 5.91887 28.1067C5.96569 28.0716 5.82525 28.1067 5.9891 28.0131C6.15254 27.9194 6.18765 27.896 6.18765 27.896C6.18765 27.896 6.28128 27.8726 6.30469 27.8258C6.31881 27.7976 6.3846 27.6749 6.43383 27.5825C4.90147 28.2334 3.2767 28.9473 2.14549 29.5083H1.74837C1.68986 29.5083 1.60793 29.5551 1.56152 29.5785C1.51471 29.6019 1.43319 29.6253 1.43319 29.6253C1.43319 29.6253 1.39808 29.637 1.30485 29.637C1.21163 29.637 1.22293 29.6253 1.15311 29.6604C1.08289 29.6956 0.837515 29.8473 0.791105 29.6839C0.74429 29.5204 0.919844 29.3453 0.919844 29.3453L1.62085 29.0648C1.62085 29.0648 1.60914 28.9477 1.63255 28.8545C1.65596 28.7609 1.65596 28.7141 1.71447 28.6794C1.77299 28.6443 1.8081 28.6325 1.85451 28.6091C1.90133 28.5857 1.93644 28.574 1.87792 28.5272C1.8194 28.4804 1.78429 28.457 1.78429 28.457C1.78429 28.457 1.76089 28.4102 1.78429 28.3634C1.8077 28.3166 1.86622 28.2229 1.86622 28.2229L1.95985 28.1995L1.95863 28.2003Z" fill="white"/>
<path d="M46.7961 25.127L46.8655 25.0701L47.1738 24.6944C47.3316 24.3344 47.4277 23.7868 47.4277 23.7868C47.4277 23.7868 47.3934 24.2585 47.3833 24.4385L47.9414 23.7573C47.9414 23.7573 48.0467 23.6814 48.1856 23.6245C48.324 23.5676 48.3414 23.5866 48.4455 23.5866C48.5496 23.5866 48.688 23.6056 48.688 23.6056L48.7934 23.4728C48.7934 23.4728 48.9322 23.4538 49.0359 23.4538C49.1396 23.4538 49.209 23.4728 49.209 23.4728C49.209 23.4728 49.2958 23.4159 49.3475 23.2641C49.3995 23.1124 49.4701 23.1677 49.4701 23.1677C49.4701 23.1677 49.6433 23.1487 49.7474 23.1487C49.8515 23.1487 49.7994 23.2246 49.7994 23.359C49.7994 23.4934 49.5743 23.7763 49.0702 24.4232C48.5661 25.0697 46.9341 27.2183 46.8994 27.3511C46.8647 27.4839 46.83 27.408 46.7436 27.4459C46.6568 27.4839 46.6916 27.427 46.6383 27.408C46.5846 27.389 46.5862 27.2942 46.4825 27.2942C46.3788 27.2942 46.1532 27.2942 46.0495 27.2563C45.9454 27.2183 45.9441 27.1425 45.9441 27.1425L46.1362 26.6666C46.1362 26.6666 45.9615 26.8943 45.9268 26.9717C45.8921 27.0492 45.8574 27.0286 45.7706 27.0286C45.6838 27.0286 45.6665 27.0097 45.5628 26.9907C45.4586 26.9717 45.4243 26.9717 45.4243 26.9132C45.4243 26.8547 45.5285 26.7235 45.5285 26.7235L42.9924 27.7325C42.9924 27.7325 45.8925 27.7514 47.282 27.9222C48.6715 28.0929 48.3422 28.5497 48.3422 28.5497C48.3422 28.5497 48.5847 28.5876 48.6541 28.6066C48.7235 28.6256 48.7062 28.6445 48.7595 28.7204C48.8131 28.7963 48.8115 28.7963 48.8462 28.9101C48.8809 29.0239 48.8636 29.0429 48.8809 29.1567C48.8983 29.2705 48.985 29.2721 49.0024 29.3669C49.0198 29.4618 48.933 29.5566 48.933 29.5566L47.5261 30.0514V30.1273L47.5782 30.2411L47.6129 30.3738C47.6129 30.3738 47.6129 30.4308 47.5088 30.5446C47.4047 30.6584 46.3618 30.9066 46.3618 30.9066L46.3271 31.1531C46.3271 31.1531 45.4243 31.4203 43.5828 32.2948C41.7414 33.1694 39.7957 34.2332 39.692 34.3091C39.5879 34.3849 39.5189 34.3676 39.5189 34.3676C39.5189 34.3676 39.4148 34.3676 39.3284 34.366C39.2416 34.3644 39.2416 34.2142 39.2416 34.2142C39.2416 34.2142 39.0322 34.2901 38.9454 34.2901C38.8586 34.2901 38.8239 34.2142 38.8239 34.2142C38.8239 34.2142 38.7372 34.1194 38.6855 34.0435C38.6335 33.9676 38.6855 33.9107 38.6682 33.8349C38.6508 33.759 38.5455 33.8349 38.4761 33.8349C38.4066 33.8349 38.3893 33.5108 38.4066 33.3401C38.424 33.1694 38.5987 33.0745 38.7723 33.0176C38.9454 32.9607 41.1683 30.6604 41.2736 30.507C41.3789 30.3537 41.4294 30.3363 41.4294 30.3363C41.4294 30.3363 41.5162 30.2984 41.6199 30.2984C41.7236 30.2984 41.7757 30.5829 41.7757 30.5829C41.7757 30.5829 41.8451 30.4881 41.9678 30.3743C42.0904 30.2604 42.0372 30.3173 42.1235 30.2415C42.2103 30.1656 42.2277 30.2225 42.2277 30.2225L42.3491 30.2604C42.3491 30.2604 42.3665 30.2794 42.4185 30.3553C42.4706 30.4312 42.4359 30.4122 42.4359 30.526C42.4359 30.6398 41.3773 31.7815 41.3773 31.7815L47.1254 28.9101C44.5894 28.605 41.2022 28.8911 41.2022 28.8911L40.8555 28.986L40.6993 28.948L40.3858 29.0429C40.3858 29.0429 40.3163 29.0998 40.2469 29.1187C40.1775 29.1377 40.1081 29.1377 40.0391 29.1377C39.9701 29.1377 39.8991 29.1377 39.8296 29.1187C39.7602 29.0998 39.6392 29.0808 39.5524 29.0429C39.4656 29.0049 39.483 28.967 39.483 28.8911C39.483 28.8153 39.4656 28.7394 39.4656 28.7394C39.4656 28.7394 39.4483 28.6635 39.4483 28.5876C39.4483 28.5118 39.483 28.4549 39.5524 28.3774C39.6218 28.2999 39.9523 28.0929 39.9523 28.0929C39.9523 28.0929 39.7602 27.6171 41.6364 26.8374C43.5126 26.0577 46.7953 25.1266 46.7953 25.1266L46.7961 25.127ZM49.8959 22.8259C49.837 22.8259 49.766 22.9033 49.7191 22.8259C49.6719 22.7484 49.6602 22.7613 49.6719 22.6838C49.6836 22.6063 49.7191 22.5676 49.7664 22.5547C49.8136 22.5417 49.7781 22.5417 49.8725 22.5417C49.9669 22.5417 49.9903 22.5676 49.9903 22.6321C49.9903 22.6967 50.0259 22.7096 49.9669 22.7484C49.908 22.7871 49.8608 22.8259 49.8608 22.8259H49.8963H49.8959Z" fill="white"/>
</g>
<defs>
<clipPath id="clip0_2923_35817">
<rect width="50" height="29.1225" fill="white" transform="translate(0 10.4387)"/>
</clipPath>
</defs>
</svg>
