<svg width="50" height="50" viewBox="0 0 50 50" fill="none" xmlns="http://www.w3.org/2000/svg">
<g clip-path="url(#clip0_2923_20045)">
<path d="M19.7699 8.08158L18.2679 5.9158C12.6664 7.89979 8.18773 12.2843 6.08014 17.8289H8.8168C10.878 13.1933 14.8741 9.60129 19.7699 8.08158ZM38.9906 35.8267C35.7498 40.0072 30.6884 42.7034 25 42.7034C17.7899 42.7034 11.5776 38.3685 8.8168 32.17H6.08014C8.98093 39.7973 16.3637 45.2373 25 45.2373C31.2162 45.2373 36.7823 42.4202 40.4959 37.9958L38.9906 35.8274V35.8267ZM5.20912 23.3925L0 30.906H14.4196L16.5239 27.8672L18.6249 24.8317L20.7325 21.7949L22.9742 24.8317H22.9794L27.1808 30.906H30.6211L33.1021 27.3251L31.3247 24.7618L28.9013 28.2563L26.5276 24.8324H26.5256L22.6086 19.0956H19.0533L16.8999 22.1951L14.7485 19.0956H0L2.08797 22.133H13.3033L15.1239 24.7605L12.9692 27.8679H5.65771L8.76187 23.3931H5.20847L5.20912 23.3925ZM37.8757 34.1985L38.2955 34.802C38.9128 33.9637 39.4608 33.0711 39.9146 32.1256H39.1404C38.7735 32.8507 38.3478 33.5393 37.8763 34.1985H37.8757ZM25.002 9.15859C31.1723 9.15859 36.5279 12.71 39.1404 17.876H39.9146C37.2473 12.3157 31.566 8.4687 25.002 8.4687C23.4299 8.4687 21.9148 8.69496 20.4768 9.10562L20.8947 9.70919C22.2045 9.35738 23.5803 9.15924 25.002 9.15924V9.15859Z" fill="white"/>
<path d="M25.0005 7.29295C32.212 7.29295 38.4248 11.6311 41.1824 17.8289H43.9223C41.0202 10.199 33.6336 4.76294 25.0005 4.76294C22.6425 4.76294 20.378 5.16968 18.2684 5.9158L19.7705 8.08158C21.4242 7.57218 23.1813 7.29295 25.0005 7.29295ZM38.9911 35.8267L40.4965 37.9951C41.941 36.274 43.1102 34.3083 43.9223 32.17H41.1824C40.6011 33.4785 39.8615 34.7053 38.9911 35.8267ZM44.7934 23.3918H41.24L44.3395 27.8666H37.0313L34.8812 24.7611L36.7031 22.1324H47.8949L50.0005 19.0949H35.2533L31.3259 24.7618L33.1032 27.3251L35.5829 30.906H50.0005L47.2789 26.9766L44.7934 23.3918ZM25.0025 40.8384C18.8308 40.8384 13.4726 37.2863 10.8608 32.1249H10.0879C12.7513 37.6826 18.4345 41.5296 25.0025 41.5296C30.447 41.5296 35.2808 38.8753 38.296 34.8014L37.8762 34.1978C35.0003 38.2116 30.3058 40.8384 25.0018 40.8384H25.0025ZM20.8952 9.70853L20.4774 9.10497C15.8927 10.4115 12.1163 13.6464 10.0879 17.8753H10.8608C12.8736 13.8995 16.512 10.8862 20.8959 9.70788L20.8952 9.70853Z" fill="white"/>
</g>
<defs>
<clipPath id="clip0_2923_20045">
<rect width="50" height="40.4744" fill="white" transform="translate(0 4.76294)"/>
</clipPath>
</defs>
</svg>
