<svg width="50" height="50" viewBox="0 0 50 50" fill="none" xmlns="http://www.w3.org/2000/svg">
<g clip-path="url(#clip0_2923_20086)">
<path d="M42.4007 15.5641V18.107L39.0837 21.4244L37.2056 23.3025L30.8488 29.6589L29.5776 30.9305L23.2208 37.2868L21.3422 39.165L18.0252 42.4824H15.4824L20.071 37.8938L21.9496 36.0157L28.306 29.6589L29.5776 28.3877L35.9339 22.0309L37.8121 20.1523L42.4007 15.5641Z" fill="white"/>
<path d="M42.3999 7.51215V8.78332L34.4209 16.7623L32.5428 18.6405L26.1864 24.9973L24.9148 26.2685L18.5585 32.6253L16.6803 34.5039L8.70132 42.4824H7.42969V41.2108L15.4082 33.2318L17.2868 31.3536L23.6436 24.9973L24.9148 23.7256L31.2716 17.3693L33.1498 15.4911L41.1279 7.51215H42.3999Z" fill="white"/>
<path d="M42.4002 10.9026V13.4449L34.8736 20.9711L28.5177 27.3283L27.2456 28.5991L20.8893 34.9563L19.0111 36.8345L13.3627 42.4824H10.8203L17.7399 35.5633L19.6181 33.6851L25.9744 27.3283L27.2465 26.0571L33.6028 19.6999L35.481 17.8217L42.4002 10.9026Z" fill="white"/>
<path d="M39.0095 7.51215L32.0904 14.4313L30.2122 16.3099L23.8559 22.6667L22.5842 23.9379L16.2279 30.2947L14.3493 32.1728L7.42969 39.092V36.5496L13.0781 30.9012L14.9558 29.0231L21.3131 22.6667L22.5842 21.3951L28.941 15.0387L30.8192 13.1601L36.4667 7.51215H39.0095Z" fill="white"/>
<path d="M34.3479 7.51215L29.7598 12.1007L27.8812 13.9789L21.5249 20.3357L20.2532 21.6069L13.8969 27.9641L12.0187 29.8418L7.42969 34.4304V31.8885L10.7476 28.5706L12.6253 26.692L18.9821 20.3357L20.2532 19.0641L26.61 12.7077L28.4886 10.8296L31.8051 7.51215H34.3479Z" fill="white"/>
<path d="M20.7693 7.5H7.41406V20.9278L28.9863 42.5H42.4141V29.1447L20.7693 7.5Z" fill="white"/>
</g>
<defs>
<clipPath id="clip0_2923_20086">
<rect width="35" height="35" fill="white" transform="translate(7.41406 7.5)"/>
</clipPath>
</defs>
</svg>
