<svg width="50" height="50" viewBox="0 0 50 50" fill="none" xmlns="http://www.w3.org/2000/svg">
<g clip-path="url(#clip0_2923_20058)">
<path d="M2.76033 5.57971H22.2261C22.4167 5.57971 22.5724 5.73541 22.5724 5.92598V11.9882C22.5724 12.18 22.4167 12.3357 22.2249 12.3357H9.51257C9.32076 12.3357 9.16506 12.4914 9.16506 12.6832V21.1207C9.16506 21.2129 9.20118 21.3001 9.26595 21.3661L15.2372 27.361C15.4552 27.5802 15.8301 27.4258 15.8301 27.1156V21.4072C15.8301 21.3163 15.794 21.2278 15.7292 21.1631L12.213 17.6094C11.9962 17.3902 12.1519 17.0178 12.4596 17.0178H22.2211C22.413 17.0178 22.5711 17.176 22.5711 17.369C22.5711 34.4869 22.5711 35.3937 22.5711 43.313C22.5711 43.6232 22.1975 43.7789 21.977 43.5609L2.5162 24.1873C2.45143 24.1225 2.41406 24.0329 2.41406 23.9407V5.92598C2.41406 5.73541 2.56851 5.57971 2.76033 5.57971Z" fill="white"/>
<path d="M47.0679 5.5H27.6021C27.4103 5.5 27.2559 5.6557 27.2559 5.84627V11.9072C27.2559 12.099 27.4116 12.2547 27.6034 12.2547H40.3157C40.5075 12.2547 40.6632 12.4104 40.6632 12.6022V21.041C40.6632 21.1332 40.6271 21.2204 40.5623 21.2864L34.591 27.2813C34.3731 27.5005 33.9981 27.3461 33.9981 27.0359V21.3275C33.9981 21.2353 34.0343 21.1481 34.099 21.0833L37.614 17.5285C37.8308 17.3093 37.6763 16.9368 37.3674 16.9368H27.6059C27.414 16.9368 27.2559 17.095 27.2559 17.2881C27.2559 34.406 27.2559 35.3127 27.2559 43.2321C27.2559 43.5422 27.6295 43.6979 27.85 43.48L47.3133 24.1076C47.3781 24.0428 47.4154 23.9544 47.4154 23.8622V5.84627C47.4154 5.6557 47.261 5.5 47.0692 5.5" fill="white"/>
</g>
<defs>
<clipPath id="clip0_2923_20058">
<rect width="45" height="38.1618" fill="white" transform="translate(2.41406 5.5)"/>
</clipPath>
</defs>
</svg>
