<svg width="50" height="50" viewBox="0 0 50 50" fill="none" xmlns="http://www.w3.org/2000/svg">
<g clip-path="url(#clip0_2923_20152)">
<path fill-rule="evenodd" clip-rule="evenodd" d="M2.44922 22.073C2.44922 21.5165 2.5943 21.0714 2.8948 20.7377C3.19444 20.4047 3.6449 20.2371 4.24044 20.2371H8.55935C8.73215 21.1309 8.90481 22.0216 9.07761 22.9108C7.97285 22.9305 6.86824 22.9525 5.76349 22.9757C5.58163 22.9795 5.49071 23.0756 5.49071 23.2646V31.9978C5.49071 32.1868 5.58149 32.2734 5.76349 32.2564C6.22257 32.2131 6.68179 32.1717 7.14102 32.1324V26.395C8.11851 26.3542 9.10045 26.3134 10.0824 26.2771V34.4975C8.32305 34.6564 6.56286 34.8337 4.80424 35.0464C3.92615 35.1527 3.31625 35.0645 2.96763 34.7501C2.62073 34.437 2.44936 33.8578 2.44936 33.0246V22.073H2.44922ZM11.9235 20.2371H14.5648V29.8867C15.424 29.8566 16.2878 29.8277 17.1515 29.8021C17.0015 30.5371 16.856 31.269 16.7105 32.0039C15.1148 32.069 13.519 32.1446 11.9233 32.2352V20.2371H11.9235ZM20.7703 22.2802C20.6159 22.2806 20.5384 22.3559 20.5384 22.507V29.6175C20.5384 29.7021 20.5542 29.7625 20.584 29.8006C20.6134 29.8382 20.6795 29.8564 20.7841 29.855C21.1067 29.8504 21.4342 29.849 21.7614 29.8444C21.866 29.8429 21.9352 29.824 21.9659 29.7839C21.9942 29.747 22.0115 29.684 22.0115 29.5994V22.5025C22.0115 22.3528 21.9341 22.2767 21.7796 22.2773C21.4432 22.2783 21.1067 22.2793 20.7704 22.2803L20.7703 22.2802ZM24.6163 30.2104C24.6163 30.4342 24.5843 30.6444 24.5254 30.8425C24.466 31.042 24.3674 31.2156 24.2253 31.3673C24.0855 31.5165 23.8929 31.6352 23.6571 31.7273C23.4202 31.8198 23.1251 31.8669 22.7705 31.8709C21.7749 31.882 20.7838 31.8963 19.7928 31.9163C19.4381 31.9235 19.1424 31.8867 18.9062 31.8014C18.6696 31.7159 18.4822 31.5998 18.338 31.4522C18.1959 31.3066 18.0972 31.133 18.0379 30.9334C17.979 30.7353 17.9516 30.5252 17.9516 30.2983V21.76C17.9516 21.2942 18.0876 20.9248 18.3653 20.6499C18.6422 20.3759 19.0835 20.2371 19.6882 20.2371H22.8797C23.4798 20.2371 23.9212 20.3744 24.198 20.6469C24.4757 20.9203 24.6163 21.2851 24.6163 21.7463V30.2104ZM28.2305 22.2771V25.3272C28.6305 25.3288 29.0307 25.331 29.4352 25.3333C29.5307 25.3339 29.6083 25.311 29.6671 25.2638C29.7265 25.2159 29.758 25.1382 29.758 25.0309V22.507C29.758 22.3557 29.6806 22.2804 29.5261 22.2802C29.0942 22.2792 28.6624 22.2771 28.2305 22.2771ZM29.7899 27.4459C29.7899 27.3157 29.7584 27.2261 29.6853 27.1767C29.6129 27.1278 29.5216 27.1036 29.4035 27.1025C29.0126 27.0991 28.6215 27.0965 28.2306 27.0935V29.8382C28.6626 29.8428 29.0945 29.8472 29.5263 29.8533C29.6309 29.8547 29.7028 29.8359 29.7399 29.7988C29.7755 29.7633 29.7899 29.702 29.7899 29.6174V27.4459ZM32.222 24.8766C32.222 25.1669 32.1594 25.4186 32.0356 25.6252C31.9093 25.8359 31.6765 25.979 31.3355 26.0622C31.6901 26.0879 31.9447 26.2044 32.1038 26.4116C32.263 26.6187 32.3447 26.8517 32.3447 27.1087V30.1483C32.3447 30.7955 32.195 31.2558 31.8991 31.529C31.6041 31.8017 31.0854 31.9228 30.3397 31.9086C28.7851 31.879 27.2302 31.8662 25.6798 31.8587V20.2371H30.6942C31.2035 20.2371 31.5853 20.3672 31.8399 20.6258C32.0945 20.8844 32.2219 21.2308 32.2219 21.6601V24.8766H32.222ZM35.6953 30.6171C35.618 31.1041 35.5408 31.5909 35.4635 32.0764C34.5998 32.0386 33.736 32.0054 32.8768 31.9781C33.2632 30.0318 33.6504 28.0811 34.0361 26.1303C34.4232 24.1721 34.8089 22.206 35.1999 20.2371H37.9458C38.3322 22.2362 38.7194 24.2445 39.1051 26.2589C39.4922 28.2805 39.8779 30.3147 40.2689 32.3578C39.4052 32.2957 38.5414 32.2413 37.6822 32.1898C37.6049 31.6938 37.5276 31.1933 37.4503 30.6942C36.8638 30.6669 36.2775 30.6412 35.6956 30.6171H35.6953ZM35.9771 28.7464C36.3726 28.7601 36.7682 28.7751 37.1682 28.7902C37.0683 28.0824 36.9681 27.3762 36.8728 26.67C36.7772 25.9638 36.6773 25.2576 36.5817 24.5528C36.4772 25.253 36.3773 25.9532 36.2771 26.6533C36.1772 27.3505 36.077 28.0492 35.977 28.7463L35.9771 28.7464ZM41.7553 20.2369H44.8649V32.22C45.8787 32.3213 46.8924 32.4318 47.9108 32.5437C47.7336 33.4616 47.5608 34.3764 47.388 35.2884C45.5104 35.0388 43.6329 34.8196 41.7553 34.629V20.2371V20.2369Z" fill="white"/>
<path d="M24.4675 11.8307H31.5563C31.5563 11.8307 31.7322 13.4146 30.0229 13.49H27.7102L28.3135 14.3447H31.506C31.506 14.3447 31.8139 16.0857 30.2428 16.3371H27.1321L24.3418 11.8307H24.4675Z" fill="white"/>
<path d="M22.5049 13.2738L20.0917 13.287L18.9973 17.1222L21.5082 17.112V16.1317L20.5238 16.1367L20.9814 14.3292H22.3687L23.5068 16.0936V18.8265H16.5117L18.5104 11.8307H23.5104L26.8658 17.0324L33.4268 17.0449L32.126 18.8236H25.9485L22.5049 13.2738Z" fill="white"/>
<path fill-rule="evenodd" clip-rule="evenodd" d="M12.913 33.4056C13.5326 33.3727 14.1571 33.3426 14.7815 33.3133C14.8369 33.5854 14.8925 33.8564 14.9479 34.1273C14.5965 34.1455 14.245 34.1638 13.8981 34.1815V35.2329C14.1616 35.2181 14.4254 35.2034 14.6936 35.1882V35.9494C14.4254 35.9658 14.1616 35.9817 13.8981 35.9976V36.9644C14.231 36.9425 14.5687 36.9203 14.9064 36.8984C14.851 37.1765 14.7954 37.4534 14.74 37.7308C14.1295 37.7731 13.519 37.8165 12.9131 37.8642V33.4056H12.913ZM16.9229 37.6015C16.8627 37.3334 16.8073 37.0648 16.7518 36.7957C17.0941 36.7792 17.4364 36.7637 17.7832 36.7474C17.8617 36.7438 17.8988 36.7117 17.8988 36.651V35.8582C17.8988 35.7977 17.8849 35.7627 17.8573 35.7518C17.8294 35.7408 17.7833 35.7367 17.7185 35.7394C17.552 35.7466 17.3854 35.7536 17.2237 35.7605C17.1496 35.7635 17.0848 35.7621 17.0201 35.7548C16.9554 35.7476 16.9001 35.7269 16.8491 35.6924C16.7984 35.6581 16.7567 35.61 16.7288 35.5466C16.7012 35.4838 16.6872 35.3974 16.6872 35.2892V33.8039C16.6872 33.6305 16.7369 33.49 16.8399 33.3847C16.945 33.2773 17.1082 33.2207 17.3347 33.2132C17.7741 33.1986 18.2181 33.1843 18.6621 33.1721C18.713 33.4413 18.7686 33.7094 18.824 33.9773C18.4586 33.9885 18.0977 33.9996 17.7371 34.0127C17.6585 34.0154 17.6214 34.0491 17.6214 34.1132V34.9072C17.6214 34.9513 17.6299 34.9826 17.6537 34.9966C17.6807 35.0125 17.7185 35.0172 17.7648 35.0154C17.9636 35.0073 18.1625 35.0001 18.3661 34.9935C18.5232 34.9884 18.6388 35.018 18.7222 35.0812C18.8052 35.1442 18.847 35.2574 18.847 35.4215V36.8537C18.847 37.0935 18.7924 37.2668 18.6851 37.3698C18.5751 37.4752 18.3845 37.5308 18.1117 37.5431C17.7138 37.5612 17.3162 37.5814 16.923 37.6013L16.9229 37.6015ZM21.6035 33.8628V35.5595C21.7608 35.5561 21.9182 35.5532 22.0799 35.5495C22.1216 35.5485 22.1492 35.5406 22.1585 35.5266C22.1677 35.513 22.1771 35.4902 22.1771 35.4586V33.9358C22.1771 33.8805 22.1447 33.8531 22.0891 33.8541C21.9273 33.8571 21.7654 33.8599 21.6035 33.863V33.8628ZM22.5379 33.0917C22.7273 33.0891 22.8717 33.1349 22.9679 33.2304C23.0613 33.3231 23.1114 33.4498 23.1114 33.6084V35.6696C23.1114 35.7523 23.0974 35.8289 23.0791 35.8981C23.0606 35.968 23.0221 36.0277 22.9679 36.0809C22.9157 36.1323 22.8477 36.175 22.7598 36.2061C22.6719 36.2372 22.5609 36.2531 22.4268 36.2556C22.1493 36.2606 21.8764 36.2678 21.6035 36.2744V37.4229C21.2845 37.4304 20.9653 37.4387 20.6507 37.4482V33.1236C21.2797 33.1118 21.9087 33.1007 22.5377 33.0918L22.5379 33.0917ZM25.9465 33.8187C25.8911 33.8187 25.8632 33.8469 25.8632 33.9022V36.5223C25.8632 36.5535 25.8662 36.5778 25.8771 36.5906C25.8895 36.6054 25.9141 36.6107 25.9559 36.6105C26.0759 36.6101 26.1963 36.6098 26.3211 36.6094C26.3581 36.6094 26.3845 36.6018 26.3951 36.5888C26.4076 36.5735 26.4136 36.5518 26.4136 36.5206V33.9005C26.4136 33.8457 26.3858 33.8173 26.3257 33.8176C26.1962 33.8179 26.0712 33.8184 25.9464 33.8189L25.9465 33.8187ZM27.385 36.7526C27.385 36.8362 27.3758 36.9132 27.3526 36.9866C27.3297 37.0595 27.2937 37.1247 27.2416 37.1788C27.1873 37.2351 27.1169 37.2784 27.0289 37.3117C26.9411 37.3449 26.8298 37.3603 26.6958 37.3604C26.3257 37.3613 25.9557 37.3627 25.5858 37.3639C25.4517 37.3643 25.3408 37.3482 25.2527 37.3152C25.1651 37.282 25.0943 37.2397 25.04 37.1836C24.9881 37.13 24.9519 37.0655 24.929 36.9925C24.9058 36.9191 24.8966 36.8415 24.8966 36.7586V33.6271C24.8966 33.4573 24.9462 33.3205 25.0493 33.2198C25.1542 33.1172 25.3177 33.067 25.5442 33.0664C25.9419 33.0654 26.3397 33.0642 26.7374 33.0647C26.9641 33.0648 27.1271 33.1154 27.2323 33.2175C27.3351 33.3175 27.385 33.4544 27.385 33.6242V36.7527V36.7526ZM30.1508 33.8393V35.3232C30.3081 35.3255 30.4654 35.3288 30.6225 35.3308C30.6873 35.3316 30.7152 35.302 30.7152 35.2434V33.9357C30.7152 33.8762 30.6873 33.8463 30.6225 33.8456C30.4654 33.8436 30.3081 33.8414 30.1508 33.8393ZM31.6632 35.6658C31.6632 35.7605 31.6272 35.8484 31.5568 35.9246C31.4838 36.0036 31.3765 36.0402 31.233 36.0368C31.3163 36.2678 31.3996 36.4988 31.4828 36.7292C31.5663 36.9608 31.6494 37.1918 31.7372 37.4228C31.4042 37.4144 31.0713 37.4062 30.7428 37.3998C30.6642 37.1699 30.5807 36.9396 30.5069 36.7098C30.4329 36.4801 30.3543 36.2502 30.2802 36.0202C30.234 36.0197 30.1923 36.0191 30.1507 36.018V37.3891C29.8316 37.3838 29.5125 37.3785 29.1933 37.3756V33.075C29.7992 33.0809 30.4052 33.0874 31.0157 33.095C31.2376 33.0979 31.4031 33.1539 31.5058 33.2554C31.6111 33.3595 31.6631 33.4952 31.6631 33.6657V35.6658H31.6632ZM35.3633 33.1932C35.4419 33.4665 35.5206 33.7404 35.6039 34.0137C35.3864 34.0059 35.1737 33.999 34.961 33.9924V37.5324C34.6326 37.5181 34.3042 37.5046 33.9805 37.4913V33.9618C33.763 33.9566 33.5502 33.9512 33.3377 33.946C33.421 33.6792 33.5041 33.4117 33.5875 33.1443C34.1794 33.1596 34.7714 33.176 35.3634 33.1931L35.3633 33.1932ZM37.5001 37.6631C37.4401 37.3874 37.3845 37.1117 37.3291 36.8362C37.6712 36.8556 38.0183 36.8741 38.365 36.895C38.439 36.8994 38.476 36.8716 38.476 36.8109V36.0075C38.476 35.947 38.4618 35.9106 38.4345 35.8957C38.411 35.8831 38.365 35.8724 38.2958 35.8687C38.1293 35.8596 37.9627 35.8507 37.8008 35.8428C37.7269 35.8392 37.6622 35.8309 37.5974 35.8175C37.5326 35.804 37.4771 35.778 37.4262 35.7388C37.3755 35.6999 37.3337 35.6476 37.3059 35.5812C37.2783 35.5154 37.2644 35.428 37.2644 35.3191V33.8304C37.2644 33.6568 37.3135 33.5193 37.417 33.4212C37.5217 33.322 37.6853 33.2773 37.9118 33.2866C38.3512 33.3049 38.7952 33.326 39.2392 33.3471C39.2947 33.6251 39.3503 33.9025 39.4057 34.1812C39.0404 34.1622 38.6796 34.1434 38.3189 34.1253C38.2357 34.1211 38.1985 34.1517 38.1985 34.2164V35.0187C38.1985 35.0634 38.2084 35.0932 38.2356 35.1122C38.2591 35.1284 38.2958 35.1395 38.3419 35.1422C38.5407 35.1536 38.7444 35.1643 38.9478 35.1757C39.1003 35.1843 39.2197 35.2263 39.2993 35.2968C39.3814 35.3696 39.4241 35.4884 39.4241 35.6554V37.1166C39.4241 37.3617 39.3694 37.5325 39.2622 37.6256C39.152 37.7211 38.9615 37.7573 38.6886 37.7385C38.2909 37.7111 37.8931 37.6862 37.5 37.6634L37.5001 37.6631ZM9.44141 36.3304C9.44141 36.2474 9.44141 36.1643 9.44141 36.0813C10.2691 36.0167 11.0966 35.9437 11.9246 35.8621V36.1195C11.0966 36.198 10.2691 36.2681 9.44141 36.3303V36.3304ZM40.2698 36.3304C41.0975 36.3926 41.925 36.4627 42.753 36.5411V36.7986C41.925 36.717 41.0975 36.6441 40.2698 36.5794V36.3303V36.3304Z" fill="white"/>
<path d="M47.3407 39.9936C47.2253 39.9936 47.1086 39.9867 46.9908 39.9728C44.204 39.6421 40.729 39.3643 36.9414 39.1695C33.1645 38.9751 29.056 38.8621 25.0599 38.8425C24.6237 38.8404 24.1888 38.8394 23.7579 38.8394C15.4383 38.8394 8.12371 39.2348 3.04982 39.963C2.9237 39.9811 2.79715 39.99 2.67132 39.99C2.03412 39.99 1.41344 39.7612 0.924628 39.3376C0.336986 38.8282 0 38.0901 0 37.3124V20.9309C0 19.3806 1.26118 18.1193 2.81137 18.1193H14.3963C14.9884 16.2821 16.7576 10.3063 16.7763 10.2432L16.8464 10.0066H32.9215L33.0042 10.2152C33.0292 10.2781 35.4033 16.266 36.0978 18.1193H47.1886C48.7388 18.1193 50 19.3806 50 20.9309V37.2946C50 38.0988 49.6844 38.8223 49.1113 39.3314C48.6242 39.7641 48.0054 39.9935 47.3409 39.9935L47.3407 39.9936ZM23.7594 38.1784C24.1914 38.1784 24.626 38.1794 25.0632 38.1816C29.0694 38.2011 33.1885 38.3146 36.9755 38.5094C40.7774 38.705 44.2677 38.9842 47.0687 39.3164C47.674 39.3883 48.2437 39.2182 48.6723 38.8374C49.1024 38.4552 49.3392 37.9073 49.3392 37.2946V20.9309C49.3392 19.7449 48.3744 18.7801 47.1886 18.7801H35.6373L35.5579 18.5635C35.0531 17.1872 32.9206 11.7986 32.4726 10.6674H17.3397C16.9857 11.8609 15.3978 17.2065 14.9493 18.554L14.8741 18.7801H2.81137C1.62546 18.7801 0.660756 19.7449 0.660756 20.9309V37.3124C0.660756 37.8983 0.914716 38.4544 1.35742 38.8381C1.79783 39.2198 2.38045 39.3914 2.95602 39.3088C8.05993 38.5763 15.4088 38.1784 23.7594 38.1784Z" fill="white"/>
</g>
<defs>
<clipPath id="clip0_2923_20152">
<rect width="50" height="29.987" fill="white" transform="translate(0 10.0066)"/>
</clipPath>
</defs>
</svg>
