<svg width="50" height="50" viewBox="0 0 50 50" fill="none" xmlns="http://www.w3.org/2000/svg">
<g clip-path="url(#clip0_2923_35938)">
<g clip-path="url(#clip1_2923_35938)">
<path d="M36.4362 14.4039C36.4811 14.4272 36.5252 14.4505 36.5694 14.4745L36.6168 14.4998C36.724 14.5582 36.8319 14.6185 36.932 14.6762C36.9397 14.6813 36.9482 14.6859 36.9566 14.6911C36.9612 14.6937 36.9651 14.6956 36.9696 14.6982L36.9742 14.7008C37.889 15.2311 38.7531 15.8587 39.5419 16.5654L39.6919 16.6996L39.753 16.5077C39.8212 16.2931 39.8849 16.0765 39.9421 15.8639C40.1292 15.1818 40.278 14.4881 40.3832 13.8016L40.3845 13.7925C40.4372 13.4593 40.4807 13.1137 40.5138 12.7655L40.5197 12.7066L40.4787 12.6638C40.3832 12.5633 40.2825 12.4602 40.1708 12.3487C38.6076 10.7895 36.8014 9.53495 34.8028 8.61822L34.5371 8.49634L36.3875 14.3779L36.4356 14.4026L36.4362 14.4039Z" fill="white"/>
<path d="M20.6369 44.9333L21.156 44.8471L20.6563 44.6824C19.9456 44.4477 19.2406 44.1715 18.5604 43.861C16.9439 43.1225 15.4261 42.174 14.0494 41.0414C13.4296 40.5318 12.8312 39.9775 12.2711 39.3934C11.7611 38.8631 11.2745 38.2984 10.8236 37.7149C10.4604 37.2435 10.118 36.7579 9.80483 36.2711C9.73986 36.1706 9.66384 36.0513 9.59107 35.9313C8.02006 33.3815 7.04809 30.5814 6.70244 27.6082C6.62253 26.9333 6.57705 26.2441 6.566 25.5588C6.56406 25.4434 6.56276 25.3267 6.56276 25.2113C6.56276 23.8887 6.6901 22.5655 6.94024 21.2786C7.10592 20.426 7.32747 19.5793 7.5997 18.7624L7.6062 18.7417C7.67507 18.5355 7.74069 18.3488 7.80566 18.1725L10.6475 17.9209L7.90247 14.0128L2.34092 14.5062L2.30908 14.5743C1.7055 15.869 1.21107 17.2317 0.83878 18.6243C0.281976 20.7106 0 22.8741 0 25.0531C0 27.2321 0.306665 29.5843 0.912198 31.7503C1.4664 33.7426 2.27205 35.6636 3.30639 37.4588C3.36682 37.5645 3.42919 37.6701 3.49221 37.7765C4.01978 38.6634 4.60712 39.5237 5.23474 40.3289C5.23864 40.3341 5.24189 40.3393 5.24579 40.3438L5.25423 40.3548C5.38872 40.5286 5.52841 40.703 5.67005 40.8722C7.13191 42.598 9.05181 43.8376 11.2225 44.4587L11.2439 44.4646C11.3537 44.4944 11.4648 44.5229 11.5759 44.5521L11.5876 44.5547C11.6617 44.5735 11.7364 44.5916 11.8079 44.6072C11.856 44.6195 11.906 44.6318 11.9541 44.6429C13.6031 45.0319 15.3066 45.2296 17.0166 45.2296C18.231 45.2296 19.4492 45.1297 20.6369 44.9327V44.9333Z" fill="white"/>
<path d="M45.138 29.5876L45.2549 28.9931C45.4843 27.8267 45.5999 26.626 45.5999 25.4247C45.5999 24.8315 45.5713 24.2324 45.5154 23.6444V23.6373C45.3647 22.0826 45.0178 20.5512 44.4824 19.086C44.2323 18.4008 43.936 17.722 43.6027 17.0678L43.4214 16.7125L43.3584 17.1061C43.3207 17.3414 43.2759 17.5878 43.2252 17.838C43.1817 18.0559 43.1316 18.2815 43.0758 18.5084C42.9751 18.9253 42.8601 19.3363 42.734 19.7311C42.6872 19.8809 42.6366 20.0339 42.5781 20.2005L42.5586 20.2569L42.5885 20.3081C43.8509 22.482 44.5636 24.9618 44.6494 27.4799L45.1373 29.5869L45.138 29.5876Z" fill="white"/>
<path d="M49.9997 24.9002C49.9698 19.84 48.4293 14.9763 45.5446 10.8335C44.637 9.5304 43.5981 8.30571 42.4546 7.19189V7.11604H42.3766C41.4729 6.24404 40.4937 5.43299 39.4646 4.70298C37.3238 3.1846 34.9699 2.01892 32.4691 1.23834L32.232 1.16443L33.6841 5.78244L33.7465 5.80383C36.1491 6.62007 38.3601 7.86615 40.3177 9.50641C41.0616 10.1307 41.7685 10.8147 42.4182 11.5395C42.8197 11.9862 43.2037 12.453 43.5591 12.9276C45.4647 15.4632 46.768 18.4468 47.3274 21.5555C47.5438 22.7504 47.6536 23.9802 47.6536 25.2114C47.6536 29.03 46.5952 32.7553 44.5921 35.9846L44.5863 35.9943C44.2985 36.4566 44.0048 36.8916 43.7092 37.2929C43.6864 37.3234 43.6643 37.3538 43.641 37.385C43.4597 37.6307 43.2726 37.8725 43.0842 38.104C42.5273 37.9607 41.9751 37.7817 41.441 37.5704C41.2766 37.5049 41.1272 37.4427 40.9836 37.3804C40.7978 37.2987 40.6178 37.2151 40.4483 37.1315C40.1988 37.0089 39.9545 36.8799 39.7219 36.747C39.2541 36.4831 38.798 36.1888 38.3653 35.8705L38.0963 35.6727L38.1613 36.0001C38.2756 36.5778 38.3523 37.1671 38.39 37.7526C38.4101 38.0475 38.4205 38.3549 38.4205 38.6654C38.4205 39.0505 38.4049 39.4324 38.3737 39.8013C38.3627 39.953 38.3464 40.1008 38.3315 40.2389C38.323 40.3212 38.312 40.4081 38.2971 40.5151C38.2392 40.9507 38.158 41.3903 38.056 41.8227C37.5174 42.0542 36.9652 42.2506 36.4135 42.4075C35.3142 42.7226 34.172 42.9002 33.0188 42.934C32.7648 42.9417 32.4984 42.943 32.2424 42.9353H32.2157C32.2079 42.934 32.1995 42.934 32.1911 42.934L32.1326 42.932C31.336 42.9061 30.5382 42.8108 29.7592 42.6481L29.0991 42.5106L29.6611 42.8834C30.0061 43.1123 30.3628 43.3275 30.7273 43.5259C30.7487 43.5376 30.7708 43.5499 30.7922 43.5602L30.8013 43.5648C31.7057 44.051 32.6621 44.4361 33.6471 44.7117C29.9703 47.316 25.6393 48.6917 21.1095 48.6917C20.1649 48.6917 19.2137 48.6308 18.282 48.5095L18.269 48.5076L16.7324 48.6133L17.3795 48.8194C19.8368 49.6026 22.4012 50 25.0007 50C28.5799 50 32.0364 49.261 35.2739 47.8029C36.9606 47.0437 38.5667 46.0932 40.048 44.9775C41.8049 43.6536 43.3804 42.1048 44.7312 40.3744C44.8981 40.1617 45.0424 39.9705 45.173 39.7915C45.4225 39.4538 45.6733 39.0926 45.9195 38.7192C48.5892 34.6568 50.0004 29.9318 50.0004 25.0539C50.0004 25.0026 50.0004 24.9501 49.9991 24.9008L49.9997 24.9002Z" fill="white"/>
<path d="M14.4858 30.2631C14.7599 30.0037 15.0413 29.7535 15.3213 29.5181L15.3869 29.463L15.3616 29.3813C15.3167 29.2342 15.2641 29.0598 15.218 28.8867L15.1952 28.8011C15.0685 28.3285 14.9639 27.8416 14.8827 27.3553C14.7866 26.7757 14.7235 26.1799 14.6943 25.5841L14.6885 25.459L14.5624 25.4609C14.4981 25.4622 14.4331 25.4642 14.3643 25.4661C13.5891 25.4953 12.8095 25.5737 12.0461 25.6982L12.0396 25.6995C11.9473 25.7144 11.8551 25.73 11.7641 25.7468C11.1865 25.8506 10.6031 25.9848 10.03 26.1456C9.76038 26.2214 9.48231 26.307 9.20358 26.3997L9.10742 26.4315L9.11457 26.532C9.30104 29.1466 10.0255 31.6401 11.2677 33.9436L11.3749 34.142L11.4932 33.9501C11.9564 33.1967 12.4781 32.4725 13.0447 31.797C13.4962 31.2582 13.9809 30.7422 14.4858 30.2631Z" fill="white"/>
<path d="M17.9404 40.9793L17.9775 41.002L18.0204 40.9981C18.9475 40.9131 19.8779 40.7666 20.7855 40.5624C21.8907 40.316 22.9842 39.9802 24.0348 39.5633C24.1861 39.505 24.3343 39.4434 24.4616 39.3896L24.7559 39.2657L24.459 39.1497C24.0698 38.9973 23.6852 38.8281 23.3162 38.6472C20.92 37.4764 18.8552 35.6902 17.346 33.482L17.2647 33.3634L17.1549 33.4561C16.6787 33.8568 16.2233 34.2801 15.8009 34.7145C15.0297 35.5048 14.3248 36.3703 13.7063 37.2871L13.6504 37.37L13.7173 37.4452C14.944 38.8281 16.3655 40.0171 17.9411 40.9793H17.9404Z" fill="white"/>
<path d="M8.69198 6.56231L10.8978 7.80579L12.4603 8.68622L12.8066 8.88136L13.4661 9.2522L13.4726 9.25674L16.5158 10.9703C16.5191 10.9722 16.5223 10.9748 16.5256 10.978L18.4208 13.2608C18.437 13.2815 18.424 13.312 18.398 13.3146L11.9743 13.8838C11.949 13.8858 11.936 13.9156 11.9503 13.9363L13.7818 16.5432L15.2638 18.6522C15.2736 18.6652 15.2716 18.684 15.2606 18.695L10.0499 22.7697C10.0193 22.7873 10.0343 22.8346 10.0694 22.8313L11.3259 22.7205L14.2418 22.4618L15.399 22.36C15.41 22.3587 15.4224 22.3632 15.4289 22.373L17.6671 25.5601C17.686 25.5867 17.7275 25.5731 17.7275 25.5413V19.263C17.7275 19.2532 17.7327 19.2435 17.7405 19.2364L21.0463 16.7916L21.2867 16.6126L23.0454 15.3127C23.0519 15.3075 23.0565 15.3004 23.0578 15.2933L23.495 13.3023C23.5015 13.2718 23.5412 13.266 23.5555 13.2932L25.6618 17.1553C25.6638 17.1598 25.667 17.163 25.6716 17.1663L29.8408 20.0935C29.8408 20.0935 29.8421 20.0948 29.8428 20.0954L32.4455 21.5587L36.2262 23.6852C36.2359 23.6904 36.2424 23.7007 36.2437 23.7105L36.3698 24.9682C36.3711 24.9825 36.362 24.9967 36.3477 25.0019L35.4732 25.3131C35.44 25.3254 35.4465 25.3734 35.4823 25.3767L36.3379 25.4545L37.4002 25.5511C37.4158 25.5523 37.4288 25.5433 37.434 25.529L37.5581 25.1912C37.5646 25.1724 37.588 25.164 37.6055 25.1737L38.4287 25.6373C38.4385 25.6425 38.445 25.6528 38.445 25.6639L38.5164 26.4639C38.5119 26.4736 38.5086 26.4827 38.5041 26.4924L37.5139 27.3061C37.4918 27.3249 37.5029 27.3612 37.5328 27.3644L38.3611 27.439L38.6152 27.4623C38.6217 27.4636 38.6295 27.461 38.636 27.4571L40.0303 26.5495C40.0355 26.5462 40.04 26.5404 40.0433 26.5339L41.1725 23.7941C41.1744 23.7889 41.1757 23.7831 41.1744 23.7785L40.9451 21.2637C40.9418 21.2365 40.9087 21.2228 40.8892 21.2429L40.1453 21.9684C40.1329 21.9807 40.1147 21.9814 40.1011 21.9704L38.5587 20.7042L37.1559 19.5541L36.0111 18.6146C36.0079 18.6127 36.0059 18.6101 36.0033 18.6069L34.3661 15.9241L32.9016 13.5221C32.8828 13.4916 32.836 13.5078 32.8399 13.5428L33.1543 16.1983C33.1576 16.2282 33.1238 16.2463 33.1004 16.2282L31.994 15.3179C31.994 15.3179 31.9907 15.316 31.9894 15.3147L28.2542 11.12L27.4226 10.1858L26.3778 9.01297L23.3027 5.55935L23.2228 5.46859L22.8239 5.02124L20.9521 2.92068V2.91938L20.5817 2.5038L20.0256 1.87882L19.3479 1.11704C19.3239 1.09046 19.2797 1.11574 19.2921 1.15011L19.5292 1.81464L19.9216 2.91095L20.0665 3.3168L20.7961 5.35513L20.8403 5.47766L20.9326 5.7344L21.4809 7.26574C21.4861 7.28 21.4809 7.29556 21.4686 7.30399L20.6415 7.85636C20.6194 7.87063 20.624 7.90434 20.648 7.91471L24.1669 9.25026C24.1747 9.2535 24.1811 9.25934 24.1844 9.26582L24.4885 9.85903L24.8783 10.6202L25.2993 11.4435L25.9802 12.772C25.9977 12.805 25.9562 12.8355 25.9289 12.8115L24.6009 11.6108L24.3891 11.4202C24.3858 11.417 24.3826 11.415 24.3793 11.4137L24.2715 11.3729L20.6954 10.0146L15.2833 7.96009L14.6044 7.70271L14.4244 7.63334L14.0872 7.50497L12.691 6.97464L11.6384 6.57528C11.6352 6.57398 11.6306 6.57333 11.6274 6.57333L8.70952 6.50072C8.67574 6.49942 8.66209 6.54545 8.69328 6.56231H8.69198ZM29.5146 15.4003L32.0303 16.8441C32.0303 16.8441 32.0349 16.8473 32.0368 16.8493L33.7131 18.4675L34.2757 19.0121C34.2809 19.0166 34.2848 19.0244 34.2855 19.0315L34.5226 21.0387C34.5259 21.064 34.4999 21.0828 34.4765 21.0724L32.9815 20.4079L31.4553 19.7304C31.4475 19.7272 31.441 19.7207 31.4378 19.7129L30.4905 17.4217C30.4853 17.4088 30.4886 17.3919 30.5003 17.3835L30.7355 17.2006C30.7498 17.1896 30.7517 17.1702 30.742 17.1546L29.4711 15.4476C29.4503 15.4191 29.4835 15.3821 29.514 15.3996L29.5146 15.4003Z" fill="white"/>
<path d="M28.2458 34.5193C28.2458 34.5193 28.2452 34.5193 28.2445 34.5193L26.1713 35.2454C26.1414 35.2558 26.1427 35.298 26.1726 35.307L28.2231 35.9288C28.2231 35.9288 28.2231 35.9288 28.2237 35.9288L30.3892 36.5978C30.4048 36.603 30.4217 36.6056 30.438 36.6056C30.4568 36.6056 30.475 36.6024 30.4925 36.5959L31.7296 36.155C31.7497 36.1479 31.7673 36.1375 31.7835 36.1233L33.1765 34.8934C33.1954 34.8766 33.2103 34.8545 33.22 34.8305L33.86 33.1578L34.4019 31.7594C34.4142 31.727 34.3746 31.7004 34.3492 31.7244L33.3117 32.6988C33.3117 32.6988 33.3117 32.6988 33.3117 32.6995L33.2857 32.7235L32.7782 32.9044L32.4196 32.3624L33.5761 30.3039C33.5761 30.3039 33.5761 30.3026 33.5774 30.3013L33.8483 29.819C33.8652 29.7892 33.8301 29.7574 33.8015 29.7762L32.6593 30.5457L32.0817 30.9315L31.3593 31.1597L29.7961 30.1062L28.5415 26.602L28.1744 22.8761C28.1692 22.8236 28.1386 22.7769 28.0925 22.751L23.6933 20.2763L24.842 19.9904C24.907 19.9742 24.955 19.921 24.9641 19.8542C24.9732 19.7875 24.9414 19.7239 24.8829 19.6909L23.0169 18.6412C22.9598 18.6088 22.8889 18.614 22.8363 18.6548L20.5389 20.4442C20.4993 20.4753 20.4766 20.522 20.4766 20.5726V25.7845C20.4766 25.8357 20.5 25.8824 20.5402 25.9135C20.5805 25.9446 20.6325 25.955 20.6812 25.9414L21.6136 25.6943L25.5996 28.3771L28.5596 33.967L28.2887 34.5038L28.2458 34.5193Z" fill="white"/>
<path d="M18.7171 7.30852C18.7633 7.30852 18.8074 7.28907 18.8393 7.25277C18.8848 7.2009 18.8926 7.12893 18.8601 7.06864L18.3384 6.10912L16.6777 3.05487L16.1131 2.01626L15.8941 1.61365L15.8097 2.06358L15.3815 4.35022L11.3104 4.23936H10.6035L18.6587 7.29815C18.6775 7.30528 18.6976 7.30917 18.7171 7.30917V7.30852Z" fill="white"/>
<path d="M27.298 7.33898L27.2961 7.36038C27.2954 7.36945 27.298 7.37788 27.3039 7.38437L31.8077 12.4841C31.8311 12.5107 31.8733 12.486 31.8629 12.453L31.6628 11.8176L28.157 0.669031L27.9536 0.0226525C27.9432 -0.0110603 27.8932 -0.0058737 27.8899 0.0297841L27.5514 4.19267V4.19591L27.2954 7.29879C27.2941 7.3124 27.2954 7.32602 27.2974 7.33898H27.298Z" fill="white"/>
<path d="M31.1141 27.4345L32.2225 25.2386L34.1827 24.5683L30.2578 22.3607L30.6879 26.6312L30.6905 26.6578L31.1141 27.4345Z" fill="white"/>
<path d="M3.73106 12.173L8.33688 11.7613H8.33882L12.2943 11.4177C12.3261 11.4151 12.3352 11.3723 12.3073 11.3567L11.9577 11.1629C11.9499 11.1557 11.9408 11.1499 11.9317 11.1447L10.5589 10.3875L9.11978 9.5894C9.11068 9.58421 9.09964 9.58421 9.08989 9.5881L3.71416 12.1107C3.68103 12.1263 3.69467 12.1756 3.73106 12.1723V12.173Z" fill="white"/>
</g>
</g>
<defs>
<clipPath id="clip0_2923_35938">
<rect width="50" height="50" fill="white"/>
</clipPath>
<clipPath id="clip1_2923_35938">
<rect width="50" height="50" fill="white"/>
</clipPath>
</defs>
</svg>
