<svg width="50" height="50" viewBox="0 0 50 50" fill="none" xmlns="http://www.w3.org/2000/svg">
<g clip-path="url(#clip0_2923_20128)">
<path d="M19.5913 33.0983C15.2621 33.9816 14.3978 30.7764 14.3978 30.7764C13.5297 26.3619 17.1026 26.0283 17.1026 26.0283V19.1819L0 7.14014L9.2005 21.61C7.451 21.972 6.2019 23.223 5.83987 23.5395C4.10933 25.0502 3.10474 27.2034 3.05925 29.5178C2.92278 36.7432 7.81872 41.3814 13.8538 41.3814H30.0902V29.4533L19.5894 23.0467V33.0964L19.5913 33.0983Z" fill="white"/>
<path d="M44.1625 26.4604C45.8931 24.9498 46.9014 22.7965 46.9469 20.4822C47.0834 13.2568 42.1837 8.61859 36.1486 8.61859H19.9141V20.5504L30.411 26.957V16.8998C34.744 16.0203 35.6084 19.2217 35.6084 19.2217C36.4727 23.6362 32.8998 23.9698 32.8998 23.9698V30.8181L50.0024 42.8598L40.8019 28.39C42.5514 28.028 43.8005 26.777 44.1625 26.4604Z" fill="white"/>
</g>
<defs>
<clipPath id="clip0_2923_20128">
<rect width="50" height="35.7197" fill="white" transform="translate(0 7.14014)"/>
</clipPath>
</defs>
</svg>
