<svg width="50" height="50" viewBox="0 0 50 50" fill="none" xmlns="http://www.w3.org/2000/svg">
<g clip-path="url(#clip0_2923_20070)">
<path d="M29.9592 19.4143C29.8189 19.4143 29.7239 19.4143 29.6285 19.4143C22.2665 19.4143 14.9046 19.4041 7.54265 19.4246C6.39091 19.4277 5.31866 19.1897 4.28636 18.7195C2.54589 17.9274 1.15839 16.7064 0 15.1613H41.8642C41.5911 15.4894 41.3482 15.802 41.0836 16.0946C39.7232 17.6006 38.1026 18.7017 36.1228 19.2319C35.8742 19.2985 35.6193 19.3509 35.364 19.3824C35.2171 19.4001 35.1278 19.453 35.0448 19.5737C33.4029 21.9629 31.7565 24.3489 30.1111 26.7354C28.2734 29.4016 26.4348 32.0674 24.6011 34.7363C24.5127 34.865 24.455 34.8948 24.312 34.8047C23.5763 34.3407 22.8855 33.8261 22.3726 33.1117C21.9402 32.5087 21.7106 31.8552 21.9948 31.119C22.0787 30.9019 22.2053 30.6968 22.3376 30.5037C24.8266 26.8797 27.3192 23.2585 29.8114 19.6368C29.8522 19.5773 29.8913 19.5169 29.9597 19.4139L29.9592 19.4143Z" fill="white"/>
<path d="M41.887 19.425H38.3883C38.387 19.417 38.3857 19.409 38.3843 19.401C38.6254 19.3442 38.8679 19.2936 39.1072 19.2292C41.0945 18.6951 42.716 17.5837 44.0786 16.0706C44.3104 15.8131 44.5155 15.532 44.7437 15.271C44.7983 15.2088 44.896 15.148 44.9746 15.148C46.6298 15.1413 48.2855 15.1431 49.9407 15.1435C49.9541 15.1435 49.9669 15.1506 49.9998 15.1604C49.9652 15.219 49.9367 15.2754 49.9012 15.3269C45.4461 21.7955 40.9902 28.2632 36.5386 34.7341C36.4392 34.8784 36.3695 34.8819 36.2314 34.7949C35.5024 34.3349 34.819 33.823 34.3089 33.1161C33.6442 32.1953 33.6393 31.417 34.2787 30.4881C36.754 26.8917 39.2297 23.2958 41.705 19.6994C41.7614 19.6173 41.8156 19.5333 41.887 19.4254V19.425Z" fill="white"/>
<path d="M7.39062 20.4915H27.9016C27.874 20.547 27.8576 20.5931 27.831 20.6318C27.4101 21.2463 26.9914 21.8621 26.5603 22.4695C26.5083 22.5427 26.3871 22.6076 26.2979 22.6076C21.1475 22.6142 15.9975 22.6164 10.8472 22.6093C10.2518 22.6084 9.71096 22.3762 9.19459 22.0952C8.48286 21.7076 7.90034 21.1743 7.39062 20.4915Z" fill="white"/>
<path d="M11.4277 23.6825H25.7138C25.6814 23.7415 25.6597 23.7908 25.6295 23.8348C25.213 24.4435 24.7925 25.0496 24.3801 25.661C24.3064 25.7702 24.2287 25.8119 24.0941 25.8119C21.0194 25.8075 17.9447 25.8128 14.8701 25.8048C14.2969 25.8035 13.7752 25.5824 13.2774 25.3169C12.5439 24.9261 11.9445 24.3813 11.4282 23.6825H11.4277Z" fill="white"/>
<path d="M15.4902 26.8824H23.5288C23.456 26.9912 23.397 27.0813 23.3357 27.1705C22.9516 27.73 22.5645 28.2868 22.1857 28.8497C22.112 28.959 22.0365 29.006 21.9011 29.0051C20.9035 28.9989 19.9058 29.0114 18.9086 28.9985C18.3269 28.9909 17.8012 28.7667 17.2991 28.4937C16.582 28.1043 15.9946 27.5666 15.4907 26.8828L15.4902 26.8824Z" fill="white"/>
</g>
<defs>
<clipPath id="clip0_2923_20070">
<rect width="50" height="19.714" fill="white" transform="translate(0 15.1431)"/>
</clipPath>
</defs>
</svg>
