<?xml version="1.0" encoding="UTF-8"?><svg id="Layer_2" xmlns="http://www.w3.org/2000/svg" viewBox="0 0 191.19 239.01"><defs><style>.cls-1{fill:#fff;}.cls-2{fill:#0c0d0d;}</style></defs><g id="Capa_4"><g><path class="cls-2" d="M188.67,67.01c-1.84-13.48-4.36-24.92-6.15-32.15-1.95-7.88-3.46-12.53-3.53-12.73l-.67-2.07-1.93-1.01c-.38-.2-9.39-4.86-23.85-9.55-8.46-2.75-17.07-4.94-25.57-6.51C118.18,1.36,109.47,.39,101,.1v-.1h-10.81V.1c-8.47,.29-17.18,1.26-25.98,2.89-8.5,1.57-17.1,3.76-25.56,6.51-14.46,4.69-23.47,9.36-23.85,9.55l-1.93,1.01-.67,2.07c-.06,.19-1.57,4.85-3.52,12.73-1.79,7.23-4.31,18.67-6.15,32.15C.45,82.19-.35,96.82,.14,110.49c.62,17.22,3.31,32.97,7.98,46.82,4.58,13.55,11.96,26.26,21.96,37.78,7.93,9.14,17.51,17.56,28.47,25.01,18.61,12.65,34.67,18.12,35.35,18.35l1.7,.57,1.7-.57c.67-.23,16.74-5.7,35.35-18.35,10.96-7.45,20.54-15.86,28.47-25.01,9.99-11.52,17.38-24.23,21.96-37.78,4.68-13.85,7.36-29.6,7.98-46.82,.49-13.67-.31-28.29-2.38-43.48ZM95.67,5.34c42.93,.04,78.26,18.45,78.26,18.45,0,0,23.86,73.25,4.08,131.82-19.09,56.51-82.41,77.78-82.41,77.78,0,0-63.33-21.27-82.41-77.78C-6.6,97.03,17.26,23.78,17.26,23.78c0,0,35.33-18.41,78.26-18.45h.14Z"/><path class="cls-2" d="M172.2,119.86c-1.68-9.4-5.42-27.01-12.67-47.52-7.22-20.45-17.49-38.38-23.52-48.05,8.99,1.99,18.44,4.82,27.11,8.85,0,0,12.06,45.16,9.08,86.72Z"/><path class="cls-2" d="M55.16,24.33c-6.03,9.68-16.28,27.59-23.5,48.01-7.1,20.11-10.84,37.42-12.57,46.95-2.83-41.4,9.12-86.16,9.12-86.16,8.62-4,18-6.82,26.95-8.81Z"/><path class="cls-2" d="M164.53,133.98c-11.41,16.03-32.16,28.79-32.48,28.98,13.66-13.33,26.82-34.98,26.82-34.98-.67-17.83-7.83-47.31-24.69-82.29-5.67-11.75-11.89-19.52-17.65-24.65-10.6-9.44-19.64-9.97-20.85-10h0s-.02,0-.07,0c-.05,0-.07,0-.07,0h0c-1.21,.03-10.26,.56-20.85,10-5.76,5.13-11.98,12.9-17.65,24.65-16.86,34.98-24.03,64.47-24.69,82.29,0,0,13.16,21.65,26.82,34.98-.32-.2-21.07-12.95-32.48-28.98l-5.53,1.84c1.67,9.03,4.3,17.54,8.2,24.98,6.14,11.69,13.61,21.21,21.3,28.89,6.82-1.97,19.04-6.77,19.18-15.89,.17-11.49-19.32-30.15-23.49-44.48,0,0,18.36-70.11,49.06-70.13h.11s0,.01,0,.01h.11s.11,0,.11,0h0s.11-.01,.11-.01c30.71,.03,49.06,70.13,49.06,70.13-4.17,14.33-23.66,32.99-23.49,44.48,.13,9.12,12.35,13.92,19.18,15.89,7.69-7.67,15.17-17.19,21.3-28.89,3.9-7.43,6.53-15.95,8.2-24.98l-5.53-1.84Z"/><path class="cls-2" d="M69.14,103.94s2.59,5.62,3.78,6.07c2.15,.81,15.92,.81,15.92,.81,0,0-9.25-7.26-13.1-7.77-3.85-.52-6.59,.89-6.59,.89Z"/><path class="cls-2" d="M122.05,103.94s-2.59,5.62-3.78,6.07c-2.15,.81-15.92,.81-15.92,.81,0,0,9.25-7.26,13.1-7.77s6.59,.89,6.59,.89Z"/></g><g><path class="cls-1" d="M188.67,67.01c-1.84-13.48-4.36-24.92-6.15-32.15-1.95-7.88-3.46-12.53-3.53-12.73l-.67-2.07-1.93-1.01c-.38-.2-9.39-4.86-23.85-9.55-8.46-2.75-17.07-4.94-25.57-6.51C118.18,1.36,109.47,.39,101,.1v-.1h-10.81V.1c-8.47,.29-17.18,1.26-25.98,2.89-8.5,1.57-17.1,3.76-25.56,6.51-14.46,4.69-23.47,9.36-23.85,9.55l-1.93,1.01-.67,2.07c-.06,.19-1.57,4.85-3.52,12.73-1.79,7.23-4.31,18.67-6.15,32.15C.45,82.19-.35,96.82,.14,110.49c.62,17.22,3.31,32.97,7.98,46.82,4.58,13.55,11.96,26.26,21.96,37.78,7.93,9.14,17.51,17.56,28.47,25.01,18.61,12.65,34.67,18.12,35.35,18.35l1.7,.57,1.7-.57c.67-.23,16.74-5.7,35.35-18.35,10.96-7.45,20.54-15.86,28.47-25.01,9.99-11.52,17.38-24.23,21.96-37.78,4.68-13.85,7.36-29.6,7.98-46.82,.49-13.67-.31-28.29-2.38-43.48ZM95.67,5.34c42.93,.04,78.26,18.45,78.26,18.45,0,0,23.86,73.25,4.08,131.82-19.09,56.51-82.41,77.78-82.41,77.78,0,0-63.33-21.27-82.41-77.78C-6.6,97.03,17.26,23.78,17.26,23.78c0,0,35.33-18.41,78.26-18.45h.14Z"/><path class="cls-1" d="M172.2,119.86c-1.68-9.4-5.42-27.01-12.67-47.52-7.22-20.45-17.49-38.38-23.52-48.05,8.99,1.99,18.44,4.82,27.11,8.85,0,0,12.06,45.16,9.08,86.72Z"/><path class="cls-1" d="M55.16,24.33c-6.03,9.68-16.28,27.59-23.5,48.01-7.1,20.11-10.84,37.42-12.57,46.95-2.83-41.4,9.12-86.16,9.12-86.16,8.62-4,18-6.82,26.95-8.81Z"/><path class="cls-1" d="M164.53,133.98c-11.41,16.03-32.16,28.79-32.48,28.98,13.66-13.33,26.82-34.98,26.82-34.98-.67-17.83-7.83-47.31-24.69-82.29-5.67-11.75-11.89-19.52-17.65-24.65-10.6-9.44-19.64-9.97-20.85-10h0s-.02,0-.07,0c-.05,0-.07,0-.07,0h0c-1.21,.03-10.26,.56-20.85,10-5.76,5.13-11.98,12.9-17.65,24.65-16.86,34.98-24.03,64.47-24.69,82.29,0,0,13.16,21.65,26.82,34.98-.32-.2-21.07-12.95-32.48-28.98l-5.53,1.84c1.67,9.03,4.3,17.54,8.2,24.98,6.14,11.69,13.61,21.21,21.3,28.89,6.82-1.97,19.04-6.77,19.18-15.89,.17-11.49-19.32-30.15-23.49-44.48,0,0,18.36-70.11,49.06-70.13h.11s0,.01,0,.01h.11s.11,0,.11,0h0s.11-.01,.11-.01c30.71,.03,49.06,70.13,49.06,70.13-4.17,14.33-23.66,32.99-23.49,44.48,.13,9.12,12.35,13.92,19.18,15.89,7.69-7.67,15.17-17.19,21.3-28.89,3.9-7.43,6.53-15.95,8.2-24.98l-5.53-1.84Z"/><path class="cls-1" d="M69.14,103.94s2.59,5.62,3.78,6.07c2.15,.81,15.92,.81,15.92,.81,0,0-9.25-7.26-13.1-7.77-3.85-.52-6.59,.89-6.59,.89Z"/><path class="cls-1" d="M122.05,103.94s-2.59,5.62-3.78,6.07c-2.15,.81-15.92,.81-15.92,.81,0,0,9.25-7.26,13.1-7.77s6.59,.89,6.59,.89Z"/></g></g></svg>