<svg width="50" height="50" viewBox="0 0 50 50" fill="none" xmlns="http://www.w3.org/2000/svg">
<g clip-path="url(#clip0_2923_36016)">
<path d="M25.1739 2.5L5.41406 9.30789V17.1346C5.41406 30.1715 5.71509 36.6552 12.5384 41.3559C16.9921 44.428 25.0041 47.4305 25.089 47.4614L25.1739 47.4923L25.2588 47.4614C25.336 47.4305 33.3557 44.428 37.8094 41.3559C44.6328 36.6552 44.9338 30.1792 44.9338 17.1346V9.30789L25.1739 2.5ZM7.65248 23.6878C10.0221 23.958 12.2914 23.9889 13.9587 23.9271C13.7039 24.753 13.4955 25.6329 13.3489 26.5592C11.9055 26.922 9.96037 27.3233 7.86861 27.5626C7.75283 26.3585 7.69108 25.0772 7.65248 23.6878ZM9.81372 35.0883C9.21166 33.9846 8.7717 32.7573 8.45523 31.3911C10.2537 30.7581 11.8746 30.048 13.1019 29.446C13.0864 30.4648 13.1328 31.53 13.264 32.6492C12.3455 33.3671 11.1568 34.2316 9.81372 35.0883ZM13.9201 39.5189C13.2871 39.0789 12.7159 38.6235 12.2065 38.1449C12.8549 37.4503 13.4338 36.7942 13.9123 36.223C14.2288 37.5274 14.6533 38.9014 15.1859 40.3293C14.7382 40.0669 14.3137 39.7967 13.9201 39.5189ZM14.8849 21.542C12.9629 21.2101 10.246 20.5849 7.59845 19.5815C7.59845 19.0103 7.59845 18.4237 7.59845 17.8216V14.7264C10.4312 16.8645 13.8274 18.4854 16.1045 19.3962C15.6568 20.06 15.2477 20.7702 14.8849 21.542ZM17.571 17.4743C15.3094 15.9614 11.8823 13.3062 9.48182 10.2496L13.8274 8.74443C15.5101 11.5772 17.7177 14.1475 19.3 15.7684C18.7134 16.2779 18.1268 16.8413 17.571 17.4743ZM21.2837 14.2787C20.2185 12.5883 18.8292 10.0875 17.7949 7.37822L21.6619 6.04288C22.1328 8.73671 22.9123 11.2762 23.5607 13.0437C22.866 13.3448 22.0864 13.7539 21.2837 14.2787ZM42.7571 17.8216C42.7571 29.4768 42.5178 35.3199 36.4278 39.5189L29.8437 31.1441C25.1662 29.3997 26.8798 22.1981 26.8798 22.1981C26.7717 24.9305 28.3 26.8062 28.3 26.8062L31.7966 28.2187C31.7966 28.2187 33.2863 30.9434 33.6105 32.6338C34.1816 32.9194 36.0573 32.6878 36.0573 32.6878L34.3978 30.0326L37.8326 31.97L40.1791 29.2067L35.5324 20.2067C35.2391 19.1106 35.5401 17.8293 35.5401 17.8293C35.1619 17.6518 29.2571 13.5223 29.2571 13.5223C32.5684 10.7281 30.1988 8.00343 30.1988 8.00343C28.4235 9.95626 26.4398 12.0249 26.1465 12.3259C25.4209 9.82504 25.6216 7.27787 26.27 5.20926L42.7417 10.9057V17.8216H42.7571ZM31.565 18.3156L33.1319 19.3576L33.8652 20.2298C33.8652 20.2298 32.854 20.5232 32.4681 20.2067C32.0744 19.8902 31.565 18.3156 31.565 18.3156ZM36.6439 28.1647L37.5856 28.9211L38.7125 29.3533L37.1842 29.4691L36.6439 28.1647Z" fill="white"/>
</g>
<defs>
<clipPath id="clip0_2923_36016">
<rect width="39.5197" height="45" fill="white" transform="translate(5.41406 2.5)"/>
</clipPath>
</defs>
</svg>
