<?xml version="1.0" encoding="UTF-8"?>
<svg id="Layer_2" data-name="Layer 2" xmlns="http://www.w3.org/2000/svg" viewBox="0 0 51 30.13">
  <defs>
    <style>
      .cls-1 {
        fill: #fff;
        stroke: #fff;
        stroke-miterlimit: 10;
      }
    </style>
  </defs>
  <g id="Layer_1-2" data-name="Layer 1">
    <g>
      <path class="cls-1" d="M16.85,14.81v-.19l.09-.09s.12,0,.22,.02c.1,.02,.05,.02,.14,.02s.1-.03,.1-.03l.07-.07h.15c.07,0,.09,0,.24,.09,.08,.04,.63,.66,1.16,1.27,2.15-1.32,2.97-1.56,2.97-1.56,0,0,.1-.03,.2-.03s.22,.05,.22,.05l.09-.03s.09-.07,.19-.12c.1-.05,.07-.03,.17-.03s.12,0,.21,.05c.09,.05,.1,.12,.1,.12,0,0-.03,.12-.19,.14-.16,.02-.44,.29-.44,.29l-.07,.12s-.67,.21-2.97,1.56c.34,.39,.6,.69,.6,.69v.09l-.02,.09v.14c0,.05,.33,.31,.33,.31,0,0,0,.03-.05,.1-.05,.07-.12,.07-.2,.12-.09,.05-.12-.05-.12-.05l-.15,.05-.07,.1-.16-.02-.58-.73-.19,.05-.31-.38c-2.12,1.3-3.28,2.24-3.28,2.24l-.12-.05h-.15c-.07,0-.07-.07-.07-.07l-.03-.15v-.17c0-.09,.03-.14,.03-.14,0,0,.71-.61,3.18-2.2l-1.28-1.58h0Zm1.11,2.94l.15-.17,.09-.07s.07-.05,.17-.05,.17,.14,.17,.14l.09-.09s.15-.03,.22-.05c.07-.02,.15,.02,.15,.02,0,0,.07,.1,.05,.2-.02,.1-.38,.56-1.35,2.1-.97,1.54-2.54,4.53-2.56,4.61-.02,.09-.05,.34-.05,.34l-.05,.2-.19,.03s-.12,0-.2-.02c-.09-.02,0-.07,0-.07,0,0,.05-.27-.02-.27s-.22,.39-.26,.46c-.04,.07-.09,.02-.09,.02h-.2l-.05-.09,.17-.49s-.07-.17-.07-.24,.67-1.52,1.54-3.19c.87-1.67,1.88-3.23,1.88-3.23l.09-.09s.09-.05,.21-.05,.12,.03,.12,.03h0Z"/>
      <path class="cls-1" d="M11.98,20.97c-1.03,.49-2.43,1.14-3.49,1.64-1.04,2.11-1.9,4.01-1.9,4.01l-.12,.13-.24,.07-.03-.12,.02-.37-.7,1.52-.22,.2h-.23s-.11-.19-.11-.19l.09-.23,.05-.23v-.12s.17-.54,.17-.54c0,0-.07,.15-.11,.21-.04,.06-.19,.28-.19,.36,0,.08-.08,0-.19-.01-.1-.01-.13-.12-.13-.12v-.18c-.01-.09,.6-1.26,1.91-3.51-.06,0-.08-.01-.08-.01l-.19-.03-.15-.14,.14-.14s.2-.07,.29-.12c.09-.05,.14-.09,.14-.09l-.02-.12c-1.14,.6-1.12,.52-1.09,.42,.03-.12,.37-.5,.37-.5l.51-.26s.36-.17,.9-.42c1.63-2.79,3.04-5.2,3.04-5.2,0,0,.16-.07,.24-.07,.08,0,.15,.07,.15,.07l.09,.16,.4-.54,.2-.15,.31-.02c.21-.01,.11,.16,.11,.16l.12-.09,.32-.24s.06,0,.13,.05c.07,.06,.09,.14,.03,.25-.05,.1-2.09,2.44-3.36,4.8,.94-.43,1.93-.87,2.63-1.17,.34-.14,.62-.25,.85-.35,1.08-1.93,1.56-2.82,1.56-2.82,0,0,.26,0,.36-.02,.1-.02,.48-.6,.48-.6h.19c.05,0,.12-.09,.12-.09h.12s.15,.02,.22-.02c.07-.03,.12-.2,.12-.2,0,0,.15-.03,.22-.03s.05,.02,.14,.05c.09,.03,.05,.1,.05,.1l-.36,.5s.14,.1,.15,.2c.02,.1-.53,.48-1.88,2.77-1.35,2.29-2.55,4.92-2.6,4.99-.05,.07-.12,.07-.12,.07l-.14,.02h-.17c-.07,0-.14,.31-.14,.31l-.05,.1-.14,.05h-.12l-.1-.03-.02-.24-.46,1.08-.27,.09-.12-.07s0-.03,.02-.14c.02-.1,.98-2.48,2.25-4.83h0Zm-3.1,.86c.29-.13,.58-.26,.85-.39,.54-.26,1.28-.62,1.96-.94-.85,.36-1.86,.81-2.75,1.22l-.06,.12h0Z"/>
      <path class="cls-1" d="M19.32,18.73s5.42-1.81,5.64-1.86c.22-.05,.34-.07,.34-.07,0,0-.05,.12,.14,.1,.19-.02,1.18-.17,1.18-.17l.09,.12,.02,.12v.1l-.6,.12s.33,.24,.39,.34c.07,.1,.09,.2,.09,.2l.02,.14s0,.09-.1,.1c-.1,.02-.19,.05-.27,.05s-2.97,.89-4.9,1.85c-1.93,.96-2.27,1.33-2.27,1.33,0,0,2.75-.98,4.39-1.4,1.64-.43,2.31-.48,2.31-.48,0,0,.02,.02,.05,.12,.03,.1,.03,.09,.03,.17v.14l.03,.12s.12,.05,0,.1c-.12,.05-.19,.05-.19,.05l-.09,.1-.14,.05s-3.35,.9-4.94,1.45c-1.59,.55-1.81,.68-1.81,.68,0,0-.63,.48-1.23,.61-.6,.14-.79-.12-.72-.2,.07-.09,.17-.19,.17-.19l.2-.12-.02-.15s-.05,0-.03-.07c.02-.07,.07-.15,.07-.15,0,0,.48-.33,.99-.51,0,0,1.5-1.5,4.97-2.82,0,0-2.94,1.01-3.76,1.23-.82,.22-.9-.1-.9-.1,0,0,.09-.15,.17-.2,.09-.05,.09,0,.15-.05,.07-.05,.1-.07,.1-.07,0,0-.03-.14,.05-.2,.09-.07,.02-.02,.14-.09,.12-.07,.2-.1,.2-.1,0,0,.03-.02-.03-.09-.07-.07-.09-.14-.09-.14l.15-.17h0Z"/>
      <path class="cls-1" d="M16.67,24.26s2.36-1.02,4.54-1.71c2.19-.68,2.84-.86,2.9-.84,.07,.02,.12,.09,.12,.09l.04,.12v.1l-.07,.03-2.12,.62,2.31-.56,.05,.17s.03,.05,.02,.12c-.02,.07,.03,.09-.05,.12-.09,.03,0,0-.15,.05-.15,.05-3.64,1.06-5.52,1.74,0,0,3.45-1.08,3.84-1.15,.39-.07-.2,.33-.31,.34-.1,.02-.41,.09-.41,.09,0,0-3.88,1.35-4.51,1.59-.63,.24-.77-.04-.72-.14,.05-.1,.07-.15,.07-.15l.1-.09s.03-.05-.03-.07c-.07-.02-.15-.12-.12-.24,.03-.12,.09-.15,.09-.15l-.07-.09h0Z"/>
      <path class="cls-1" d="M40.6,13.93s-4.99,1.26-7.21,2.08c-2.21,.82-2.17,1.13-2.17,1.22s.04,.15,.04,.15c0,0,.11,.05,.11,.13s-.11,.11,0,.13c.11,.02,.09-.02,.15,.02,.07,.04,.04,.26,.04,.26,0,0-.02,.11,.09,.15,.11,.04,3.49-1.06,4.91-1.55,1.41-.49,2.98-.93,3.12-.95,.13-.02,.13-.13,.13-.13,0,0,.18,.07,.13-.15l-.04-.22s-.15,.02-.13-.09c.02-.11-.09-.11,.09-.18,.18-.07,.86-.15,.86-.15l.09-.24s.07-.02,.09-.15c.02-.13,.02-.2,.02-.2l-.13-.11-.2-.02h0Z"/>
      <path class="cls-1" d="M40.58,16.39s-5.35,1.39-10.15,3.34c0,0-.24,.33-.24,.42s-.09,.11,0,.15c.09,.04,.04,.04,.18,.04s.66-.15,.66-.15c0,0-1.17,.49-1.22,.57-.04,.09,.02,.29,.02,.29,0,0,.13,.02,.22,.04,.09,.02,.31,.07,.4,.02,.09-.04,2.83-1.04,5.06-1.75,0,0-3.12,1.55-5.24,3.16,0,0-.18,.22-.15,.29,.02,.07,.02,.13,.15,.13h.2l-.02,.18s-.09,.04-.18,.11c-.09,.07,.13-.05-.31,.22-.44,.27-.53,.31-.53,.4s.24,.42,.47,.24c.22-.18,.75-.49,.86-.51,.11-.02,.13,.04,.09,.13-.04,.09-.09,.22-.09,.22,0,0,.04,.11,.13,.13,.09,.02,.15,.15,.26,.02,.11-.13,1.33-1.04,4.8-2.06,3.47-1.02,3.54-.93,3.56-1.02,.02-.09-.02-.24-.02-.31s-.13-.22-.13-.22c0,0,1.59-.47,1.68-.49,.09-.02,0-.33,0-.33l-.22-.15-.93,.22s-.4-.24-3.6,.86c-3.21,1.1-5.11,1.86-5.11,1.86,0,0,2.96-2.06,6.15-3.45,3.18-1.39,3.49-1.28,3.49-1.48s-.04-.11-.07-.24c-.02-.13-.09-.09-.07-.18,.02-.09,.02-.09,.11-.13,.09-.04,.13-.09,.13-.09,0,0-.02,.02,0-.11,.02-.13,.02-.27,.02-.27l-.11-.07-.26-.07h0Z"/>
      <path class="cls-1" d="M27.36,15.36s-.13-.02-.19,.04c-.06,.06-.12,.12-.12,.12l-.06,.25s-.25,.08-.27,.16c-.02,.08-.43,3.54-.47,5.76-.04,2.22,.06,2.47,.1,2.55,.04,.08,.06,.21,.06,.21,0,0-.04,.1,.1,.14,.14,.04,.17,.04,.17,.04l.21-.02s.08-.1,.08-.19v-.18c0-.16,.02-.64,.02-.64h.18s-.27,2.12-.27,2.22,.06,.37,.06,.37c0,0-.06,.31,.04,.35,.1,.04,.06,.08,.22,.04,.16-.04,.21-.08,.21-.08l.08-.33s.23-.02,.33-.23c.1-.22,.39-1.19,.39-1.34s-.02-.17-.04-.25c-.02-.08-.02-.29-.02-.29,0,0,1.24-3.99,2.59-6.54,1.34-2.55,2.02-3.31,2.1-3.35,.08-.04,.37-.17,.37-.17,0,0,.92-1.23,.92-1.46s-.18-.23-.18-.23c0,0-.04-.04-.14-.04h-.23s-.04-.02-.14,.04c-.1,.06-1.36,1.48-2.16,2.78,0,0,1.36-2.26,2.06-3.07l.02-.19s.02-.06-.08-.06-.2,.02-.2,.02l-.12,.14s-1.65,2.24-1.71,2.34c-.06,.1-.23-.1-.31-.08-.08,.02-.18,.08-.18,.08,0,0-1.62,2.45-2.9,7.05,0,0,0-1.5,.2-3.44,.19-1.94,.39-3.04,.39-3.04l-.16-.08,.21-1.23-.17-.12-.08-.06-.27,.04s-.04,.13-.08,.23c-.04,.1,.02,.1-.08,.25-.1,.16-.21,.23-.25,.43-.04,.2-.23,1.09-.23,1.09h0Z"/>
      <path class="cls-1" d="M33.6,11.1s-.16,.07-.24,.12c-.08,.05-.11,.03-.09,.11,.01,.08,.03,.11,.08,.11s.03-.04,.11,.01c.08,.05,.04,.07,.15,.07s.09,.01,.12-.04c.03-.05,.05-.08,.03-.18-.03-.09,0-.09-.04-.15-.04-.05-.11-.05-.11-.05h0Z"/>
      <path class="cls-1" d="M12.02,28.76s6.16-2.24,19.27-4.38c0,0,.34-.05,.39,.11,.05,.16,.29,.08,.05,.19-.24,.11-.34,.12-.34,.12l-3.13,.61s8.02-1.29,8.51-1.28c.49,0,.59,0,.59,0l-.15,.2s-.05,0-.39,.06c-.34,.05-10.32,1.84-15.46,3.12-5.14,1.27-6.11,1.59-6.11,1.59,0,0-.34,.25-.64,.33-.29,.08-.73,.14-.73,.14l-.59,.07-.29-.05-.24-.15-.44,.06s-.34,.18-.54-.1c-.2-.28,.24-.63,.24-.63h0Z"/>
      <path class="cls-1" d="M25.71,10.83c-.46,.09-.94,.19-1.42,.29,.04,.08,.08,.15,.12,.21,.22,.29,.74,0,1.3-.5Zm-1.6-.63c.54-.1,1.1-.19,1.68-.28,0,0,.2-.03,.23,.11,.03,.14,.17,.09,.03,.17-.14,.09-.2,.09-.2,.09l-1.7,.35c.31-.04,1.17-.17,2.07-.3,.58-.61,1.12-1.35,1.37-1.85,.57-1.14,.72-1.53,.72-1.53l.15,.21-.15,.45-.54,1.35s1.33-2.04,1.77-3.78c.66-2.61-.36-3.39-.69-3.48-.33-.09-.45,0-.45,0-.63-.03-1.92,1.44-2.52,2.4-.6,.96-.6,1.08-.6,1.08,0,0,1.44-1.89,1.68-2.07,.24-.18,.39-.12,.39-.12l.06,.21s-.66,.42-2.07,2.94c-.92,1.65-1.25,3.08-1.23,4.06h0Zm6.7,.62c.67,.87,1.01,.6,1.41,.3,0,0-.45,.08-.82-.05-.37-.14-.6-.24-.6-.24Zm4.16-4.44c-.01,.12-.71,1.89-1.45,2.77-.2,.21-.32,.31-.32,.31,.11-.08,.21-.19,.32-.31,.56-.59,1.73-1.99,2.31-3.96,.79-2.65,.13-3.67-.34-3.76-1.33-.24-2.97,2-3.63,3.63,0,0,.09,.3,.02,.41-.07,.11-.12,.14-.16,.27-.04,.14-1.27,3.14-.04,3.95,1.23,.81,2.88-3.25,2.97-3.46,.08-.22,.26-.11,.26-.11,0,0,.07,.14,.06,.27h0Zm.86-5.85c1.55,.27,2.13,2.57,.74,5.93-1.71,4.15-3.5,4.52-3.5,4.52,0,0-.78,.97-1.67,.76-.89-.22-1.05-1.19-1.05-1.19-.95-.58-.98-2.03-.76-3.4-.19,.52-.34,.87-.34,.87,0,0,.29,.52-.82,2,.3-.04,.51-.06,.57-.05,.28,.03,.34,.03,.34,.03l-.09,.17s-.03,0-.23,.03c-.04,0-.36,.06-.85,.15-1.2,1.48-2.98,2.88-4.32,2.08-.45-.27-.73-.64-.9-1.02-1.08,.24-2.11,.49-2.94,.73l-.47,.13c-.03,.07-.13,.07-.23,.12-.08,.04-.09,.03-.16-.01-2.25,.65-2.71,.84-2.71,.84,0,0-.2,.2-.37,.26-.17,.06-.43,.09-.43,.09l-.34,.03-.17-.06-.14-.14-.26,.03s-.2,.14-.31-.11c-.11-.26,.14-.54,.14-.54,0,0,1.42-.66,4.39-1.44l-.15-.22v-.27c0-.15,.03-.21,.03-.21l-.09-.27s.03-.33,.87-2.52c.45-1.18,1.18-2.85,1.76-4.13-.29,.25-.58,.49-.65,.53-.15,.09-.18,.09-.33,.09s-.09-.03-.24-.03-.18,.09-.3,.18c-.12,.09-.3-.03-.3-.03l-.12-.06-.18-.09s-.03-.09,0-.21c.03-.12,.33-.27,1.02-.84,.62-.51,1.73-1.28,1.97-1.44v-.03s.19-.15,.19-.15l.15,.15,.24-.03,.09,.15,.03,.27,.06,.27s.09,.03,.27,.21c.18,.18,0,.15,0,.27s.15,.12,.15,.12c0,0,.3,.12,.33,.24,.03,.12-.54,.81-1.44,2.58-.67,1.33-1.82,3.93-2.38,5.22,.82-.2,1.75-.41,2.77-.61-.04-.42,0-.73,0-.73,0,0,0-.39-.03-.54-.03-.15-.15,0-.15,0,0,0-.09,0-.18-.15-.09-.15,.24-1.86,1.35-3.96,1.11-2.1,2.4-3.33,2.55-3.36,.15-.03,.12,0,.27,.03,.15,.03,.12,.3,.12,.3,0,0,.79-.76,1.5-.96,1.14-.33,2.37,.78,2.34,2.46,0,.15-.02,.32-.04,.49,.05-.07,.11-.08,.14-.16,.04-.11,.11-.19,.11-.19l.56-.35s2.24-3.22,4.58-2.82Z"/>
      <path class="cls-1" d="M2.04,27.22l.14,.07s.03,.08,.03,.12v.18c0,.12-.06,.07-.13,.1-.06,.04-.1,.01-.2,0-.09-.01-.05-.04-.06-.09-.01-.05-.01-.01,0-.25,.01-.23,.01-.04,.22-.13Zm-1.02-7.45c0,.12,.04,.1-.05,.16-.08,.06-.05,.06-.16,.06s-.12,.01-.18,.01-.09,.02-.1-.05c-.01-.07-.07-.14,.01-.18,.08-.04,.06-.02,.16-.05,.11-.02,.16-.05,.21-.06,.05-.01,.21-.15,.21-.15l-.09,.16v.08Zm3.42-1.33l-.18,.11,3.29-1.47,.51-.26c-1.96,.79-3.63,1.62-3.63,1.62h0Zm-2-.18s3.26-1.71,5.89-2.79c2.63-1.09,3.73-1.47,3.73-1.47l.18,.15,.2,.02s-.08,0-.1,.04c-.02,.05-.01,.08-.01,.08l-.04,.06-.48,.16s.29-.01,.34-.01,.13,.09,.13,.09l.06,.02,.29,.06s-.15,.02-.2,.04c-.05,.01-.08,.06-.08,.06l-.05,.13-1.6,.63s.42-.11,.48-.11,.19,.06,.21,.12c.02,.06,.04,.16,0,.21s-.12,.09-.16,.12c-.02,.01-1.37,.55-3.08,1.26,0,.02,.01,.04,.02,.06,.01,.05,.02,.08,.02,.08h.27s-.23,.08-.23,.08l-.11,.1s-2.07,3.14-3.12,4.87c-1.05,1.73-2.24,4.04-2.32,4.11-.08,.07-.04,.01-.12,.07-.05,.04-.06,.05-.08,.06,0,0-.01,.02-.03,.04-.04,.05-.09,.11-.09,.11l-.11,.1-.05,.2s.02-.22-.01-.27c-.04-.05-.06-.12-.06-.12,0,0-.02-.05-.01-.09,.01-.05,.39-.83,.39-.83,0,0-.05,.06-.13,0-.08-.06,.01-.15-.08-.15s-.09,.06-.09-.04,.08-.3,.08-.3c0,0-.09-.12-.09-.23s.79-1.79,1.99-3.66c1.19-1.87,2.09-3.11,2.09-3.11,0,0,.09-.01,.14-.05,.05-.04-.09,0,.07-.09,.16-.09,.2-.12,.2-.12,0,0,.09-.02,.12-.07,.01-.03,.08-.15,.13-.24-1.53,.65-3.16,1.36-4.29,1.93h-.4c-.06,0-.14,.05-.19,.07-.05,.02-.13,.05-.13,.05,0,0-.04,.01-.13,.01s-.08-.01-.15,.02c-.07,.04-.32,.19-.36,.02-.05-.16,.13-.34,.13-.34l.7-.28s-.01-.12,.01-.21c.02-.09,.02-.14,.08-.18,.06-.04,.09-.05,.14-.07,.05-.02,.08-.04,.02-.08-.06-.05-.09-.07-.09-.07,0,0-.02-.05,0-.09,.02-.05,.08-.14,.08-.14l.09-.02h0Z"/>
      <path class="cls-1" d="M47.3,15.19l.07-.06,.31-.38c.16-.36,.25-.91,.25-.91,0,0-.03,.47-.04,.65l.56-.68s.11-.08,.24-.13c.14-.06,.16-.04,.26-.04s.24,.02,.24,.02l.11-.13s.14-.02,.24-.02,.17,.02,.17,.02c0,0,.09-.06,.14-.21,.05-.15,.12-.1,.12-.1,0,0,.17-.02,.28-.02s.05,.08,.05,.21-.23,.42-.73,1.06c-.5,.65-2.14,2.8-2.17,2.93-.03,.13-.07,.06-.16,.09-.09,.04-.05-.02-.11-.04-.05-.02-.05-.11-.16-.11s-.33,0-.43-.04c-.1-.04-.11-.11-.11-.11l.19-.48s-.17,.23-.21,.31c-.03,.08-.07,.06-.16,.06s-.1-.02-.21-.04c-.1-.02-.14-.02-.14-.08s.1-.19,.1-.19l-2.54,1.01s2.9,.02,4.29,.19c1.39,.17,1.06,.63,1.06,.63,0,0,.24,.04,.31,.06,.07,.02,.05,.04,.11,.11,.05,.08,.05,.08,.09,.19,.03,.11,.02,.13,.03,.25,.02,.11,.1,.12,.12,.21,.02,.09-.07,.19-.07,.19l-1.41,.49v.08l.05,.11,.03,.13s0,.06-.1,.17-1.15,.36-1.15,.36l-.03,.25s-.9,.27-2.74,1.14c-1.84,.87-3.79,1.94-3.89,2.01-.1,.08-.17,.06-.17,.06,0,0-.1,0-.19,0-.09,0-.09-.15-.09-.15,0,0-.21,.08-.3,.08s-.12-.08-.12-.08c0,0-.09-.09-.14-.17-.05-.08,0-.13-.02-.21-.02-.08-.12,0-.19,0s-.09-.32-.07-.49c.02-.17,.19-.27,.37-.32,.17-.06,2.4-2.36,2.5-2.51,.11-.15,.16-.17,.16-.17,0,0,.09-.04,.19-.04s.16,.28,.16,.28c0,0,.07-.09,.19-.21,.12-.11,.07-.06,.16-.13,.09-.08,.1-.02,.1-.02l.12,.04s.02,.02,.07,.09c.05,.08,.02,.06,.02,.17s-1.06,1.26-1.06,1.26l5.75-2.87c-2.54-.31-5.92-.02-5.92-.02l-.35,.09-.16-.04-.31,.09s-.07,.06-.14,.08c-.07,.02-.14,.02-.21,.02s-.14,0-.21-.02c-.07-.02-.19-.04-.28-.08-.09-.04-.07-.08-.07-.15s-.02-.15-.02-.15c0,0-.02-.08-.02-.15s.03-.13,.1-.21c.07-.08,.4-.28,.4-.28,0,0-.19-.48,1.68-1.26,1.88-.78,5.16-1.71,5.16-1.71h0Zm3.1-2.3c-.06,0-.13,.08-.18,0-.05-.08-.06-.06-.05-.14,.01-.08,.05-.12,.09-.13,.05-.01,.01-.01,.11-.01s.12,.03,.12,.09,.04,.08-.02,.12c-.06,.04-.11,.08-.11,.08h.04Z"/>
    </g>
  </g>
</svg>