<?xml version="1.0" encoding="UTF-8"?>
<svg id="Layer_2" data-name="Layer 2" xmlns="http://www.w3.org/2000/svg" viewBox="0 0 1836 902">
  <defs>
    <style>
      .cls-1 {
        fill: #fff;
        stroke: #fff;
        stroke-miterlimit: 10;
        stroke-width: 3px;
      }
    </style>
  </defs>
  <g id="Layer_1-2" data-name="Layer 1">
    <line class="cls-1" y1="1.5" x2="220" y2="1.5"/>
    <line class="cls-1" x1="218.5" y1="90" x2="218.5" y2="0"/>
    <line class="cls-1" y1="88.5" x2="220" y2="88.5"/>
    <line class="cls-1" y1="272.5" x2="220" y2="272.5"/>
    <line class="cls-1" x1="218.5" y1="361" x2="218.5" y2="271"/>
    <line class="cls-1" y1="359.5" x2="220" y2="359.5"/>
    <line class="cls-1" y1="544.5" x2="220" y2="544.5"/>
    <line class="cls-1" x1="218.5" y1="633" x2="218.5" y2="543"/>
    <line class="cls-1" y1="631.5" x2="220" y2="631.5"/>
    <line class="cls-1" y1="813.5" x2="220" y2="813.5"/>
    <line class="cls-1" x1="218.5" y1="902" x2="218.5" y2="812"/>
    <line class="cls-1" y1="900.5" x2="220" y2="900.5"/>
    <line class="cls-1" x1="220" y1="38.5" x2="440" y2="38.5"/>
    <line class="cls-1" x1="220" y1="316.5" x2="440" y2="316.5"/>
    <line class="cls-1" x1="220" y1="588.5" x2="440" y2="588.5"/>
    <line class="cls-1" x1="220" y1="860.5" x2="440" y2="860.5"/>
    <line class="cls-1" x1="439.5" y1="318" x2="439.5" y2="37"/>
    <line class="cls-1" x1="439.5" y1="862" x2="439.5" y2="587"/>
    <line class="cls-1" x1="440" y1="177.5" x2="660" y2="177.5"/>
    <line class="cls-1" x1="440" y1="724.5" x2="660" y2="724.5"/>
    <line class="cls-1" x1="660.5" y1="726" x2="660.5" y2="176"/>
    <line class="cls-1" x1="661" y1="451.5" x2="881" y2="451.5"/>
    <line class="cls-1" x1="1836" y1="900.5" x2="1616" y2="900.5"/>
    <line class="cls-1" x1="1617.5" y1="812" x2="1617.5" y2="902"/>
    <line class="cls-1" x1="1836" y1="813.5" x2="1616" y2="813.5"/>
    <line class="cls-1" x1="1836" y1="629.5" x2="1616" y2="629.5"/>
    <line class="cls-1" x1="1617.5" y1="541" x2="1617.5" y2="631"/>
    <line class="cls-1" x1="1836" y1="542.5" x2="1616" y2="542.5"/>
    <line class="cls-1" x1="1836" y1="357.5" x2="1616" y2="357.5"/>
    <line class="cls-1" x1="1617.5" y1="269" x2="1617.5" y2="359"/>
    <line class="cls-1" x1="1836" y1="270.5" x2="1616" y2="270.5"/>
    <line class="cls-1" x1="1836" y1="88.5" x2="1616" y2="88.5"/>
    <line class="cls-1" x1="1617.5" y1="0" x2="1617.5" y2="90"/>
    <line class="cls-1" x1="1836" y1="1.5" x2="1616" y2="1.5"/>
    <line class="cls-1" x1="1616" y1="863.5" x2="1396" y2="863.5"/>
    <line class="cls-1" x1="1616" y1="585.5" x2="1396" y2="585.5"/>
    <line class="cls-1" x1="1616" y1="313.5" x2="1396" y2="313.5"/>
    <line class="cls-1" x1="1616" y1="41.5" x2="1396" y2="41.5"/>
    <line class="cls-1" x1="1396.5" y1="584" x2="1396.5" y2="865"/>
    <line class="cls-1" x1="1396.5" y1="40" x2="1396.5" y2="315"/>
    <line class="cls-1" x1="1396" y1="724.5" x2="1176" y2="724.5"/>
    <line class="cls-1" x1="1396" y1="177.5" x2="1176" y2="177.5"/>
    <line class="cls-1" x1="1175.5" y1="176" x2="1175.5" y2="726"/>
    <line class="cls-1" x1="1175" y1="450.5" x2="955" y2="450.5"/>
  </g>
</svg>