<?xml version="1.0" encoding="utf-8"?>
<svg viewBox="0 0 500 500" xmlns="http://www.w3.org/2000/svg" transform="rotate(180 0 0)">
  <path d="M 252.176 59.098 C 263.299 59.008 274.417 59.033 285.542 59.098 C 272.444 116.918 259.256 174.361 246.162 232.223 C 259.331 289.757 272.454 347.444 285.571 405.175 C 274.441 405.197 263.315 405.284 252.187 405.13 C 239.075 347.336 225.899 289.826 212.795 232.028 C 225.92 174.382 239.055 116.76 252.176 59.098 Z" style="stroke: rgb(255, 255, 255); fill: rgb(155, 155, 155);" transform="matrix(0, -1, 1, 0, 17.05353, 481.312439)"/>
  <path d="M 251.396 113.261 C 262.519 113.171 273.637 113.196 284.762 113.261 C 271.664 171.081 258.476 228.524 245.382 286.386 C 258.551 343.92 271.674 401.607 284.791 459.338 C 273.661 459.36 262.535 459.447 251.407 459.293 C 238.295 401.499 225.119 343.989 212.015 286.191 C 225.14 228.545 238.275 170.923 251.396 113.261 Z" style="stroke: rgb(255, 255, 255); fill: rgb(155, 155, 155);" transform="matrix(0, -1, 1, 0, -37.889446, 534.695374)"/>
</svg>